<mxfile host="Electron" modified="2024-04-22T16:09:01.509Z" agent="Mozilla/5.0 (Windows NT 10.0; Win64; x64) AppleWebKit/537.36 (KHTML, like Gecko) draw.io/24.2.5 Chrome/120.0.6099.109 Electron/28.1.0 Safari/537.36" etag="ajJa1QCJtsWH50UsJKJ0" version="24.2.5" type="device">
  <diagram name="Page-1" id="2c0d36ab-eaac-3732-788b-9136903baeff">
    <mxGraphModel dx="2628.5" dy="1838.5" grid="1" gridSize="10" guides="1" tooltips="1" connect="1" arrows="1" fold="1" page="1" pageScale="1.5" pageWidth="1169" pageHeight="827" background="none" math="1" shadow="0">
      <root>
        <mxCell id="0" />
        <mxCell id="1" parent="0" />
        <mxCell id="WcXE2H5rrCi0F2NGsBAx-125" value="" style="fillColor=#10739E;strokeColor=none;opacity=30;" vertex="1" parent="1">
          <mxGeometry x="271" y="-546.69" width="460" height="100" as="geometry" />
        </mxCell>
        <mxCell id="WcXE2H5rrCi0F2NGsBAx-124" value="" style="fillColor=#10739E;strokeColor=none;opacity=30;" vertex="1" parent="1">
          <mxGeometry x="-751" y="730" width="460" height="100" as="geometry" />
        </mxCell>
        <mxCell id="WcXE2H5rrCi0F2NGsBAx-123" value="" style="fillColor=#10739E;strokeColor=none;opacity=30;" vertex="1" parent="1">
          <mxGeometry x="-1040" y="730" width="260" height="100" as="geometry" />
        </mxCell>
        <mxCell id="SWZNe6TTEUUtdwUn30GW-329" value="" style="rounded=0;whiteSpace=wrap;html=1;strokeColor=none;" parent="1" vertex="1">
          <mxGeometry x="1890" y="-1136" width="1300" height="1096" as="geometry" />
        </mxCell>
        <mxCell id="SWZNe6TTEUUtdwUn30GW-209" value="&lt;font face=&quot;Times New Roman&quot;&gt;&lt;b&gt;Dynamic Programming&lt;/b&gt;&lt;/font&gt;" style="rounded=1;whiteSpace=wrap;html=1;fillColor=#F7F9FC;strokeColor=#6c8ebf;horizontal=1;verticalAlign=bottom;dashed=1;fontFamily=Helvetica;fontStyle=0;fontSize=22;glass=0;" parent="1" vertex="1">
          <mxGeometry x="2710" y="240" width="610" height="410" as="geometry" />
        </mxCell>
        <mxCell id="LNnul-zF4QBHD_PPK8Y6-362" value="" style="fillColor=#10739E;strokeColor=none;opacity=30;" parent="1" vertex="1">
          <mxGeometry x="-750" y="336.69" width="460" height="100" as="geometry" />
        </mxCell>
        <mxCell id="LNnul-zF4QBHD_PPK8Y6-361" value="" style="fillColor=#10739E;strokeColor=none;opacity=30;" parent="1" vertex="1">
          <mxGeometry x="-1520" y="335.69" width="690" height="100" as="geometry" />
        </mxCell>
        <mxCell id="LNnul-zF4QBHD_PPK8Y6-372" style="edgeStyle=orthogonalEdgeStyle;rounded=0;orthogonalLoop=1;jettySize=auto;html=1;entryX=0;entryY=0.5;entryDx=0;entryDy=0;" parent="1" source="LNnul-zF4QBHD_PPK8Y6-357" target="LNnul-zF4QBHD_PPK8Y6-190" edge="1">
          <mxGeometry relative="1" as="geometry">
            <Array as="points">
              <mxPoint x="-1175" y="780" />
            </Array>
          </mxGeometry>
        </mxCell>
        <mxCell id="LNnul-zF4QBHD_PPK8Y6-357" value="" style="fillColor=#F2931E;strokeColor=none;opacity=30;" parent="1" vertex="1">
          <mxGeometry x="-1270" y="471.62" width="190" height="230" as="geometry" />
        </mxCell>
        <mxCell id="LNnul-zF4QBHD_PPK8Y6-366" style="edgeStyle=orthogonalEdgeStyle;rounded=0;orthogonalLoop=1;jettySize=auto;html=1;" parent="1" source="LNnul-zF4QBHD_PPK8Y6-241" target="LNnul-zF4QBHD_PPK8Y6-189" edge="1">
          <mxGeometry relative="1" as="geometry" />
        </mxCell>
        <mxCell id="E2niR6juJKjIhaCyk29k-129" style="edgeStyle=orthogonalEdgeStyle;rounded=0;orthogonalLoop=1;jettySize=auto;html=1;" parent="1" source="LNnul-zF4QBHD_PPK8Y6-241" target="E2niR6juJKjIhaCyk29k-124" edge="1">
          <mxGeometry relative="1" as="geometry">
            <Array as="points">
              <mxPoint x="-645" y="710" />
              <mxPoint x="-397" y="710" />
            </Array>
          </mxGeometry>
        </mxCell>
        <mxCell id="LNnul-zF4QBHD_PPK8Y6-241" value="" style="fillColor=#F2931E;strokeColor=none;opacity=30;" parent="1" vertex="1">
          <mxGeometry x="-740" y="470" width="190" height="230" as="geometry" />
        </mxCell>
        <mxCell id="LNnul-zF4QBHD_PPK8Y6-240" value="" style="fillColor=#F2931E;strokeColor=none;opacity=30;" parent="1" vertex="1">
          <mxGeometry x="-491" y="469" width="190" height="160" as="geometry" />
        </mxCell>
        <mxCell id="LNnul-zF4QBHD_PPK8Y6-143" value="" style="fillColor=#10739E;strokeColor=none;opacity=30;" parent="1" vertex="1">
          <mxGeometry x="506" y="710" width="810" height="100" as="geometry" />
        </mxCell>
        <mxCell id="LNnul-zF4QBHD_PPK8Y6-134" value="" style="fillColor=#D9EAD3;strokeColor=none;gradientColor=none;opacity=80;" parent="1" vertex="1">
          <mxGeometry x="380" y="299.99" width="476" height="380.01" as="geometry" />
        </mxCell>
        <mxCell id="oTm5nmwh7l5USbTph1Lh-193" value="" style="fillColor=#D9EAD3;strokeColor=none;gradientColor=none;opacity=80;" parent="1" vertex="1">
          <mxGeometry x="320" y="829.99" width="596" height="380.01" as="geometry" />
        </mxCell>
        <mxCell id="oTm5nmwh7l5USbTph1Lh-190" value="" style="fillColor=#D9EAD3;strokeColor=none;gradientColor=none;opacity=80;" parent="1" vertex="1">
          <mxGeometry x="966" y="300" width="480" height="380" as="geometry" />
        </mxCell>
        <mxCell id="oTm5nmwh7l5USbTph1Lh-181" style="edgeStyle=orthogonalEdgeStyle;rounded=0;orthogonalLoop=1;jettySize=auto;html=1;" parent="1" source="oTm5nmwh7l5USbTph1Lh-176" target="oTm5nmwh7l5USbTph1Lh-131" edge="1">
          <mxGeometry relative="1" as="geometry" />
        </mxCell>
        <mxCell id="oTm5nmwh7l5USbTph1Lh-176" value="" style="fillColor=#F2931E;strokeColor=none;opacity=30;" parent="1" vertex="1">
          <mxGeometry x="636" y="430" width="190" height="230" as="geometry" />
        </mxCell>
        <mxCell id="oTm5nmwh7l5USbTph1Lh-159" value="" style="fillColor=#F2931E;strokeColor=none;opacity=30;" parent="1" vertex="1">
          <mxGeometry x="986" y="430" width="190" height="160" as="geometry" />
        </mxCell>
        <mxCell id="oTm5nmwh7l5USbTph1Lh-185" style="edgeStyle=orthogonalEdgeStyle;rounded=0;orthogonalLoop=1;jettySize=auto;html=1;" parent="1" source="oTm5nmwh7l5USbTph1Lh-140" target="oTm5nmwh7l5USbTph1Lh-184" edge="1">
          <mxGeometry relative="1" as="geometry" />
        </mxCell>
        <mxCell id="oTm5nmwh7l5USbTph1Lh-140" value="" style="fillColor=#F2931E;strokeColor=none;opacity=30;" parent="1" vertex="1">
          <mxGeometry x="1211" y="430" width="190" height="230" as="geometry" />
        </mxCell>
        <mxCell id="123" value="" style="fillColor=#AE4132;strokeColor=none;opacity=30;" parent="1" vertex="1">
          <mxGeometry x="806" y="30.00000000000003" width="210" height="99.99999999999994" as="geometry" />
        </mxCell>
        <mxCell id="122" value="" style="fillColor=#10739E;strokeColor=none;opacity=30;" parent="1" vertex="1">
          <mxGeometry x="506" y="170" width="810" height="100" as="geometry" />
        </mxCell>
        <mxCell id="LNnul-zF4QBHD_PPK8Y6-442" style="edgeStyle=orthogonalEdgeStyle;rounded=0;orthogonalLoop=1;jettySize=auto;html=1;" parent="1" source="2" target="122" edge="1">
          <mxGeometry relative="1" as="geometry" />
        </mxCell>
        <mxCell id="2" value="Reinforcement Learning" style="rounded=1;fillColor=#23445D;gradientColor=none;strokeColor=none;fontColor=#FFFFFF;fontStyle=1;fontFamily=Tahoma;fontSize=14" parent="1" vertex="1">
          <mxGeometry x="816" y="40" width="190" height="80" as="geometry" />
        </mxCell>
        <mxCell id="oTm5nmwh7l5USbTph1Lh-191" style="edgeStyle=orthogonalEdgeStyle;rounded=0;orthogonalLoop=1;jettySize=auto;html=1;" parent="1" source="12" target="oTm5nmwh7l5USbTph1Lh-190" edge="1">
          <mxGeometry relative="1" as="geometry" />
        </mxCell>
        <mxCell id="12" value="Model Based" style="rounded=1;fillColor=#23445D;gradientColor=none;strokeColor=none;fontColor=#FFFFFF;fontStyle=1;fontFamily=Tahoma;fontSize=14" parent="1" vertex="1">
          <mxGeometry x="1111" y="180" width="190" height="80" as="geometry" />
        </mxCell>
        <mxCell id="LNnul-zF4QBHD_PPK8Y6-135" style="edgeStyle=orthogonalEdgeStyle;rounded=0;orthogonalLoop=1;jettySize=auto;html=1;" parent="1" source="13" target="LNnul-zF4QBHD_PPK8Y6-134" edge="1">
          <mxGeometry relative="1" as="geometry" />
        </mxCell>
        <mxCell id="13" value="Model Free/&#xa;Sample Based" style="rounded=1;fillColor=#23445D;gradientColor=none;strokeColor=none;fontColor=#FFFFFF;fontStyle=1;fontFamily=Tahoma;fontSize=14" parent="1" vertex="1">
          <mxGeometry x="523" y="180" width="190" height="80" as="geometry" />
        </mxCell>
        <mxCell id="LNnul-zF4QBHD_PPK8Y6-142" style="edgeStyle=orthogonalEdgeStyle;rounded=0;orthogonalLoop=1;jettySize=auto;html=1;entryX=0.5;entryY=0;entryDx=0;entryDy=0;" parent="1" source="oTm5nmwh7l5USbTph1Lh-125" target="oTm5nmwh7l5USbTph1Lh-159" edge="1">
          <mxGeometry relative="1" as="geometry" />
        </mxCell>
        <mxCell id="oTm5nmwh7l5USbTph1Lh-125" value="Adaptive&#xa;Dynamic Programming" style="rounded=1;fillColor=#23445D;gradientColor=none;strokeColor=none;fontColor=#FFFFFF;fontStyle=1;fontFamily=Tahoma;fontSize=14" parent="1" vertex="1">
          <mxGeometry x="984.9999999999999" y="317.25" width="190" height="80" as="geometry" />
        </mxCell>
        <mxCell id="oTm5nmwh7l5USbTph1Lh-179" style="edgeStyle=orthogonalEdgeStyle;rounded=0;orthogonalLoop=1;jettySize=auto;html=1;entryX=0.5;entryY=0;entryDx=0;entryDy=0;" parent="1" source="oTm5nmwh7l5USbTph1Lh-129" target="oTm5nmwh7l5USbTph1Lh-162" edge="1">
          <mxGeometry relative="1" as="geometry" />
        </mxCell>
        <mxCell id="oTm5nmwh7l5USbTph1Lh-129" value="Policy Based" style="rounded=1;fillColor=#23445D;gradientColor=none;strokeColor=none;fontColor=#FFFFFF;fontStyle=1;fontFamily=Tahoma;fontSize=14" parent="1" vertex="1">
          <mxGeometry x="406" y="317.25" width="190" height="80" as="geometry" />
        </mxCell>
        <mxCell id="oTm5nmwh7l5USbTph1Lh-178" style="edgeStyle=orthogonalEdgeStyle;rounded=0;orthogonalLoop=1;jettySize=auto;html=1;entryX=0.5;entryY=0;entryDx=0;entryDy=0;" parent="1" source="oTm5nmwh7l5USbTph1Lh-130" target="oTm5nmwh7l5USbTph1Lh-176" edge="1">
          <mxGeometry relative="1" as="geometry" />
        </mxCell>
        <mxCell id="oTm5nmwh7l5USbTph1Lh-130" value="Value Based" style="rounded=1;fillColor=#23445D;gradientColor=none;strokeColor=none;fontColor=#FFFFFF;fontStyle=1;fontFamily=Tahoma;fontSize=14" parent="1" vertex="1">
          <mxGeometry x="636" y="317.25" width="190" height="80" as="geometry" />
        </mxCell>
        <mxCell id="oTm5nmwh7l5USbTph1Lh-195" style="edgeStyle=orthogonalEdgeStyle;rounded=0;orthogonalLoop=1;jettySize=auto;html=1;" parent="1" source="oTm5nmwh7l5USbTph1Lh-131" target="oTm5nmwh7l5USbTph1Lh-193" edge="1">
          <mxGeometry relative="1" as="geometry" />
        </mxCell>
        <mxCell id="oTm5nmwh7l5USbTph1Lh-131" value="Actor Critic" style="rounded=1;fillColor=#23445D;gradientColor=none;strokeColor=none;fontColor=#FFFFFF;fontStyle=1;fontFamily=Tahoma;fontSize=14" parent="1" vertex="1">
          <mxGeometry x="523" y="720" width="190" height="80" as="geometry" />
        </mxCell>
        <mxCell id="oTm5nmwh7l5USbTph1Lh-134" value="Policy-Iteration" style="rounded=1;fillColor=#23445D;gradientColor=none;strokeColor=none;fontColor=#FFFFFF;fontStyle=1;fontFamily=Tahoma;fontSize=14" parent="1" vertex="1">
          <mxGeometry x="1002" y="444" width="158" height="60" as="geometry" />
        </mxCell>
        <mxCell id="oTm5nmwh7l5USbTph1Lh-137" value="Value-Iteration" style="rounded=1;fillColor=#23445D;gradientColor=none;strokeColor=none;fontColor=#FFFFFF;fontStyle=1;fontFamily=Tahoma;fontSize=14" parent="1" vertex="1">
          <mxGeometry x="1000" y="515" width="160" height="60" as="geometry" />
        </mxCell>
        <mxCell id="oTm5nmwh7l5USbTph1Lh-142" value="HDP" style="rounded=1;fillColor=#23445D;gradientColor=none;strokeColor=none;fontColor=#FFFFFF;fontStyle=1;fontFamily=Tahoma;fontSize=14" parent="1" vertex="1">
          <mxGeometry x="1226" y="444" width="160" height="60" as="geometry" />
        </mxCell>
        <mxCell id="oTm5nmwh7l5USbTph1Lh-144" value="DHP" style="rounded=1;fillColor=#23445D;gradientColor=none;strokeColor=none;fontColor=#FFFFFF;fontStyle=1;fontFamily=Tahoma;fontSize=14" parent="1" vertex="1">
          <mxGeometry x="1226" y="516" width="160" height="60" as="geometry" />
        </mxCell>
        <mxCell id="oTm5nmwh7l5USbTph1Lh-148" value="GDHP" style="rounded=1;fillColor=#23445D;gradientColor=none;strokeColor=none;fontColor=#FFFFFF;fontStyle=1;fontFamily=Tahoma;fontSize=14" parent="1" vertex="1">
          <mxGeometry x="1226" y="590" width="160" height="60" as="geometry" />
        </mxCell>
        <mxCell id="oTm5nmwh7l5USbTph1Lh-180" style="edgeStyle=orthogonalEdgeStyle;rounded=0;orthogonalLoop=1;jettySize=auto;html=1;" parent="1" source="oTm5nmwh7l5USbTph1Lh-162" target="oTm5nmwh7l5USbTph1Lh-131" edge="1">
          <mxGeometry relative="1" as="geometry">
            <Array as="points">
              <mxPoint x="501" y="690" />
              <mxPoint x="618" y="690" />
            </Array>
          </mxGeometry>
        </mxCell>
        <mxCell id="oTm5nmwh7l5USbTph1Lh-162" value="" style="fillColor=#F2931E;strokeColor=none;opacity=30;" parent="1" vertex="1">
          <mxGeometry x="406" y="430" width="190" height="230" as="geometry" />
        </mxCell>
        <mxCell id="oTm5nmwh7l5USbTph1Lh-163" value="Q-learning" style="rounded=1;fillColor=#23445D;gradientColor=none;strokeColor=none;fontColor=#FFFFFF;fontStyle=1;fontFamily=Tahoma;fontSize=14" parent="1" vertex="1">
          <mxGeometry x="652" y="515" width="158" height="60" as="geometry" />
        </mxCell>
        <mxCell id="oTm5nmwh7l5USbTph1Lh-164" value="SARSA" style="rounded=1;fillColor=#23445D;gradientColor=none;strokeColor=none;fontColor=#FFFFFF;fontStyle=1;fontFamily=Tahoma;fontSize=14" parent="1" vertex="1">
          <mxGeometry x="652" y="444" width="158" height="60" as="geometry" />
        </mxCell>
        <mxCell id="oTm5nmwh7l5USbTph1Lh-166" value="REINFORCE" style="rounded=1;fillColor=#23445D;gradientColor=none;strokeColor=none;fontColor=#FFFFFF;fontStyle=1;fontFamily=Tahoma;fontSize=14" parent="1" vertex="1">
          <mxGeometry x="422" y="444" width="158" height="60" as="geometry" />
        </mxCell>
        <mxCell id="JBxCwhYzc8H2Tv5ehYNi-139" value="" style="fillColor=#F2931E;strokeColor=none;opacity=30;" parent="1" vertex="1">
          <mxGeometry x="532" y="950" width="174" height="240" as="geometry" />
        </mxCell>
        <mxCell id="oTm5nmwh7l5USbTph1Lh-168" value="DQN" style="rounded=1;fillColor=#23445D;gradientColor=none;strokeColor=none;fontColor=#FFFFFF;fontStyle=1;fontFamily=Tahoma;fontSize=14" parent="1" vertex="1">
          <mxGeometry x="652" y="590" width="158" height="60" as="geometry" />
        </mxCell>
        <mxCell id="oTm5nmwh7l5USbTph1Lh-170" value="TRPO" style="rounded=1;fillColor=#23445D;gradientColor=none;strokeColor=none;fontColor=#FFFFFF;fontStyle=1;fontFamily=Tahoma;fontSize=14" parent="1" vertex="1">
          <mxGeometry x="422" y="520" width="158" height="60" as="geometry" />
        </mxCell>
        <mxCell id="oTm5nmwh7l5USbTph1Lh-172" value="TD3" style="rounded=1;fillColor=#23445D;gradientColor=none;strokeColor=none;fontColor=#FFFFFF;fontStyle=1;fontFamily=Tahoma;fontSize=14" parent="1" vertex="1">
          <mxGeometry x="541.5" y="960" width="158" height="60" as="geometry" />
        </mxCell>
        <mxCell id="oTm5nmwh7l5USbTph1Lh-200" style="edgeStyle=orthogonalEdgeStyle;rounded=0;orthogonalLoop=1;jettySize=auto;html=1;exitX=1;exitY=0.5;exitDx=0;exitDy=0;" parent="1" target="oTm5nmwh7l5USbTph1Lh-186" edge="1">
          <mxGeometry relative="1" as="geometry">
            <mxPoint x="905.5" y="1030" as="sourcePoint" />
          </mxGeometry>
        </mxCell>
        <mxCell id="oTm5nmwh7l5USbTph1Lh-199" style="edgeStyle=orthogonalEdgeStyle;rounded=0;orthogonalLoop=1;jettySize=auto;html=1;" parent="1" source="oTm5nmwh7l5USbTph1Lh-184" target="oTm5nmwh7l5USbTph1Lh-186" edge="1">
          <mxGeometry relative="1" as="geometry" />
        </mxCell>
        <mxCell id="oTm5nmwh7l5USbTph1Lh-184" value="Incremental ACD" style="rounded=1;fillColor=#23445D;gradientColor=none;strokeColor=none;fontColor=#FFFFFF;fontStyle=1;fontFamily=Tahoma;fontSize=14" parent="1" vertex="1">
          <mxGeometry x="1117.5" y="720" width="190" height="80" as="geometry" />
        </mxCell>
        <mxCell id="oTm5nmwh7l5USbTph1Lh-186" value="Model Based &amp;&#xa;Model Free Hybrid" style="rounded=1;fillColor=#23445D;gradientColor=none;strokeColor=none;fontColor=#FFFFFF;fontStyle=1;fontFamily=Tahoma;fontSize=14" parent="1" vertex="1">
          <mxGeometry x="1117.5" y="990" width="190" height="80" as="geometry" />
        </mxCell>
        <mxCell id="LNnul-zF4QBHD_PPK8Y6-144" style="edgeStyle=orthogonalEdgeStyle;rounded=0;orthogonalLoop=1;jettySize=auto;html=1;" parent="1" source="oTm5nmwh7l5USbTph1Lh-192" target="oTm5nmwh7l5USbTph1Lh-172" edge="1">
          <mxGeometry relative="1" as="geometry" />
        </mxCell>
        <mxCell id="LNnul-zF4QBHD_PPK8Y6-147" value="" style="fillColor=#F2931E;strokeColor=none;opacity=30;" parent="1" vertex="1">
          <mxGeometry x="628" y="840" width="174" height="80" as="geometry" />
        </mxCell>
        <mxCell id="LNnul-zF4QBHD_PPK8Y6-145" style="edgeStyle=orthogonalEdgeStyle;rounded=0;orthogonalLoop=1;jettySize=auto;html=1;" parent="1" source="oTm5nmwh7l5USbTph1Lh-192" target="oTm5nmwh7l5USbTph1Lh-173" edge="1">
          <mxGeometry relative="1" as="geometry" />
        </mxCell>
        <mxCell id="oTm5nmwh7l5USbTph1Lh-192" value="DDPG" style="rounded=1;fillColor=#23445D;gradientColor=none;strokeColor=none;fontColor=#FFFFFF;fontStyle=1;fontFamily=Tahoma;fontSize=14" parent="1" vertex="1">
          <mxGeometry x="636" y="850" width="158" height="60" as="geometry" />
        </mxCell>
        <mxCell id="oTm5nmwh7l5USbTph1Lh-197" value="TD4" style="rounded=1;fillColor=#23445D;gradientColor=none;strokeColor=none;fontColor=#FFFFFF;fontStyle=1;fontFamily=Tahoma;fontSize=14" parent="1" vertex="1">
          <mxGeometry x="541.5" y="1040" width="158" height="60" as="geometry" />
        </mxCell>
        <mxCell id="oTm5nmwh7l5USbTph1Lh-198" value="TD7" style="rounded=1;fillColor=#23445D;gradientColor=none;strokeColor=none;fontColor=#FFFFFF;fontStyle=1;fontFamily=Tahoma;fontSize=14" parent="1" vertex="1">
          <mxGeometry x="541.5" y="1120" width="158" height="60" as="geometry" />
        </mxCell>
        <mxCell id="JBxCwhYzc8H2Tv5ehYNi-123" value="PPO" style="rounded=1;fillColor=#23445D;gradientColor=none;strokeColor=none;fontColor=#FFFFFF;fontStyle=1;fontFamily=Tahoma;fontSize=14" parent="1" vertex="1">
          <mxGeometry x="422" y="590" width="158" height="60" as="geometry" />
        </mxCell>
        <mxCell id="JBxCwhYzc8H2Tv5ehYNi-127" value="" style="fillColor=#F2931E;strokeColor=none;opacity=30;" parent="1" vertex="1">
          <mxGeometry x="340" y="951" width="176" height="159" as="geometry" />
        </mxCell>
        <mxCell id="JBxCwhYzc8H2Tv5ehYNi-126" value="A3C" style="rounded=1;fillColor=#23445D;gradientColor=none;strokeColor=none;fontColor=#FFFFFF;fontStyle=1;fontFamily=Tahoma;fontSize=14" parent="1" vertex="1">
          <mxGeometry x="349" y="1040" width="158" height="60" as="geometry" />
        </mxCell>
        <mxCell id="JBxCwhYzc8H2Tv5ehYNi-128" value="A2C" style="rounded=1;fillColor=#23445D;gradientColor=none;strokeColor=none;fontColor=#FFFFFF;fontStyle=1;fontFamily=Tahoma;fontSize=14;direction=west;" parent="1" vertex="1">
          <mxGeometry x="349" y="960" width="158" height="60" as="geometry" />
        </mxCell>
        <mxCell id="JBxCwhYzc8H2Tv5ehYNi-132" style="edgeStyle=orthogonalEdgeStyle;rounded=0;orthogonalLoop=1;jettySize=auto;html=1;" parent="1" source="JBxCwhYzc8H2Tv5ehYNi-131" target="JBxCwhYzc8H2Tv5ehYNi-127" edge="1">
          <mxGeometry relative="1" as="geometry" />
        </mxCell>
        <mxCell id="JBxCwhYzc8H2Tv5ehYNi-131" value="Advantage methods" style="rounded=1;fillColor=#23445D;gradientColor=none;strokeColor=none;fontColor=#FFFFFF;fontStyle=1;fontFamily=Tahoma;fontSize=14" parent="1" vertex="1">
          <mxGeometry x="349" y="850" width="158" height="60" as="geometry" />
        </mxCell>
        <mxCell id="LNnul-zF4QBHD_PPK8Y6-146" value="" style="fillColor=#F2931E;strokeColor=none;opacity=30;" parent="1" vertex="1">
          <mxGeometry x="730.5" y="951" width="174" height="159" as="geometry" />
        </mxCell>
        <mxCell id="oTm5nmwh7l5USbTph1Lh-173" value="SAC" style="rounded=1;fillColor=#23445D;gradientColor=none;strokeColor=none;fontColor=#FFFFFF;fontStyle=1;fontFamily=Tahoma;fontSize=14" parent="1" vertex="1">
          <mxGeometry x="738.5" y="960" width="158" height="60" as="geometry" />
        </mxCell>
        <mxCell id="JBxCwhYzc8H2Tv5ehYNi-145" value="DSAC" style="rounded=1;fillColor=#23445D;gradientColor=none;strokeColor=none;fontColor=#FFFFFF;fontStyle=1;fontFamily=Tahoma;fontSize=14" parent="1" vertex="1">
          <mxGeometry x="738.5" y="1040" width="158" height="60" as="geometry" />
        </mxCell>
        <mxCell id="LNnul-zF4QBHD_PPK8Y6-141" style="edgeStyle=orthogonalEdgeStyle;rounded=0;orthogonalLoop=1;jettySize=auto;html=1;entryX=0.5;entryY=0;entryDx=0;entryDy=0;" parent="1" source="LNnul-zF4QBHD_PPK8Y6-136" target="oTm5nmwh7l5USbTph1Lh-140" edge="1">
          <mxGeometry relative="1" as="geometry" />
        </mxCell>
        <mxCell id="LNnul-zF4QBHD_PPK8Y6-136" value="Adaptive &#xa;Critic Designs" style="rounded=1;fillColor=#23445D;gradientColor=none;strokeColor=none;fontColor=#FFFFFF;fontStyle=1;fontFamily=Tahoma;fontSize=14" parent="1" vertex="1">
          <mxGeometry x="1211" y="317.25" width="190" height="80" as="geometry" />
        </mxCell>
        <mxCell id="LNnul-zF4QBHD_PPK8Y6-158" value="" style="fillColor=#AE4132;strokeColor=none;opacity=30;" parent="1" vertex="1">
          <mxGeometry x="-951" y="70.00000000000003" width="210" height="99.99999999999994" as="geometry" />
        </mxCell>
        <mxCell id="LNnul-zF4QBHD_PPK8Y6-159" value="" style="fillColor=#10739E;strokeColor=none;opacity=30;" parent="1" vertex="1">
          <mxGeometry x="-1286" y="210" width="880" height="100" as="geometry" />
        </mxCell>
        <mxCell id="LNnul-zF4QBHD_PPK8Y6-363" style="edgeStyle=orthogonalEdgeStyle;rounded=0;orthogonalLoop=1;jettySize=auto;html=1;" parent="1" source="LNnul-zF4QBHD_PPK8Y6-160" target="LNnul-zF4QBHD_PPK8Y6-159" edge="1">
          <mxGeometry relative="1" as="geometry" />
        </mxCell>
        <mxCell id="LNnul-zF4QBHD_PPK8Y6-160" value="Reinforcement Learning" style="rounded=1;fillColor=#23445D;gradientColor=none;strokeColor=none;fontColor=#FFFFFF;fontStyle=1;fontFamily=Tahoma;fontSize=14" parent="1" vertex="1">
          <mxGeometry x="-941" y="80" width="190" height="80" as="geometry" />
        </mxCell>
        <mxCell id="LNnul-zF4QBHD_PPK8Y6-365" style="edgeStyle=orthogonalEdgeStyle;rounded=0;orthogonalLoop=1;jettySize=auto;html=1;" parent="1" source="LNnul-zF4QBHD_PPK8Y6-162" target="LNnul-zF4QBHD_PPK8Y6-362" edge="1">
          <mxGeometry relative="1" as="geometry" />
        </mxCell>
        <mxCell id="LNnul-zF4QBHD_PPK8Y6-162" value="Model Based" style="rounded=1;fillColor=#23445D;gradientColor=none;strokeColor=none;fontColor=#FFFFFF;fontStyle=1;fontFamily=Tahoma;fontSize=14" parent="1" vertex="1">
          <mxGeometry x="-615.0000000000001" y="220" width="190" height="80" as="geometry" />
        </mxCell>
        <mxCell id="LNnul-zF4QBHD_PPK8Y6-364" style="edgeStyle=orthogonalEdgeStyle;rounded=0;orthogonalLoop=1;jettySize=auto;html=1;entryX=0.5;entryY=0;entryDx=0;entryDy=0;" parent="1" source="LNnul-zF4QBHD_PPK8Y6-164" target="LNnul-zF4QBHD_PPK8Y6-361" edge="1">
          <mxGeometry relative="1" as="geometry" />
        </mxCell>
        <mxCell id="LNnul-zF4QBHD_PPK8Y6-164" value="Model Free/&#xa;Sample Based" style="rounded=1;fillColor=#23445D;gradientColor=none;strokeColor=none;fontColor=#FFFFFF;fontStyle=1;fontFamily=Tahoma;fontSize=14" parent="1" vertex="1">
          <mxGeometry x="-1270" y="220" width="190" height="80" as="geometry" />
        </mxCell>
        <mxCell id="LNnul-zF4QBHD_PPK8Y6-246" style="edgeStyle=orthogonalEdgeStyle;rounded=0;orthogonalLoop=1;jettySize=auto;html=1;entryX=0.5;entryY=0;entryDx=0;entryDy=0;" parent="1" source="LNnul-zF4QBHD_PPK8Y6-166" target="LNnul-zF4QBHD_PPK8Y6-240" edge="1">
          <mxGeometry relative="1" as="geometry" />
        </mxCell>
        <mxCell id="LNnul-zF4QBHD_PPK8Y6-166" value="Adaptive&#xa;Dynamic Programming" style="rounded=1;fillColor=#23445D;gradientColor=none;strokeColor=none;fontColor=#FFFFFF;fontStyle=1;fontFamily=Tahoma;fontSize=14" parent="1" vertex="1">
          <mxGeometry x="-491.0000000000001" y="348" width="190" height="80" as="geometry" />
        </mxCell>
        <mxCell id="LNnul-zF4QBHD_PPK8Y6-239" style="edgeStyle=orthogonalEdgeStyle;rounded=0;orthogonalLoop=1;jettySize=auto;html=1;entryX=0.5;entryY=0;entryDx=0;entryDy=0;" parent="1" source="LNnul-zF4QBHD_PPK8Y6-168" target="LNnul-zF4QBHD_PPK8Y6-218" edge="1">
          <mxGeometry relative="1" as="geometry" />
        </mxCell>
        <mxCell id="LNnul-zF4QBHD_PPK8Y6-359" style="edgeStyle=orthogonalEdgeStyle;rounded=0;orthogonalLoop=1;jettySize=auto;html=1;" parent="1" source="LNnul-zF4QBHD_PPK8Y6-168" target="LNnul-zF4QBHD_PPK8Y6-172" edge="1">
          <mxGeometry relative="1" as="geometry" />
        </mxCell>
        <mxCell id="LNnul-zF4QBHD_PPK8Y6-168" value="Policy Based" style="rounded=1;fillColor=#23445D;gradientColor=none;strokeColor=none;fontColor=#FFFFFF;fontStyle=1;fontFamily=Tahoma;fontSize=14" parent="1" vertex="1">
          <mxGeometry x="-1500" y="345.69" width="190" height="80" as="geometry" />
        </mxCell>
        <mxCell id="LNnul-zF4QBHD_PPK8Y6-238" style="edgeStyle=orthogonalEdgeStyle;rounded=0;orthogonalLoop=1;jettySize=auto;html=1;entryX=0.5;entryY=0;entryDx=0;entryDy=0;" parent="1" source="LNnul-zF4QBHD_PPK8Y6-170" target="LNnul-zF4QBHD_PPK8Y6-219" edge="1">
          <mxGeometry relative="1" as="geometry" />
        </mxCell>
        <mxCell id="LNnul-zF4QBHD_PPK8Y6-360" style="edgeStyle=orthogonalEdgeStyle;rounded=0;orthogonalLoop=1;jettySize=auto;html=1;" parent="1" source="LNnul-zF4QBHD_PPK8Y6-170" target="LNnul-zF4QBHD_PPK8Y6-172" edge="1">
          <mxGeometry relative="1" as="geometry" />
        </mxCell>
        <mxCell id="LNnul-zF4QBHD_PPK8Y6-170" value="Value Based" style="rounded=1;fillColor=#23445D;gradientColor=none;strokeColor=none;fontColor=#FFFFFF;fontStyle=1;fontFamily=Tahoma;fontSize=14" parent="1" vertex="1">
          <mxGeometry x="-1040" y="345.69" width="190" height="80" as="geometry" />
        </mxCell>
        <mxCell id="LNnul-zF4QBHD_PPK8Y6-358" style="edgeStyle=orthogonalEdgeStyle;rounded=0;orthogonalLoop=1;jettySize=auto;html=1;entryX=0.5;entryY=0;entryDx=0;entryDy=0;" parent="1" source="LNnul-zF4QBHD_PPK8Y6-172" target="LNnul-zF4QBHD_PPK8Y6-357" edge="1">
          <mxGeometry relative="1" as="geometry" />
        </mxCell>
        <mxCell id="LNnul-zF4QBHD_PPK8Y6-172" value="Actor Critic" style="rounded=1;fillColor=#23445D;gradientColor=none;strokeColor=none;fontColor=#FFFFFF;fontStyle=1;fontFamily=Tahoma;fontSize=14" parent="1" vertex="1">
          <mxGeometry x="-1270" y="345.69000000000005" width="190" height="80" as="geometry" />
        </mxCell>
        <mxCell id="LNnul-zF4QBHD_PPK8Y6-173" value="Policy-Iteration" style="rounded=1;fillColor=#23445D;gradientColor=none;strokeColor=none;fontColor=#FFFFFF;fontStyle=1;fontFamily=Tahoma;fontSize=14" parent="1" vertex="1">
          <mxGeometry x="-475" y="483" width="158" height="60" as="geometry" />
        </mxCell>
        <mxCell id="LNnul-zF4QBHD_PPK8Y6-174" value="Value-Iteration" style="rounded=1;fillColor=#23445D;gradientColor=none;strokeColor=none;fontColor=#FFFFFF;fontStyle=1;fontFamily=Tahoma;fontSize=14" parent="1" vertex="1">
          <mxGeometry x="-477" y="554" width="160" height="60" as="geometry" />
        </mxCell>
        <mxCell id="LNnul-zF4QBHD_PPK8Y6-175" value="HDP" style="rounded=1;fillColor=#23445D;gradientColor=none;strokeColor=none;fontColor=#FFFFFF;fontStyle=1;fontFamily=Tahoma;fontSize=14" parent="1" vertex="1">
          <mxGeometry x="-724" y="483" width="160" height="60" as="geometry" />
        </mxCell>
        <mxCell id="LNnul-zF4QBHD_PPK8Y6-176" value="DHP" style="rounded=1;fillColor=#23445D;gradientColor=none;strokeColor=none;fontColor=#FFFFFF;fontStyle=1;fontFamily=Tahoma;fontSize=14" parent="1" vertex="1">
          <mxGeometry x="-724" y="555" width="160" height="60" as="geometry" />
        </mxCell>
        <mxCell id="LNnul-zF4QBHD_PPK8Y6-177" value="GDHP" style="rounded=1;fillColor=#23445D;gradientColor=none;strokeColor=none;fontColor=#FFFFFF;fontStyle=1;fontFamily=Tahoma;fontSize=14" parent="1" vertex="1">
          <mxGeometry x="-724" y="629" width="160" height="60" as="geometry" />
        </mxCell>
        <mxCell id="LNnul-zF4QBHD_PPK8Y6-186" value="TD3, TD4, TD7" style="rounded=1;fillColor=#23445D;gradientColor=none;strokeColor=none;fontColor=#FFFFFF;fontStyle=1;fontFamily=Tahoma;fontSize=14" parent="1" vertex="1">
          <mxGeometry x="-1252" y="552" width="158" height="60" as="geometry" />
        </mxCell>
        <mxCell id="LNnul-zF4QBHD_PPK8Y6-371" style="edgeStyle=orthogonalEdgeStyle;rounded=0;orthogonalLoop=1;jettySize=auto;html=1;" parent="1" source="LNnul-zF4QBHD_PPK8Y6-189" target="LNnul-zF4QBHD_PPK8Y6-367" edge="1">
          <mxGeometry relative="1" as="geometry" />
        </mxCell>
        <mxCell id="LNnul-zF4QBHD_PPK8Y6-373" style="edgeStyle=orthogonalEdgeStyle;rounded=0;orthogonalLoop=1;jettySize=auto;html=1;" parent="1" source="LNnul-zF4QBHD_PPK8Y6-189" target="LNnul-zF4QBHD_PPK8Y6-190" edge="1">
          <mxGeometry relative="1" as="geometry" />
        </mxCell>
        <mxCell id="LNnul-zF4QBHD_PPK8Y6-189" value="Incremental ACD" style="rounded=1;fillColor=#23445D;gradientColor=none;strokeColor=none;fontColor=#FFFFFF;fontStyle=1;fontFamily=Tahoma;fontSize=14" parent="1" vertex="1">
          <mxGeometry x="-740" y="740" width="190" height="80" as="geometry" />
        </mxCell>
        <mxCell id="LNnul-zF4QBHD_PPK8Y6-378" style="edgeStyle=orthogonalEdgeStyle;rounded=0;orthogonalLoop=1;jettySize=auto;html=1;entryX=0.5;entryY=0;entryDx=0;entryDy=0;" parent="1" source="LNnul-zF4QBHD_PPK8Y6-190" target="LNnul-zF4QBHD_PPK8Y6-374" edge="1">
          <mxGeometry relative="1" as="geometry" />
        </mxCell>
        <mxCell id="LNnul-zF4QBHD_PPK8Y6-190" value="Model Based &amp;&#xa;Model Free Hybrid" style="rounded=1;fillColor=#23445D;gradientColor=none;strokeColor=none;fontColor=#FFFFFF;fontStyle=1;fontFamily=Tahoma;fontSize=14" parent="1" vertex="1">
          <mxGeometry x="-1000" y="740" width="190" height="80" as="geometry" />
        </mxCell>
        <mxCell id="LNnul-zF4QBHD_PPK8Y6-194" value="DDPG" style="rounded=1;fillColor=#23445D;gradientColor=none;strokeColor=none;fontColor=#FFFFFF;fontStyle=1;fontFamily=Tahoma;fontSize=14" parent="1" vertex="1">
          <mxGeometry x="-1254" y="482" width="158" height="60" as="geometry" />
        </mxCell>
        <mxCell id="LNnul-zF4QBHD_PPK8Y6-204" value="SAC, DSAC" style="rounded=1;fillColor=#23445D;gradientColor=none;strokeColor=none;fontColor=#FFFFFF;fontStyle=1;fontFamily=Tahoma;fontSize=14" parent="1" vertex="1">
          <mxGeometry x="-1254" y="622.5" width="158" height="60" as="geometry" />
        </mxCell>
        <mxCell id="LNnul-zF4QBHD_PPK8Y6-245" style="edgeStyle=orthogonalEdgeStyle;rounded=0;orthogonalLoop=1;jettySize=auto;html=1;entryX=0.5;entryY=0;entryDx=0;entryDy=0;" parent="1" source="LNnul-zF4QBHD_PPK8Y6-207" target="LNnul-zF4QBHD_PPK8Y6-241" edge="1">
          <mxGeometry relative="1" as="geometry" />
        </mxCell>
        <mxCell id="LNnul-zF4QBHD_PPK8Y6-207" value="Adaptive&#xa;Critic Designs" style="rounded=1;fillColor=#23445D;gradientColor=none;strokeColor=none;fontColor=#FFFFFF;fontStyle=1;fontFamily=Tahoma;fontSize=14" parent="1" vertex="1">
          <mxGeometry x="-740.0000000000001" y="348" width="190" height="80" as="geometry" />
        </mxCell>
        <mxCell id="LNnul-zF4QBHD_PPK8Y6-220" value="" style="group" parent="1" vertex="1" connectable="0">
          <mxGeometry x="-1040" y="470.07" width="190" height="229.99999999999994" as="geometry" />
        </mxCell>
        <mxCell id="LNnul-zF4QBHD_PPK8Y6-219" value="" style="fillColor=#F2931E;strokeColor=none;opacity=30;" parent="LNnul-zF4QBHD_PPK8Y6-220" vertex="1">
          <mxGeometry width="190" height="230" as="geometry" />
        </mxCell>
        <mxCell id="LNnul-zF4QBHD_PPK8Y6-180" value="Q-learning" style="rounded=1;fillColor=#23445D;gradientColor=none;strokeColor=none;fontColor=#FFFFFF;fontStyle=1;fontFamily=Tahoma;fontSize=14" parent="LNnul-zF4QBHD_PPK8Y6-220" vertex="1">
          <mxGeometry x="16" y="82.55000000000001" width="158" height="60" as="geometry" />
        </mxCell>
        <mxCell id="LNnul-zF4QBHD_PPK8Y6-181" value="SARSA" style="rounded=1;fillColor=#23445D;gradientColor=none;strokeColor=none;fontColor=#FFFFFF;fontStyle=1;fontFamily=Tahoma;fontSize=14" parent="LNnul-zF4QBHD_PPK8Y6-220" vertex="1">
          <mxGeometry x="16" y="11.550000000000011" width="158" height="60" as="geometry" />
        </mxCell>
        <mxCell id="LNnul-zF4QBHD_PPK8Y6-184" value="DQN" style="rounded=1;fillColor=#23445D;gradientColor=none;strokeColor=none;fontColor=#FFFFFF;fontStyle=1;fontFamily=Tahoma;fontSize=14" parent="LNnul-zF4QBHD_PPK8Y6-220" vertex="1">
          <mxGeometry x="16" y="153.18" width="158" height="60" as="geometry" />
        </mxCell>
        <mxCell id="LNnul-zF4QBHD_PPK8Y6-221" value="" style="group" parent="1" vertex="1" connectable="0">
          <mxGeometry x="-1500" y="474.06999999999994" width="190" height="229.99999999999994" as="geometry" />
        </mxCell>
        <mxCell id="LNnul-zF4QBHD_PPK8Y6-218" value="" style="fillColor=#F2931E;strokeColor=none;opacity=30;" parent="LNnul-zF4QBHD_PPK8Y6-221" vertex="1">
          <mxGeometry width="190" height="230" as="geometry" />
        </mxCell>
        <mxCell id="LNnul-zF4QBHD_PPK8Y6-182" value="REINFORCE" style="rounded=1;fillColor=#23445D;gradientColor=none;strokeColor=none;fontColor=#FFFFFF;fontStyle=1;fontFamily=Tahoma;fontSize=14" parent="LNnul-zF4QBHD_PPK8Y6-221" vertex="1">
          <mxGeometry x="16" y="11.550000000000011" width="158" height="60" as="geometry" />
        </mxCell>
        <mxCell id="LNnul-zF4QBHD_PPK8Y6-185" value="TRPO" style="rounded=1;fillColor=#23445D;gradientColor=none;strokeColor=none;fontColor=#FFFFFF;fontStyle=1;fontFamily=Tahoma;fontSize=14" parent="LNnul-zF4QBHD_PPK8Y6-221" vertex="1">
          <mxGeometry x="16" y="82.55000000000001" width="158" height="60" as="geometry" />
        </mxCell>
        <mxCell id="LNnul-zF4QBHD_PPK8Y6-197" value="PPO" style="rounded=1;fillColor=#23445D;gradientColor=none;strokeColor=none;fontColor=#FFFFFF;fontStyle=1;fontFamily=Tahoma;fontSize=14" parent="LNnul-zF4QBHD_PPK8Y6-221" vertex="1">
          <mxGeometry x="16" y="152.18" width="158" height="60" as="geometry" />
        </mxCell>
        <mxCell id="LNnul-zF4QBHD_PPK8Y6-302" value="" style="fillColor=#F2931E;strokeColor=none;opacity=30;" parent="1" vertex="1">
          <mxGeometry x="1208.75" y="1741" width="190" height="230" as="geometry" />
        </mxCell>
        <mxCell id="LNnul-zF4QBHD_PPK8Y6-303" value="" style="fillColor=#F2931E;strokeColor=none;opacity=30;" parent="1" vertex="1">
          <mxGeometry x="957.75" y="1740" width="190" height="160" as="geometry" />
        </mxCell>
        <mxCell id="LNnul-zF4QBHD_PPK8Y6-304" value="" style="fillColor=#F2931E;strokeColor=none;opacity=30;" parent="1" vertex="1">
          <mxGeometry x="380" y="2118" width="469" height="172" as="geometry" />
        </mxCell>
        <mxCell id="LNnul-zF4QBHD_PPK8Y6-305" value="" style="fillColor=#AE4132;strokeColor=none;opacity=30;" parent="1" vertex="1">
          <mxGeometry x="803" y="1340" width="210" height="99.99999999999994" as="geometry" />
        </mxCell>
        <mxCell id="LNnul-zF4QBHD_PPK8Y6-306" value="" style="fillColor=#10739E;strokeColor=none;opacity=30;" parent="1" vertex="1">
          <mxGeometry x="503.75" y="1480" width="810" height="100" as="geometry" />
        </mxCell>
        <mxCell id="LNnul-zF4QBHD_PPK8Y6-441" style="edgeStyle=orthogonalEdgeStyle;rounded=0;orthogonalLoop=1;jettySize=auto;html=1;" parent="1" source="LNnul-zF4QBHD_PPK8Y6-307" target="LNnul-zF4QBHD_PPK8Y6-306" edge="1">
          <mxGeometry relative="1" as="geometry" />
        </mxCell>
        <mxCell id="LNnul-zF4QBHD_PPK8Y6-307" value="Reinforcement Learning" style="rounded=1;fillColor=#23445D;gradientColor=none;strokeColor=none;fontColor=#FFFFFF;fontStyle=1;fontFamily=Tahoma;fontSize=14" parent="1" vertex="1">
          <mxGeometry x="813" y="1350" width="190" height="80" as="geometry" />
        </mxCell>
        <mxCell id="LNnul-zF4QBHD_PPK8Y6-308" style="edgeStyle=orthogonalEdgeStyle;rounded=0;orthogonalLoop=1;jettySize=auto;html=1;" parent="1" source="LNnul-zF4QBHD_PPK8Y6-310" target="LNnul-zF4QBHD_PPK8Y6-315" edge="1">
          <mxGeometry relative="1" as="geometry" />
        </mxCell>
        <mxCell id="LNnul-zF4QBHD_PPK8Y6-309" style="edgeStyle=orthogonalEdgeStyle;rounded=0;orthogonalLoop=1;jettySize=auto;html=1;" parent="1" source="LNnul-zF4QBHD_PPK8Y6-310" target="LNnul-zF4QBHD_PPK8Y6-341" edge="1">
          <mxGeometry relative="1" as="geometry" />
        </mxCell>
        <mxCell id="LNnul-zF4QBHD_PPK8Y6-310" value="Model Based" style="rounded=1;fillColor=#23445D;gradientColor=none;strokeColor=none;fontColor=#FFFFFF;fontStyle=1;fontFamily=Tahoma;fontSize=14" parent="1" vertex="1">
          <mxGeometry x="1077.75" y="1490" width="190" height="80" as="geometry" />
        </mxCell>
        <mxCell id="LNnul-zF4QBHD_PPK8Y6-311" style="edgeStyle=orthogonalEdgeStyle;rounded=0;orthogonalLoop=1;jettySize=auto;html=1;" parent="1" source="LNnul-zF4QBHD_PPK8Y6-313" target="LNnul-zF4QBHD_PPK8Y6-318" edge="1">
          <mxGeometry relative="1" as="geometry" />
        </mxCell>
        <mxCell id="LNnul-zF4QBHD_PPK8Y6-312" style="edgeStyle=orthogonalEdgeStyle;rounded=0;orthogonalLoop=1;jettySize=auto;html=1;" parent="1" source="LNnul-zF4QBHD_PPK8Y6-313" target="LNnul-zF4QBHD_PPK8Y6-321" edge="1">
          <mxGeometry relative="1" as="geometry" />
        </mxCell>
        <mxCell id="LNnul-zF4QBHD_PPK8Y6-313" value="Model Free/&#xa;Sample Based" style="rounded=1;fillColor=#23445D;gradientColor=none;strokeColor=none;fontColor=#FFFFFF;fontStyle=1;fontFamily=Tahoma;fontSize=14" parent="1" vertex="1">
          <mxGeometry x="520.75" y="1490" width="190" height="80" as="geometry" />
        </mxCell>
        <mxCell id="LNnul-zF4QBHD_PPK8Y6-314" style="edgeStyle=orthogonalEdgeStyle;rounded=0;orthogonalLoop=1;jettySize=auto;html=1;entryX=0.5;entryY=0;entryDx=0;entryDy=0;" parent="1" source="LNnul-zF4QBHD_PPK8Y6-315" target="LNnul-zF4QBHD_PPK8Y6-303" edge="1">
          <mxGeometry relative="1" as="geometry" />
        </mxCell>
        <mxCell id="LNnul-zF4QBHD_PPK8Y6-315" value="Adaptive&#xa;Dynamic Programming" style="rounded=1;fillColor=#23445D;gradientColor=none;strokeColor=none;fontColor=#FFFFFF;fontStyle=1;fontFamily=Tahoma;fontSize=14" parent="1" vertex="1">
          <mxGeometry x="957.7499999999999" y="1619" width="190" height="80" as="geometry" />
        </mxCell>
        <mxCell id="LNnul-zF4QBHD_PPK8Y6-316" style="edgeStyle=orthogonalEdgeStyle;rounded=0;orthogonalLoop=1;jettySize=auto;html=1;" parent="1" source="LNnul-zF4QBHD_PPK8Y6-318" target="LNnul-zF4QBHD_PPK8Y6-324" edge="1">
          <mxGeometry relative="1" as="geometry">
            <Array as="points">
              <mxPoint x="614.5" y="1656.07" />
            </Array>
          </mxGeometry>
        </mxCell>
        <mxCell id="LNnul-zF4QBHD_PPK8Y6-317" style="edgeStyle=orthogonalEdgeStyle;rounded=0;orthogonalLoop=1;jettySize=auto;html=1;entryX=0.5;entryY=0;entryDx=0;entryDy=0;" parent="1" source="LNnul-zF4QBHD_PPK8Y6-318" target="LNnul-zF4QBHD_PPK8Y6-348" edge="1">
          <mxGeometry relative="1" as="geometry" />
        </mxCell>
        <mxCell id="LNnul-zF4QBHD_PPK8Y6-318" value="Policy Based" style="rounded=1;fillColor=#23445D;gradientColor=none;strokeColor=none;fontColor=#FFFFFF;fontStyle=1;fontFamily=Tahoma;fontSize=14" parent="1" vertex="1">
          <mxGeometry x="387.75" y="1615.69" width="190" height="80" as="geometry" />
        </mxCell>
        <mxCell id="LNnul-zF4QBHD_PPK8Y6-319" style="edgeStyle=orthogonalEdgeStyle;rounded=0;orthogonalLoop=1;jettySize=auto;html=1;" parent="1" source="LNnul-zF4QBHD_PPK8Y6-321" target="LNnul-zF4QBHD_PPK8Y6-324" edge="1">
          <mxGeometry relative="1" as="geometry">
            <Array as="points">
              <mxPoint x="614.5" y="1656.07" />
            </Array>
          </mxGeometry>
        </mxCell>
        <mxCell id="LNnul-zF4QBHD_PPK8Y6-320" style="edgeStyle=orthogonalEdgeStyle;rounded=0;orthogonalLoop=1;jettySize=auto;html=1;entryX=0.5;entryY=0;entryDx=0;entryDy=0;" parent="1" source="LNnul-zF4QBHD_PPK8Y6-321" target="LNnul-zF4QBHD_PPK8Y6-343" edge="1">
          <mxGeometry relative="1" as="geometry" />
        </mxCell>
        <mxCell id="LNnul-zF4QBHD_PPK8Y6-321" value="Value Based" style="rounded=1;fillColor=#23445D;gradientColor=none;strokeColor=none;fontColor=#FFFFFF;fontStyle=1;fontFamily=Tahoma;fontSize=14" parent="1" vertex="1">
          <mxGeometry x="647.75" y="1615.69" width="190" height="80" as="geometry" />
        </mxCell>
        <mxCell id="LNnul-zF4QBHD_PPK8Y6-322" style="edgeStyle=orthogonalEdgeStyle;rounded=0;orthogonalLoop=1;jettySize=auto;html=1;entryX=0.5;entryY=0;entryDx=0;entryDy=0;" parent="1" source="LNnul-zF4QBHD_PPK8Y6-324" target="LNnul-zF4QBHD_PPK8Y6-304" edge="1">
          <mxGeometry relative="1" as="geometry" />
        </mxCell>
        <mxCell id="LNnul-zF4QBHD_PPK8Y6-323" style="edgeStyle=orthogonalEdgeStyle;rounded=0;orthogonalLoop=1;jettySize=auto;html=1;" parent="1" source="LNnul-zF4QBHD_PPK8Y6-324" target="LNnul-zF4QBHD_PPK8Y6-333" edge="1">
          <mxGeometry relative="1" as="geometry" />
        </mxCell>
        <mxCell id="LNnul-zF4QBHD_PPK8Y6-324" value="Actor Critic" style="rounded=1;fillColor=#23445D;gradientColor=none;strokeColor=none;fontColor=#FFFFFF;fontStyle=1;fontFamily=Tahoma;fontSize=14" parent="1" vertex="1">
          <mxGeometry x="519.5" y="2010.0700000000002" width="190" height="80" as="geometry" />
        </mxCell>
        <mxCell id="LNnul-zF4QBHD_PPK8Y6-325" value="Policy-Iteration" style="rounded=1;fillColor=#23445D;gradientColor=none;strokeColor=none;fontColor=#FFFFFF;fontStyle=1;fontFamily=Tahoma;fontSize=14" parent="1" vertex="1">
          <mxGeometry x="973.75" y="1754" width="158" height="60" as="geometry" />
        </mxCell>
        <mxCell id="LNnul-zF4QBHD_PPK8Y6-326" value="Value-Iteration" style="rounded=1;fillColor=#23445D;gradientColor=none;strokeColor=none;fontColor=#FFFFFF;fontStyle=1;fontFamily=Tahoma;fontSize=14" parent="1" vertex="1">
          <mxGeometry x="971.75" y="1825" width="160" height="60" as="geometry" />
        </mxCell>
        <mxCell id="LNnul-zF4QBHD_PPK8Y6-327" value="HDP" style="rounded=1;fillColor=#23445D;gradientColor=none;strokeColor=none;fontColor=#FFFFFF;fontStyle=1;fontFamily=Tahoma;fontSize=14" parent="1" vertex="1">
          <mxGeometry x="1224.75" y="1754" width="160" height="60" as="geometry" />
        </mxCell>
        <mxCell id="LNnul-zF4QBHD_PPK8Y6-328" value="DHP" style="rounded=1;fillColor=#23445D;gradientColor=none;strokeColor=none;fontColor=#FFFFFF;fontStyle=1;fontFamily=Tahoma;fontSize=14" parent="1" vertex="1">
          <mxGeometry x="1224.75" y="1826" width="160" height="60" as="geometry" />
        </mxCell>
        <mxCell id="LNnul-zF4QBHD_PPK8Y6-329" value="GDHP" style="rounded=1;fillColor=#23445D;gradientColor=none;strokeColor=none;fontColor=#FFFFFF;fontStyle=1;fontFamily=Tahoma;fontSize=14" parent="1" vertex="1">
          <mxGeometry x="1224.75" y="1900" width="160" height="60" as="geometry" />
        </mxCell>
        <mxCell id="LNnul-zF4QBHD_PPK8Y6-330" value="TD3, TD4, TD7" style="rounded=1;fillColor=#23445D;gradientColor=none;strokeColor=none;fontColor=#FFFFFF;fontStyle=1;fontFamily=Tahoma;fontSize=14" parent="1" vertex="1">
          <mxGeometry x="495" y="2218" width="158" height="60" as="geometry" />
        </mxCell>
        <mxCell id="LNnul-zF4QBHD_PPK8Y6-331" style="edgeStyle=orthogonalEdgeStyle;rounded=0;orthogonalLoop=1;jettySize=auto;html=1;" parent="1" source="LNnul-zF4QBHD_PPK8Y6-332" target="LNnul-zF4QBHD_PPK8Y6-333" edge="1">
          <mxGeometry relative="1" as="geometry" />
        </mxCell>
        <mxCell id="LNnul-zF4QBHD_PPK8Y6-332" value="Incremental ACD" style="rounded=1;fillColor=#23445D;gradientColor=none;strokeColor=none;fontColor=#FFFFFF;fontStyle=1;fontFamily=Tahoma;fontSize=14" parent="1" vertex="1">
          <mxGeometry x="1077.75" y="2010.0700000000002" width="190" height="80" as="geometry" />
        </mxCell>
        <mxCell id="LNnul-zF4QBHD_PPK8Y6-333" value="Model Based &amp;&#xa;Model Free Hybrid" style="rounded=1;fillColor=#23445D;gradientColor=none;strokeColor=none;fontColor=#FFFFFF;fontStyle=1;fontFamily=Tahoma;fontSize=14" parent="1" vertex="1">
          <mxGeometry x="823.75" y="2320" width="190" height="80" as="geometry" />
        </mxCell>
        <mxCell id="LNnul-zF4QBHD_PPK8Y6-334" style="edgeStyle=orthogonalEdgeStyle;rounded=0;orthogonalLoop=1;jettySize=auto;html=1;" parent="1" source="LNnul-zF4QBHD_PPK8Y6-336" target="LNnul-zF4QBHD_PPK8Y6-330" edge="1">
          <mxGeometry relative="1" as="geometry">
            <Array as="points">
              <mxPoint x="664" y="2202" />
              <mxPoint x="574" y="2202" />
            </Array>
          </mxGeometry>
        </mxCell>
        <mxCell id="LNnul-zF4QBHD_PPK8Y6-335" style="edgeStyle=orthogonalEdgeStyle;rounded=0;orthogonalLoop=1;jettySize=auto;html=1;" parent="1" source="LNnul-zF4QBHD_PPK8Y6-336" target="LNnul-zF4QBHD_PPK8Y6-338" edge="1">
          <mxGeometry relative="1" as="geometry">
            <Array as="points">
              <mxPoint x="664" y="2202" />
              <mxPoint x="754" y="2202" />
            </Array>
          </mxGeometry>
        </mxCell>
        <mxCell id="LNnul-zF4QBHD_PPK8Y6-336" value="DDPG" style="rounded=1;fillColor=#23445D;gradientColor=none;strokeColor=none;fontColor=#FFFFFF;fontStyle=1;fontFamily=Tahoma;fontSize=14" parent="1" vertex="1">
          <mxGeometry x="585" y="2132" width="158" height="60" as="geometry" />
        </mxCell>
        <mxCell id="LNnul-zF4QBHD_PPK8Y6-337" value="A2C, A3C" style="rounded=1;fillColor=#23445D;gradientColor=none;strokeColor=none;fontColor=#FFFFFF;fontStyle=1;fontFamily=Tahoma;fontSize=14" parent="1" vertex="1">
          <mxGeometry x="395" y="2132" width="158" height="60" as="geometry" />
        </mxCell>
        <mxCell id="LNnul-zF4QBHD_PPK8Y6-338" value="SAC, DSAC" style="rounded=1;fillColor=#23445D;gradientColor=none;strokeColor=none;fontColor=#FFFFFF;fontStyle=1;fontFamily=Tahoma;fontSize=14" parent="1" vertex="1">
          <mxGeometry x="675" y="2218" width="158" height="60" as="geometry" />
        </mxCell>
        <mxCell id="LNnul-zF4QBHD_PPK8Y6-339" style="edgeStyle=orthogonalEdgeStyle;rounded=0;orthogonalLoop=1;jettySize=auto;html=1;entryX=1;entryY=0.5;entryDx=0;entryDy=0;" parent="1" source="LNnul-zF4QBHD_PPK8Y6-341" target="LNnul-zF4QBHD_PPK8Y6-332" edge="1">
          <mxGeometry relative="1" as="geometry">
            <Array as="points">
              <mxPoint x="1417.75" y="1659" />
              <mxPoint x="1417.75" y="2050" />
            </Array>
          </mxGeometry>
        </mxCell>
        <mxCell id="LNnul-zF4QBHD_PPK8Y6-340" style="edgeStyle=orthogonalEdgeStyle;rounded=0;orthogonalLoop=1;jettySize=auto;html=1;entryX=0.5;entryY=0;entryDx=0;entryDy=0;" parent="1" source="LNnul-zF4QBHD_PPK8Y6-341" target="LNnul-zF4QBHD_PPK8Y6-302" edge="1">
          <mxGeometry relative="1" as="geometry" />
        </mxCell>
        <mxCell id="LNnul-zF4QBHD_PPK8Y6-341" value="Adaptive&#xa;Critic Designs" style="rounded=1;fillColor=#23445D;gradientColor=none;strokeColor=none;fontColor=#FFFFFF;fontStyle=1;fontFamily=Tahoma;fontSize=14" parent="1" vertex="1">
          <mxGeometry x="1208.75" y="1619" width="190" height="80" as="geometry" />
        </mxCell>
        <mxCell id="LNnul-zF4QBHD_PPK8Y6-342" value="" style="group" parent="1" vertex="1" connectable="0">
          <mxGeometry x="647.75" y="1740.07" width="190" height="229.99999999999994" as="geometry" />
        </mxCell>
        <mxCell id="LNnul-zF4QBHD_PPK8Y6-343" value="" style="fillColor=#F2931E;strokeColor=none;opacity=30;" parent="LNnul-zF4QBHD_PPK8Y6-342" vertex="1">
          <mxGeometry width="190" height="230" as="geometry" />
        </mxCell>
        <mxCell id="LNnul-zF4QBHD_PPK8Y6-344" value="Q-learning" style="rounded=1;fillColor=#23445D;gradientColor=none;strokeColor=none;fontColor=#FFFFFF;fontStyle=1;fontFamily=Tahoma;fontSize=14" parent="LNnul-zF4QBHD_PPK8Y6-342" vertex="1">
          <mxGeometry x="16" y="82.55000000000001" width="158" height="60" as="geometry" />
        </mxCell>
        <mxCell id="LNnul-zF4QBHD_PPK8Y6-345" value="SARSA" style="rounded=1;fillColor=#23445D;gradientColor=none;strokeColor=none;fontColor=#FFFFFF;fontStyle=1;fontFamily=Tahoma;fontSize=14" parent="LNnul-zF4QBHD_PPK8Y6-342" vertex="1">
          <mxGeometry x="16" y="11.550000000000011" width="158" height="60" as="geometry" />
        </mxCell>
        <mxCell id="LNnul-zF4QBHD_PPK8Y6-346" value="DQN" style="rounded=1;fillColor=#23445D;gradientColor=none;strokeColor=none;fontColor=#FFFFFF;fontStyle=1;fontFamily=Tahoma;fontSize=14" parent="LNnul-zF4QBHD_PPK8Y6-342" vertex="1">
          <mxGeometry x="16" y="153.18" width="158" height="60" as="geometry" />
        </mxCell>
        <mxCell id="LNnul-zF4QBHD_PPK8Y6-347" value="" style="group" parent="1" vertex="1" connectable="0">
          <mxGeometry x="387.75" y="1744.07" width="190" height="229.99999999999994" as="geometry" />
        </mxCell>
        <mxCell id="LNnul-zF4QBHD_PPK8Y6-348" value="" style="fillColor=#F2931E;strokeColor=none;opacity=30;" parent="LNnul-zF4QBHD_PPK8Y6-347" vertex="1">
          <mxGeometry width="190" height="230" as="geometry" />
        </mxCell>
        <mxCell id="LNnul-zF4QBHD_PPK8Y6-349" value="REINFORCE" style="rounded=1;fillColor=#23445D;gradientColor=none;strokeColor=none;fontColor=#FFFFFF;fontStyle=1;fontFamily=Tahoma;fontSize=14" parent="LNnul-zF4QBHD_PPK8Y6-347" vertex="1">
          <mxGeometry x="16" y="11.550000000000011" width="158" height="60" as="geometry" />
        </mxCell>
        <mxCell id="LNnul-zF4QBHD_PPK8Y6-350" value="TRPO" style="rounded=1;fillColor=#23445D;gradientColor=none;strokeColor=none;fontColor=#FFFFFF;fontStyle=1;fontFamily=Tahoma;fontSize=14" parent="LNnul-zF4QBHD_PPK8Y6-347" vertex="1">
          <mxGeometry x="16" y="82.55000000000001" width="158" height="60" as="geometry" />
        </mxCell>
        <mxCell id="LNnul-zF4QBHD_PPK8Y6-351" value="PPO" style="rounded=1;fillColor=#23445D;gradientColor=none;strokeColor=none;fontColor=#FFFFFF;fontStyle=1;fontFamily=Tahoma;fontSize=14" parent="LNnul-zF4QBHD_PPK8Y6-347" vertex="1">
          <mxGeometry x="16" y="152.18" width="158" height="60" as="geometry" />
        </mxCell>
        <mxCell id="LNnul-zF4QBHD_PPK8Y6-367" value="" style="fillColor=#F2931E;strokeColor=none;opacity=30;" parent="1" vertex="1">
          <mxGeometry x="-740" y="850" width="190" height="230" as="geometry" />
        </mxCell>
        <mxCell id="LNnul-zF4QBHD_PPK8Y6-368" value="IHDP" style="rounded=1;fillColor=#23445D;gradientColor=none;strokeColor=none;fontColor=#FFFFFF;fontStyle=1;fontFamily=Tahoma;fontSize=14" parent="1" vertex="1">
          <mxGeometry x="-724" y="863" width="160" height="60" as="geometry" />
        </mxCell>
        <mxCell id="LNnul-zF4QBHD_PPK8Y6-369" value="IDHP" style="rounded=1;fillColor=#23445D;gradientColor=none;strokeColor=none;fontColor=#FFFFFF;fontStyle=1;fontFamily=Tahoma;fontSize=14" parent="1" vertex="1">
          <mxGeometry x="-724" y="935" width="160" height="60" as="geometry" />
        </mxCell>
        <mxCell id="LNnul-zF4QBHD_PPK8Y6-370" value="IGDHP" style="rounded=1;fillColor=#23445D;gradientColor=none;strokeColor=none;fontColor=#FFFFFF;fontStyle=1;fontFamily=Tahoma;fontSize=14" parent="1" vertex="1">
          <mxGeometry x="-724" y="1009" width="160" height="60" as="geometry" />
        </mxCell>
        <mxCell id="LNnul-zF4QBHD_PPK8Y6-374" value="" style="fillColor=#F2931E;strokeColor=none;opacity=30;" parent="1" vertex="1">
          <mxGeometry x="-1000" y="850" width="190" height="160" as="geometry" />
        </mxCell>
        <mxCell id="LNnul-zF4QBHD_PPK8Y6-375" value="SAC-IDHP" style="rounded=1;fillColor=#23445D;gradientColor=none;strokeColor=none;fontColor=#FFFFFF;fontStyle=1;fontFamily=Tahoma;fontSize=14" parent="1" vertex="1">
          <mxGeometry x="-984" y="863" width="160" height="60" as="geometry" />
        </mxCell>
        <mxCell id="LNnul-zF4QBHD_PPK8Y6-376" value="DSAC-IDHP" style="rounded=1;fillColor=#23445D;gradientColor=none;strokeColor=none;fontColor=#FFFFFF;fontStyle=1;fontFamily=Tahoma;fontSize=14" parent="1" vertex="1">
          <mxGeometry x="-984" y="935" width="160" height="60" as="geometry" />
        </mxCell>
        <mxCell id="LNnul-zF4QBHD_PPK8Y6-383" value="" style="fillColor=#10739E;strokeColor=none;opacity=30;" parent="1" vertex="1">
          <mxGeometry x="-750" y="1616.69" width="460" height="100" as="geometry" />
        </mxCell>
        <mxCell id="LNnul-zF4QBHD_PPK8Y6-384" value="" style="fillColor=#10739E;strokeColor=none;opacity=30;" parent="1" vertex="1">
          <mxGeometry x="-1520" y="1615.69" width="690" height="100" as="geometry" />
        </mxCell>
        <mxCell id="LNnul-zF4QBHD_PPK8Y6-385" style="edgeStyle=orthogonalEdgeStyle;rounded=0;orthogonalLoop=1;jettySize=auto;html=1;entryX=0;entryY=0.5;entryDx=0;entryDy=0;" parent="1" source="LNnul-zF4QBHD_PPK8Y6-386" target="LNnul-zF4QBHD_PPK8Y6-418" edge="1">
          <mxGeometry relative="1" as="geometry">
            <Array as="points">
              <mxPoint x="-1175" y="2060" />
            </Array>
          </mxGeometry>
        </mxCell>
        <mxCell id="LNnul-zF4QBHD_PPK8Y6-386" value="" style="fillColor=#F2931E;strokeColor=none;opacity=30;" parent="1" vertex="1">
          <mxGeometry x="-1270" y="1751.62" width="190" height="230" as="geometry" />
        </mxCell>
        <mxCell id="LNnul-zF4QBHD_PPK8Y6-387" style="edgeStyle=orthogonalEdgeStyle;rounded=0;orthogonalLoop=1;jettySize=auto;html=1;" parent="1" source="LNnul-zF4QBHD_PPK8Y6-388" target="LNnul-zF4QBHD_PPK8Y6-416" edge="1">
          <mxGeometry relative="1" as="geometry" />
        </mxCell>
        <mxCell id="LNnul-zF4QBHD_PPK8Y6-388" value="" style="fillColor=#F2931E;strokeColor=none;opacity=30;" parent="1" vertex="1">
          <mxGeometry x="-740" y="1750" width="190" height="230" as="geometry" />
        </mxCell>
        <mxCell id="LNnul-zF4QBHD_PPK8Y6-389" value="" style="fillColor=#F2931E;strokeColor=none;opacity=30;" parent="1" vertex="1">
          <mxGeometry x="-491" y="1749" width="190" height="160" as="geometry" />
        </mxCell>
        <mxCell id="LNnul-zF4QBHD_PPK8Y6-390" value="" style="fillColor=#AE4132;strokeColor=none;opacity=30;" parent="1" vertex="1">
          <mxGeometry x="-951" y="1350" width="210" height="99.99999999999994" as="geometry" />
        </mxCell>
        <mxCell id="LNnul-zF4QBHD_PPK8Y6-391" value="" style="fillColor=#10739E;strokeColor=none;opacity=30;" parent="1" vertex="1">
          <mxGeometry x="-1286" y="1490" width="880" height="100" as="geometry" />
        </mxCell>
        <mxCell id="LNnul-zF4QBHD_PPK8Y6-392" style="edgeStyle=orthogonalEdgeStyle;rounded=0;orthogonalLoop=1;jettySize=auto;html=1;" parent="1" source="LNnul-zF4QBHD_PPK8Y6-393" target="LNnul-zF4QBHD_PPK8Y6-391" edge="1">
          <mxGeometry relative="1" as="geometry" />
        </mxCell>
        <mxCell id="LNnul-zF4QBHD_PPK8Y6-393" value="Reinforcement Learning" style="rounded=1;fillColor=#23445D;gradientColor=none;strokeColor=none;fontColor=#FFFFFF;fontStyle=1;fontFamily=Tahoma;fontSize=14" parent="1" vertex="1">
          <mxGeometry x="-941" y="1360" width="190" height="80" as="geometry" />
        </mxCell>
        <mxCell id="LNnul-zF4QBHD_PPK8Y6-394" style="edgeStyle=orthogonalEdgeStyle;rounded=0;orthogonalLoop=1;jettySize=auto;html=1;" parent="1" source="LNnul-zF4QBHD_PPK8Y6-395" target="LNnul-zF4QBHD_PPK8Y6-383" edge="1">
          <mxGeometry relative="1" as="geometry" />
        </mxCell>
        <mxCell id="LNnul-zF4QBHD_PPK8Y6-395" value="Model Based" style="rounded=1;fillColor=#23445D;gradientColor=none;strokeColor=none;fontColor=#FFFFFF;fontStyle=1;fontFamily=Tahoma;fontSize=14" parent="1" vertex="1">
          <mxGeometry x="-615.0000000000001" y="1500" width="190" height="80" as="geometry" />
        </mxCell>
        <mxCell id="LNnul-zF4QBHD_PPK8Y6-396" style="edgeStyle=orthogonalEdgeStyle;rounded=0;orthogonalLoop=1;jettySize=auto;html=1;entryX=0.5;entryY=0;entryDx=0;entryDy=0;" parent="1" source="LNnul-zF4QBHD_PPK8Y6-397" target="LNnul-zF4QBHD_PPK8Y6-384" edge="1">
          <mxGeometry relative="1" as="geometry" />
        </mxCell>
        <mxCell id="LNnul-zF4QBHD_PPK8Y6-397" value="Model Free/&#xa;Sample Based" style="rounded=1;fillColor=#23445D;gradientColor=none;strokeColor=none;fontColor=#FFFFFF;fontStyle=1;fontFamily=Tahoma;fontSize=14" parent="1" vertex="1">
          <mxGeometry x="-1270" y="1500" width="190" height="80" as="geometry" />
        </mxCell>
        <mxCell id="LNnul-zF4QBHD_PPK8Y6-398" style="edgeStyle=orthogonalEdgeStyle;rounded=0;orthogonalLoop=1;jettySize=auto;html=1;entryX=0.5;entryY=0;entryDx=0;entryDy=0;" parent="1" source="LNnul-zF4QBHD_PPK8Y6-399" target="LNnul-zF4QBHD_PPK8Y6-389" edge="1">
          <mxGeometry relative="1" as="geometry" />
        </mxCell>
        <mxCell id="LNnul-zF4QBHD_PPK8Y6-399" value="Adaptive&#xa;Dynamic Programming" style="rounded=1;fillColor=#23445D;gradientColor=none;strokeColor=none;fontColor=#FFFFFF;fontStyle=1;fontFamily=Tahoma;fontSize=14" parent="1" vertex="1">
          <mxGeometry x="-491.0000000000001" y="1628" width="190" height="80" as="geometry" />
        </mxCell>
        <mxCell id="LNnul-zF4QBHD_PPK8Y6-400" style="edgeStyle=orthogonalEdgeStyle;rounded=0;orthogonalLoop=1;jettySize=auto;html=1;entryX=0.5;entryY=0;entryDx=0;entryDy=0;" parent="1" source="LNnul-zF4QBHD_PPK8Y6-402" target="LNnul-zF4QBHD_PPK8Y6-429" edge="1">
          <mxGeometry relative="1" as="geometry" />
        </mxCell>
        <mxCell id="LNnul-zF4QBHD_PPK8Y6-401" style="edgeStyle=orthogonalEdgeStyle;rounded=0;orthogonalLoop=1;jettySize=auto;html=1;" parent="1" source="LNnul-zF4QBHD_PPK8Y6-402" target="LNnul-zF4QBHD_PPK8Y6-407" edge="1">
          <mxGeometry relative="1" as="geometry" />
        </mxCell>
        <mxCell id="LNnul-zF4QBHD_PPK8Y6-402" value="Policy Based" style="rounded=1;fillColor=#23445D;gradientColor=none;strokeColor=none;fontColor=#FFFFFF;fontStyle=1;fontFamily=Tahoma;fontSize=14" parent="1" vertex="1">
          <mxGeometry x="-1500" y="1625.69" width="190" height="80" as="geometry" />
        </mxCell>
        <mxCell id="LNnul-zF4QBHD_PPK8Y6-403" style="edgeStyle=orthogonalEdgeStyle;rounded=0;orthogonalLoop=1;jettySize=auto;html=1;entryX=0.5;entryY=0;entryDx=0;entryDy=0;" parent="1" source="LNnul-zF4QBHD_PPK8Y6-405" target="LNnul-zF4QBHD_PPK8Y6-424" edge="1">
          <mxGeometry relative="1" as="geometry" />
        </mxCell>
        <mxCell id="LNnul-zF4QBHD_PPK8Y6-404" style="edgeStyle=orthogonalEdgeStyle;rounded=0;orthogonalLoop=1;jettySize=auto;html=1;" parent="1" source="LNnul-zF4QBHD_PPK8Y6-405" target="LNnul-zF4QBHD_PPK8Y6-407" edge="1">
          <mxGeometry relative="1" as="geometry" />
        </mxCell>
        <mxCell id="LNnul-zF4QBHD_PPK8Y6-405" value="Value Based" style="rounded=1;fillColor=#23445D;gradientColor=none;strokeColor=none;fontColor=#FFFFFF;fontStyle=1;fontFamily=Tahoma;fontSize=14" parent="1" vertex="1">
          <mxGeometry x="-1040" y="1625.69" width="190" height="80" as="geometry" />
        </mxCell>
        <mxCell id="LNnul-zF4QBHD_PPK8Y6-406" style="edgeStyle=orthogonalEdgeStyle;rounded=0;orthogonalLoop=1;jettySize=auto;html=1;entryX=0.5;entryY=0;entryDx=0;entryDy=0;" parent="1" source="LNnul-zF4QBHD_PPK8Y6-407" target="LNnul-zF4QBHD_PPK8Y6-386" edge="1">
          <mxGeometry relative="1" as="geometry" />
        </mxCell>
        <mxCell id="LNnul-zF4QBHD_PPK8Y6-407" value="Actor Critic" style="rounded=1;fillColor=#23445D;gradientColor=none;strokeColor=none;fontColor=#FFFFFF;fontStyle=1;fontFamily=Tahoma;fontSize=14" parent="1" vertex="1">
          <mxGeometry x="-1270" y="1625.69" width="190" height="80" as="geometry" />
        </mxCell>
        <mxCell id="LNnul-zF4QBHD_PPK8Y6-408" value="Policy-Iteration" style="rounded=1;fillColor=#23445D;gradientColor=none;strokeColor=none;fontColor=#FFFFFF;fontStyle=1;fontFamily=Tahoma;fontSize=14" parent="1" vertex="1">
          <mxGeometry x="-475" y="1763" width="158" height="60" as="geometry" />
        </mxCell>
        <mxCell id="LNnul-zF4QBHD_PPK8Y6-409" value="Value-Iteration" style="rounded=1;fillColor=#23445D;gradientColor=none;strokeColor=none;fontColor=#FFFFFF;fontStyle=1;fontFamily=Tahoma;fontSize=14" parent="1" vertex="1">
          <mxGeometry x="-477" y="1834" width="160" height="60" as="geometry" />
        </mxCell>
        <mxCell id="LNnul-zF4QBHD_PPK8Y6-410" value="HDP" style="rounded=1;fillColor=#23445D;gradientColor=none;strokeColor=none;fontColor=#FFFFFF;fontStyle=1;fontFamily=Tahoma;fontSize=14" parent="1" vertex="1">
          <mxGeometry x="-724" y="1763" width="160" height="60" as="geometry" />
        </mxCell>
        <mxCell id="LNnul-zF4QBHD_PPK8Y6-411" value="DHP" style="rounded=1;fillColor=#23445D;gradientColor=none;strokeColor=none;fontColor=#FFFFFF;fontStyle=1;fontFamily=Tahoma;fontSize=14" parent="1" vertex="1">
          <mxGeometry x="-724" y="1835" width="160" height="60" as="geometry" />
        </mxCell>
        <mxCell id="LNnul-zF4QBHD_PPK8Y6-412" value="GDHP" style="rounded=1;fillColor=#23445D;gradientColor=none;strokeColor=none;fontColor=#FFFFFF;fontStyle=1;fontFamily=Tahoma;fontSize=14" parent="1" vertex="1">
          <mxGeometry x="-724" y="1909" width="160" height="60" as="geometry" />
        </mxCell>
        <mxCell id="LNnul-zF4QBHD_PPK8Y6-413" value="TD3, TD4, TD7" style="rounded=1;fillColor=#23445D;gradientColor=none;strokeColor=none;fontColor=#FFFFFF;fontStyle=1;fontFamily=Tahoma;fontSize=14" parent="1" vertex="1">
          <mxGeometry x="-1252" y="1832" width="158" height="60" as="geometry" />
        </mxCell>
        <mxCell id="LNnul-zF4QBHD_PPK8Y6-415" style="edgeStyle=orthogonalEdgeStyle;rounded=0;orthogonalLoop=1;jettySize=auto;html=1;" parent="1" source="LNnul-zF4QBHD_PPK8Y6-416" target="LNnul-zF4QBHD_PPK8Y6-418" edge="1">
          <mxGeometry relative="1" as="geometry" />
        </mxCell>
        <mxCell id="LNnul-zF4QBHD_PPK8Y6-416" value="Incremental ACD" style="rounded=1;fillColor=#23445D;gradientColor=none;strokeColor=none;fontColor=#FFFFFF;fontStyle=1;fontFamily=Tahoma;fontSize=14" parent="1" vertex="1">
          <mxGeometry x="-740" y="2020" width="190" height="80" as="geometry" />
        </mxCell>
        <mxCell id="LNnul-zF4QBHD_PPK8Y6-418" value="Model Based &amp;&#xa;Model Free Hybrid" style="rounded=1;fillColor=#23445D;gradientColor=none;strokeColor=none;fontColor=#FFFFFF;fontStyle=1;fontFamily=Tahoma;fontSize=14" parent="1" vertex="1">
          <mxGeometry x="-1000" y="2020" width="190" height="80" as="geometry" />
        </mxCell>
        <mxCell id="LNnul-zF4QBHD_PPK8Y6-419" value="DDPG" style="rounded=1;fillColor=#23445D;gradientColor=none;strokeColor=none;fontColor=#FFFFFF;fontStyle=1;fontFamily=Tahoma;fontSize=14" parent="1" vertex="1">
          <mxGeometry x="-1254" y="1762" width="158" height="60" as="geometry" />
        </mxCell>
        <mxCell id="LNnul-zF4QBHD_PPK8Y6-420" value="SAC, DSAC" style="rounded=1;fillColor=#23445D;gradientColor=none;strokeColor=none;fontColor=#FFFFFF;fontStyle=1;fontFamily=Tahoma;fontSize=14" parent="1" vertex="1">
          <mxGeometry x="-1254" y="1902.5" width="158" height="60" as="geometry" />
        </mxCell>
        <mxCell id="LNnul-zF4QBHD_PPK8Y6-421" style="edgeStyle=orthogonalEdgeStyle;rounded=0;orthogonalLoop=1;jettySize=auto;html=1;entryX=0.5;entryY=0;entryDx=0;entryDy=0;" parent="1" source="LNnul-zF4QBHD_PPK8Y6-422" target="LNnul-zF4QBHD_PPK8Y6-388" edge="1">
          <mxGeometry relative="1" as="geometry" />
        </mxCell>
        <mxCell id="LNnul-zF4QBHD_PPK8Y6-422" value="Adaptive&#xa;Critic Designs" style="rounded=1;fillColor=#23445D;gradientColor=none;strokeColor=none;fontColor=#FFFFFF;fontStyle=1;fontFamily=Tahoma;fontSize=14" parent="1" vertex="1">
          <mxGeometry x="-740.0000000000001" y="1628" width="190" height="80" as="geometry" />
        </mxCell>
        <mxCell id="LNnul-zF4QBHD_PPK8Y6-423" value="" style="group" parent="1" vertex="1" connectable="0">
          <mxGeometry x="-1040" y="1750.07" width="190" height="229.99999999999994" as="geometry" />
        </mxCell>
        <mxCell id="LNnul-zF4QBHD_PPK8Y6-424" value="" style="fillColor=#F2931E;strokeColor=none;opacity=30;" parent="LNnul-zF4QBHD_PPK8Y6-423" vertex="1">
          <mxGeometry width="190" height="230" as="geometry" />
        </mxCell>
        <mxCell id="LNnul-zF4QBHD_PPK8Y6-425" value="Q-learning" style="rounded=1;fillColor=#23445D;gradientColor=none;strokeColor=none;fontColor=#FFFFFF;fontStyle=1;fontFamily=Tahoma;fontSize=14" parent="LNnul-zF4QBHD_PPK8Y6-423" vertex="1">
          <mxGeometry x="16" y="82.55000000000001" width="158" height="60" as="geometry" />
        </mxCell>
        <mxCell id="LNnul-zF4QBHD_PPK8Y6-426" value="SARSA" style="rounded=1;fillColor=#23445D;gradientColor=none;strokeColor=none;fontColor=#FFFFFF;fontStyle=1;fontFamily=Tahoma;fontSize=14" parent="LNnul-zF4QBHD_PPK8Y6-423" vertex="1">
          <mxGeometry x="16" y="11.550000000000011" width="158" height="60" as="geometry" />
        </mxCell>
        <mxCell id="LNnul-zF4QBHD_PPK8Y6-427" value="DQN" style="rounded=1;fillColor=#23445D;gradientColor=none;strokeColor=none;fontColor=#FFFFFF;fontStyle=1;fontFamily=Tahoma;fontSize=14" parent="LNnul-zF4QBHD_PPK8Y6-423" vertex="1">
          <mxGeometry x="16" y="153.18" width="158" height="60" as="geometry" />
        </mxCell>
        <mxCell id="LNnul-zF4QBHD_PPK8Y6-428" value="" style="group" parent="1" vertex="1" connectable="0">
          <mxGeometry x="-1500" y="1754.07" width="190" height="229.99999999999994" as="geometry" />
        </mxCell>
        <mxCell id="LNnul-zF4QBHD_PPK8Y6-429" value="" style="fillColor=#F2931E;strokeColor=none;opacity=30;" parent="LNnul-zF4QBHD_PPK8Y6-428" vertex="1">
          <mxGeometry width="190" height="230" as="geometry" />
        </mxCell>
        <mxCell id="LNnul-zF4QBHD_PPK8Y6-430" value="REINFORCE" style="rounded=1;fillColor=#23445D;gradientColor=none;strokeColor=none;fontColor=#FFFFFF;fontStyle=1;fontFamily=Tahoma;fontSize=14" parent="LNnul-zF4QBHD_PPK8Y6-428" vertex="1">
          <mxGeometry x="16" y="11.550000000000011" width="158" height="60" as="geometry" />
        </mxCell>
        <mxCell id="LNnul-zF4QBHD_PPK8Y6-431" value="TRPO" style="rounded=1;fillColor=#23445D;gradientColor=none;strokeColor=none;fontColor=#FFFFFF;fontStyle=1;fontFamily=Tahoma;fontSize=14" parent="LNnul-zF4QBHD_PPK8Y6-428" vertex="1">
          <mxGeometry x="16" y="82.55000000000001" width="158" height="60" as="geometry" />
        </mxCell>
        <mxCell id="LNnul-zF4QBHD_PPK8Y6-432" value="PPO" style="rounded=1;fillColor=#23445D;gradientColor=none;strokeColor=none;fontColor=#FFFFFF;fontStyle=1;fontFamily=Tahoma;fontSize=14" parent="LNnul-zF4QBHD_PPK8Y6-428" vertex="1">
          <mxGeometry x="16" y="152.18" width="158" height="60" as="geometry" />
        </mxCell>
        <mxCell id="ZLUQbkUtfyUOACpDtUYc-125" value="&lt;b&gt;&lt;font style=&quot;font-size: 20px;&quot; face=&quot;Times New Roman&quot;&gt;Policy Based&lt;/font&gt;&lt;/b&gt;" style="rounded=0;whiteSpace=wrap;html=1;verticalAlign=top;" parent="1" vertex="1">
          <mxGeometry x="1935" y="290" width="230" height="160" as="geometry" />
        </mxCell>
        <mxCell id="ZLUQbkUtfyUOACpDtUYc-126" value="REINFORCE" style="rounded=1;whiteSpace=wrap;html=1;fillColor=#F7F9FC;strokeColor=#6c8ebf;horizontal=1;verticalAlign=top;dashed=1;fontFamily=Courier New;fontStyle=0" parent="1" vertex="1">
          <mxGeometry x="1945" y="331" width="210" height="25" as="geometry" />
        </mxCell>
        <mxCell id="ZLUQbkUtfyUOACpDtUYc-127" value="TRPO" style="rounded=1;whiteSpace=wrap;html=1;fillColor=#F7F9FC;strokeColor=#6c8ebf;horizontal=1;verticalAlign=top;dashed=1;fontFamily=Courier New;fontStyle=0" parent="1" vertex="1">
          <mxGeometry x="1944" y="370" width="210" height="25" as="geometry" />
        </mxCell>
        <mxCell id="ZLUQbkUtfyUOACpDtUYc-128" value="PPO" style="rounded=1;whiteSpace=wrap;html=1;fillColor=#F7F9FC;strokeColor=#6c8ebf;horizontal=1;verticalAlign=top;dashed=1;fontFamily=Courier New;fontStyle=0" parent="1" vertex="1">
          <mxGeometry x="1944" y="410" width="210" height="25" as="geometry" />
        </mxCell>
        <mxCell id="ZLUQbkUtfyUOACpDtUYc-130" value="&lt;b&gt;&lt;font style=&quot;font-size: 20px;&quot; face=&quot;Times New Roman&quot;&gt;Value Based&lt;/font&gt;&lt;/b&gt;" style="rounded=0;whiteSpace=wrap;html=1;verticalAlign=top;" parent="1" vertex="1">
          <mxGeometry x="2445" y="290" width="230" height="200" as="geometry" />
        </mxCell>
        <mxCell id="ZLUQbkUtfyUOACpDtUYc-131" value="DQN" style="rounded=1;whiteSpace=wrap;html=1;fillColor=#F7F9FC;strokeColor=#6c8ebf;horizontal=1;verticalAlign=top;dashed=1;fontFamily=Courier New;fontStyle=0" parent="1" vertex="1">
          <mxGeometry x="2440" y="630" width="210" height="25" as="geometry" />
        </mxCell>
        <mxCell id="ZLUQbkUtfyUOACpDtUYc-132" value="..." style="rounded=1;whiteSpace=wrap;html=1;fillColor=#F7F9FC;strokeColor=#6c8ebf;horizontal=1;verticalAlign=top;dashed=1;fontFamily=Courier New;fontStyle=0" parent="1" vertex="1">
          <mxGeometry x="2439" y="665" width="210" height="25" as="geometry" />
        </mxCell>
        <mxCell id="ZLUQbkUtfyUOACpDtUYc-133" value="Rainbow DQN" style="rounded=1;whiteSpace=wrap;html=1;fillColor=#F7F9FC;strokeColor=#6c8ebf;horizontal=1;verticalAlign=top;dashed=1;fontFamily=Courier New;fontStyle=0" parent="1" vertex="1">
          <mxGeometry x="2439" y="705" width="210" height="25" as="geometry" />
        </mxCell>
        <mxCell id="ZLUQbkUtfyUOACpDtUYc-134" value="&lt;b&gt;&lt;font style=&quot;font-size: 20px;&quot; face=&quot;Times New Roman&quot;&gt;Actor Critic Methods&lt;/font&gt;&lt;/b&gt;" style="rounded=0;whiteSpace=wrap;html=1;verticalAlign=top;" parent="1" vertex="1">
          <mxGeometry x="2190" y="290" width="230" height="200" as="geometry" />
        </mxCell>
        <mxCell id="ZLUQbkUtfyUOACpDtUYc-135" value="DDPG" style="rounded=1;whiteSpace=wrap;html=1;fillColor=#F7F9FC;strokeColor=#6c8ebf;horizontal=1;verticalAlign=top;dashed=1;fontFamily=Courier New;fontStyle=0" parent="1" vertex="1">
          <mxGeometry x="2190.5" y="630" width="210" height="25" as="geometry" />
        </mxCell>
        <mxCell id="ZLUQbkUtfyUOACpDtUYc-136" value="SAC" style="rounded=1;whiteSpace=wrap;html=1;fillColor=#F7F9FC;strokeColor=#6c8ebf;horizontal=1;verticalAlign=top;dashed=1;fontFamily=Courier New;fontStyle=0" parent="1" vertex="1">
          <mxGeometry x="2190" y="659" width="210" height="25" as="geometry" />
        </mxCell>
        <mxCell id="ZLUQbkUtfyUOACpDtUYc-137" value="TD3" style="rounded=1;whiteSpace=wrap;html=1;fillColor=#F7F9FC;strokeColor=#6c8ebf;horizontal=1;verticalAlign=top;dashed=1;fontFamily=Courier New;fontStyle=0" parent="1" vertex="1">
          <mxGeometry x="2190" y="690" width="210" height="25" as="geometry" />
        </mxCell>
        <mxCell id="ZLUQbkUtfyUOACpDtUYc-138" value="..." style="rounded=1;whiteSpace=wrap;html=1;fillColor=#F7F9FC;strokeColor=#6c8ebf;horizontal=1;verticalAlign=top;dashed=1;fontFamily=Courier New;fontStyle=0" parent="1" vertex="1">
          <mxGeometry x="2190" y="720" width="210" height="25" as="geometry" />
        </mxCell>
        <mxCell id="ZLUQbkUtfyUOACpDtUYc-140" style="edgeStyle=orthogonalEdgeStyle;rounded=0;orthogonalLoop=1;jettySize=auto;html=1;" parent="1" source="ZLUQbkUtfyUOACpDtUYc-216" target="ZLUQbkUtfyUOACpDtUYc-189" edge="1">
          <mxGeometry relative="1" as="geometry">
            <mxPoint x="2845.0294117647054" y="470.9899999999998" as="sourcePoint" />
          </mxGeometry>
        </mxCell>
        <mxCell id="ZLUQbkUtfyUOACpDtUYc-141" style="edgeStyle=orthogonalEdgeStyle;rounded=0;orthogonalLoop=1;jettySize=auto;html=1;" parent="1" source="ZLUQbkUtfyUOACpDtUYc-216" target="ZLUQbkUtfyUOACpDtUYc-176" edge="1">
          <mxGeometry relative="1" as="geometry">
            <mxPoint x="2845.0294117647054" y="470.9899999999998" as="sourcePoint" />
            <Array as="points">
              <mxPoint x="2845" y="500" />
              <mxPoint x="3125" y="500" />
            </Array>
          </mxGeometry>
        </mxCell>
        <mxCell id="ZLUQbkUtfyUOACpDtUYc-176" value="&lt;b&gt;&lt;font style=&quot;font-size: 20px;&quot; face=&quot;Times New Roman&quot;&gt;Action Dependent-ACD&lt;/font&gt;&lt;/b&gt;" style="rounded=0;whiteSpace=wrap;html=1;verticalAlign=top;" parent="1" vertex="1">
          <mxGeometry x="3010" y="551" width="230" height="40" as="geometry" />
        </mxCell>
        <mxCell id="ZLUQbkUtfyUOACpDtUYc-189" value="&lt;b&gt;&lt;font style=&quot;font-size: 20px;&quot; face=&quot;Times New Roman&quot;&gt;Incremental-ACD&lt;/font&gt;&lt;/b&gt;" style="rounded=0;whiteSpace=wrap;html=1;verticalAlign=top;" parent="1" vertex="1">
          <mxGeometry x="2730" y="551" width="230" height="40" as="geometry" />
        </mxCell>
        <mxCell id="ZLUQbkUtfyUOACpDtUYc-216" value="&lt;b&gt;&lt;font style=&quot;font-size: 20px;&quot; face=&quot;Times New Roman&quot;&gt;ACD&lt;/font&gt;&lt;/b&gt;" style="rounded=0;whiteSpace=wrap;html=1;verticalAlign=top;" parent="1" vertex="1">
          <mxGeometry x="2730" y="291" width="230" height="165" as="geometry" />
        </mxCell>
        <mxCell id="ZLUQbkUtfyUOACpDtUYc-217" value="HDP&lt;span style=&quot;white-space: pre;&quot;&gt;&#x9;&lt;/span&gt;" style="rounded=1;whiteSpace=wrap;html=1;fillColor=#F7F9FC;strokeColor=#6c8ebf;horizontal=1;verticalAlign=top;dashed=1;fontFamily=Courier New;fontStyle=0" parent="1" vertex="1">
          <mxGeometry x="2740" y="331" width="210" height="25" as="geometry" />
        </mxCell>
        <mxCell id="ZLUQbkUtfyUOACpDtUYc-218" value="DHP" style="rounded=1;whiteSpace=wrap;html=1;fillColor=#F7F9FC;strokeColor=#6c8ebf;horizontal=1;verticalAlign=top;dashed=1;fontFamily=Courier New;fontStyle=0" parent="1" vertex="1">
          <mxGeometry x="2739" y="366" width="210" height="25" as="geometry" />
        </mxCell>
        <mxCell id="ZLUQbkUtfyUOACpDtUYc-219" value="GDHP" style="rounded=1;whiteSpace=wrap;html=1;fillColor=#F7F9FC;strokeColor=#6c8ebf;horizontal=1;verticalAlign=top;dashed=1;fontFamily=Courier New;fontStyle=0" parent="1" vertex="1">
          <mxGeometry x="2739" y="406" width="210" height="25" as="geometry" />
        </mxCell>
        <mxCell id="ZLUQbkUtfyUOACpDtUYc-224" value="&lt;b&gt;&lt;font style=&quot;font-size: 20px;&quot; face=&quot;Times New Roman&quot;&gt;ADP&lt;/font&gt;&lt;/b&gt;" style="rounded=0;whiteSpace=wrap;html=1;verticalAlign=top;" parent="1" vertex="1">
          <mxGeometry x="3070" y="291" width="230" height="120" as="geometry" />
        </mxCell>
        <mxCell id="ZLUQbkUtfyUOACpDtUYc-225" value="VI" style="rounded=1;whiteSpace=wrap;html=1;fillColor=#F7F9FC;strokeColor=#6c8ebf;horizontal=1;verticalAlign=top;dashed=1;fontFamily=Courier New;fontStyle=0" parent="1" vertex="1">
          <mxGeometry x="3080" y="331" width="210" height="25" as="geometry" />
        </mxCell>
        <mxCell id="ZLUQbkUtfyUOACpDtUYc-226" value="PI" style="rounded=1;whiteSpace=wrap;html=1;fillColor=#F7F9FC;strokeColor=#6c8ebf;horizontal=1;verticalAlign=top;dashed=1;fontFamily=Courier New;fontStyle=0" parent="1" vertex="1">
          <mxGeometry x="3079" y="366" width="210" height="25" as="geometry" />
        </mxCell>
        <mxCell id="ZLUQbkUtfyUOACpDtUYc-235" style="edgeStyle=orthogonalEdgeStyle;rounded=0;orthogonalLoop=1;jettySize=auto;html=1;" parent="1" source="ZLUQbkUtfyUOACpDtUYc-229" target="ZLUQbkUtfyUOACpDtUYc-125" edge="1">
          <mxGeometry relative="1" as="geometry">
            <Array as="points">
              <mxPoint x="2305" y="250" />
              <mxPoint x="2050" y="250" />
            </Array>
          </mxGeometry>
        </mxCell>
        <mxCell id="ZLUQbkUtfyUOACpDtUYc-236" style="edgeStyle=orthogonalEdgeStyle;rounded=0;orthogonalLoop=1;jettySize=auto;html=1;" parent="1" source="ZLUQbkUtfyUOACpDtUYc-229" target="ZLUQbkUtfyUOACpDtUYc-130" edge="1">
          <mxGeometry relative="1" as="geometry">
            <Array as="points">
              <mxPoint x="2305" y="250" />
              <mxPoint x="2560" y="250" />
            </Array>
          </mxGeometry>
        </mxCell>
        <mxCell id="SWZNe6TTEUUtdwUn30GW-208" style="edgeStyle=orthogonalEdgeStyle;rounded=0;orthogonalLoop=1;jettySize=auto;html=1;" parent="1" source="ZLUQbkUtfyUOACpDtUYc-229" target="ZLUQbkUtfyUOACpDtUYc-134" edge="1">
          <mxGeometry relative="1" as="geometry" />
        </mxCell>
        <mxCell id="ZLUQbkUtfyUOACpDtUYc-229" value="&lt;b&gt;&lt;font style=&quot;font-size: 20px;&quot; face=&quot;Times New Roman&quot;&gt;Model Free&lt;/font&gt;&lt;/b&gt;" style="rounded=0;whiteSpace=wrap;html=1;verticalAlign=middle;" parent="1" vertex="1">
          <mxGeometry x="2190" y="181" width="230" height="45" as="geometry" />
        </mxCell>
        <mxCell id="ZLUQbkUtfyUOACpDtUYc-237" style="edgeStyle=orthogonalEdgeStyle;rounded=0;orthogonalLoop=1;jettySize=auto;html=1;" parent="1" source="ZLUQbkUtfyUOACpDtUYc-231" target="ZLUQbkUtfyUOACpDtUYc-216" edge="1">
          <mxGeometry relative="1" as="geometry" />
        </mxCell>
        <mxCell id="ZLUQbkUtfyUOACpDtUYc-239" style="edgeStyle=orthogonalEdgeStyle;rounded=0;orthogonalLoop=1;jettySize=auto;html=1;" parent="1" source="ZLUQbkUtfyUOACpDtUYc-231" target="ZLUQbkUtfyUOACpDtUYc-224" edge="1">
          <mxGeometry relative="1" as="geometry" />
        </mxCell>
        <mxCell id="ZLUQbkUtfyUOACpDtUYc-231" value="&lt;b&gt;&lt;font style=&quot;font-size: 20px;&quot; face=&quot;Times New Roman&quot;&gt;Model Based&lt;/font&gt;&lt;/b&gt;" style="rounded=0;whiteSpace=wrap;html=1;verticalAlign=middle;" parent="1" vertex="1">
          <mxGeometry x="2900" y="181" width="230" height="45" as="geometry" />
        </mxCell>
        <mxCell id="ZLUQbkUtfyUOACpDtUYc-233" style="edgeStyle=orthogonalEdgeStyle;rounded=0;orthogonalLoop=1;jettySize=auto;html=1;" parent="1" source="ZLUQbkUtfyUOACpDtUYc-232" target="ZLUQbkUtfyUOACpDtUYc-229" edge="1">
          <mxGeometry relative="1" as="geometry">
            <Array as="points">
              <mxPoint x="2655" y="131" />
              <mxPoint x="2305" y="131" />
            </Array>
          </mxGeometry>
        </mxCell>
        <mxCell id="ZLUQbkUtfyUOACpDtUYc-234" style="edgeStyle=orthogonalEdgeStyle;rounded=0;orthogonalLoop=1;jettySize=auto;html=1;" parent="1" source="ZLUQbkUtfyUOACpDtUYc-232" target="ZLUQbkUtfyUOACpDtUYc-231" edge="1">
          <mxGeometry relative="1" as="geometry">
            <Array as="points">
              <mxPoint x="2655" y="131" />
              <mxPoint x="3015" y="131" />
            </Array>
          </mxGeometry>
        </mxCell>
        <mxCell id="ZLUQbkUtfyUOACpDtUYc-232" value="&lt;b&gt;&lt;font style=&quot;font-size: 20px;&quot; face=&quot;Times New Roman&quot;&gt;Reinforcement Learning&lt;/font&gt;&lt;/b&gt;" style="rounded=0;whiteSpace=wrap;html=1;verticalAlign=middle;" parent="1" vertex="1">
          <mxGeometry x="2540" y="40" width="230" height="45" as="geometry" />
        </mxCell>
        <mxCell id="E2niR6juJKjIhaCyk29k-123" style="edgeStyle=orthogonalEdgeStyle;rounded=0;orthogonalLoop=1;jettySize=auto;html=1;" parent="1" source="E2niR6juJKjIhaCyk29k-124" target="E2niR6juJKjIhaCyk29k-125" edge="1">
          <mxGeometry relative="1" as="geometry" />
        </mxCell>
        <mxCell id="E2niR6juJKjIhaCyk29k-124" value="Action Depended&#xa;ACD" style="rounded=1;fillColor=#23445D;gradientColor=none;strokeColor=none;fontColor=#FFFFFF;fontStyle=1;fontFamily=Tahoma;fontSize=14" parent="1" vertex="1">
          <mxGeometry x="-492" y="740" width="190" height="80" as="geometry" />
        </mxCell>
        <mxCell id="E2niR6juJKjIhaCyk29k-125" value="" style="fillColor=#F2931E;strokeColor=none;opacity=30;" parent="1" vertex="1">
          <mxGeometry x="-492" y="850" width="190" height="230" as="geometry" />
        </mxCell>
        <mxCell id="E2niR6juJKjIhaCyk29k-126" value="ADHDP" style="rounded=1;fillColor=#23445D;gradientColor=none;strokeColor=none;fontColor=#FFFFFF;fontStyle=1;fontFamily=Tahoma;fontSize=14" parent="1" vertex="1">
          <mxGeometry x="-476" y="863" width="160" height="60" as="geometry" />
        </mxCell>
        <mxCell id="E2niR6juJKjIhaCyk29k-127" value="ADDHP" style="rounded=1;fillColor=#23445D;gradientColor=none;strokeColor=none;fontColor=#FFFFFF;fontStyle=1;fontFamily=Tahoma;fontSize=14" parent="1" vertex="1">
          <mxGeometry x="-476" y="935" width="160" height="60" as="geometry" />
        </mxCell>
        <mxCell id="E2niR6juJKjIhaCyk29k-128" value="ADGDHP" style="rounded=1;fillColor=#23445D;gradientColor=none;strokeColor=none;fontColor=#FFFFFF;fontStyle=1;fontFamily=Tahoma;fontSize=14" parent="1" vertex="1">
          <mxGeometry x="-476" y="1009" width="160" height="60" as="geometry" />
        </mxCell>
        <mxCell id="SWZNe6TTEUUtdwUn30GW-123" value="" style="fillColor=#D9EAD3;strokeColor=none;gradientColor=none;opacity=80;" parent="1" vertex="1">
          <mxGeometry x="2689" y="-712.75" width="471" height="642.75" as="geometry" />
        </mxCell>
        <mxCell id="SWZNe6TTEUUtdwUn30GW-124" value="" style="fillColor=#D9EAD3;strokeColor=none;gradientColor=none;opacity=80;" parent="1" vertex="1">
          <mxGeometry x="1920" y="-712.75" width="690" height="262.75" as="geometry" />
        </mxCell>
        <mxCell id="SWZNe6TTEUUtdwUn30GW-125" value="" style="fillColor=#10739E;strokeColor=none;opacity=30;" parent="1" vertex="1">
          <mxGeometry x="2690" y="-833.31" width="460" height="100" as="geometry" />
        </mxCell>
        <mxCell id="SWZNe6TTEUUtdwUn30GW-126" value="" style="fillColor=#10739E;strokeColor=none;opacity=30;" parent="1" vertex="1">
          <mxGeometry x="1920" y="-834.31" width="690" height="100" as="geometry" />
        </mxCell>
        <mxCell id="SWZNe6TTEUUtdwUn30GW-127" style="edgeStyle=orthogonalEdgeStyle;rounded=0;orthogonalLoop=1;jettySize=auto;html=1;entryX=0;entryY=0.5;entryDx=0;entryDy=0;" parent="1" source="SWZNe6TTEUUtdwUn30GW-128" target="SWZNe6TTEUUtdwUn30GW-161" edge="1">
          <mxGeometry relative="1" as="geometry">
            <Array as="points">
              <mxPoint x="2265" y="-390" />
            </Array>
          </mxGeometry>
        </mxCell>
        <mxCell id="SWZNe6TTEUUtdwUn30GW-128" value="" style="fillColor=#F2931E;strokeColor=none;opacity=30;" parent="1" vertex="1">
          <mxGeometry x="2170" y="-698.38" width="190" height="230" as="geometry" />
        </mxCell>
        <mxCell id="SWZNe6TTEUUtdwUn30GW-129" style="edgeStyle=orthogonalEdgeStyle;rounded=0;orthogonalLoop=1;jettySize=auto;html=1;" parent="1" source="SWZNe6TTEUUtdwUn30GW-131" target="SWZNe6TTEUUtdwUn30GW-159" edge="1">
          <mxGeometry relative="1" as="geometry" />
        </mxCell>
        <mxCell id="SWZNe6TTEUUtdwUn30GW-130" style="edgeStyle=orthogonalEdgeStyle;rounded=0;orthogonalLoop=1;jettySize=auto;html=1;" parent="1" source="SWZNe6TTEUUtdwUn30GW-131" target="SWZNe6TTEUUtdwUn30GW-184" edge="1">
          <mxGeometry relative="1" as="geometry">
            <Array as="points">
              <mxPoint x="2795" y="-460" />
              <mxPoint x="3043" y="-460" />
            </Array>
          </mxGeometry>
        </mxCell>
        <mxCell id="SWZNe6TTEUUtdwUn30GW-131" value="" style="fillColor=#F2931E;strokeColor=none;opacity=30;" parent="1" vertex="1">
          <mxGeometry x="2700" y="-700" width="190" height="230" as="geometry" />
        </mxCell>
        <mxCell id="SWZNe6TTEUUtdwUn30GW-132" value="" style="fillColor=#F2931E;strokeColor=none;opacity=30;" parent="1" vertex="1">
          <mxGeometry x="2949" y="-701" width="190" height="160" as="geometry" />
        </mxCell>
        <mxCell id="SWZNe6TTEUUtdwUn30GW-133" value="" style="fillColor=#AE4132;strokeColor=none;opacity=30;" parent="1" vertex="1">
          <mxGeometry x="2489" y="-1100" width="210" height="99.99999999999994" as="geometry" />
        </mxCell>
        <mxCell id="SWZNe6TTEUUtdwUn30GW-134" value="" style="fillColor=#10739E;strokeColor=none;opacity=30;" parent="1" vertex="1">
          <mxGeometry x="2154" y="-960" width="880" height="100" as="geometry" />
        </mxCell>
        <mxCell id="SWZNe6TTEUUtdwUn30GW-135" style="edgeStyle=orthogonalEdgeStyle;rounded=0;orthogonalLoop=1;jettySize=auto;html=1;" parent="1" source="SWZNe6TTEUUtdwUn30GW-136" target="SWZNe6TTEUUtdwUn30GW-134" edge="1">
          <mxGeometry relative="1" as="geometry" />
        </mxCell>
        <mxCell id="SWZNe6TTEUUtdwUn30GW-136" value="Reinforcement Learning" style="rounded=1;fillColor=#23445D;gradientColor=none;strokeColor=none;fontColor=#FFFFFF;fontStyle=1;fontFamily=Tahoma;fontSize=14" parent="1" vertex="1">
          <mxGeometry x="2499" y="-1090" width="190" height="80" as="geometry" />
        </mxCell>
        <mxCell id="SWZNe6TTEUUtdwUn30GW-137" style="edgeStyle=orthogonalEdgeStyle;rounded=0;orthogonalLoop=1;jettySize=auto;html=1;" parent="1" source="SWZNe6TTEUUtdwUn30GW-138" target="SWZNe6TTEUUtdwUn30GW-125" edge="1">
          <mxGeometry relative="1" as="geometry" />
        </mxCell>
        <mxCell id="SWZNe6TTEUUtdwUn30GW-138" value="Model Based/&#xa;Dynamic Prgramming Based" style="rounded=1;fillColor=#23445D;gradientColor=none;strokeColor=none;fontColor=#FFFFFF;fontStyle=1;fontFamily=Tahoma;fontSize=14" parent="1" vertex="1">
          <mxGeometry x="2810" y="-950" width="220" height="80" as="geometry" />
        </mxCell>
        <mxCell id="SWZNe6TTEUUtdwUn30GW-139" style="edgeStyle=orthogonalEdgeStyle;rounded=0;orthogonalLoop=1;jettySize=auto;html=1;entryX=0.5;entryY=0;entryDx=0;entryDy=0;" parent="1" source="SWZNe6TTEUUtdwUn30GW-140" target="SWZNe6TTEUUtdwUn30GW-126" edge="1">
          <mxGeometry relative="1" as="geometry" />
        </mxCell>
        <mxCell id="SWZNe6TTEUUtdwUn30GW-140" value="Model Free/&#xa;Sample Based" style="rounded=1;fillColor=#23445D;gradientColor=none;strokeColor=none;fontColor=#FFFFFF;fontStyle=1;fontFamily=Tahoma;fontSize=14" parent="1" vertex="1">
          <mxGeometry x="2170" y="-950" width="190" height="80" as="geometry" />
        </mxCell>
        <mxCell id="SWZNe6TTEUUtdwUn30GW-141" style="edgeStyle=orthogonalEdgeStyle;rounded=0;orthogonalLoop=1;jettySize=auto;html=1;entryX=0.5;entryY=0;entryDx=0;entryDy=0;" parent="1" source="SWZNe6TTEUUtdwUn30GW-142" target="SWZNe6TTEUUtdwUn30GW-132" edge="1">
          <mxGeometry relative="1" as="geometry" />
        </mxCell>
        <mxCell id="SWZNe6TTEUUtdwUn30GW-142" value="Adaptive&#xa;Dynamic Programming" style="rounded=1;fillColor=#23445D;gradientColor=none;strokeColor=none;fontColor=#FFFFFF;fontStyle=1;fontFamily=Tahoma;fontSize=14" parent="1" vertex="1">
          <mxGeometry x="2949" y="-822" width="190" height="80" as="geometry" />
        </mxCell>
        <mxCell id="SWZNe6TTEUUtdwUn30GW-143" style="edgeStyle=orthogonalEdgeStyle;rounded=0;orthogonalLoop=1;jettySize=auto;html=1;entryX=0.5;entryY=0;entryDx=0;entryDy=0;" parent="1" source="SWZNe6TTEUUtdwUn30GW-145" target="SWZNe6TTEUUtdwUn30GW-172" edge="1">
          <mxGeometry relative="1" as="geometry" />
        </mxCell>
        <mxCell id="SWZNe6TTEUUtdwUn30GW-144" style="edgeStyle=orthogonalEdgeStyle;rounded=0;orthogonalLoop=1;jettySize=auto;html=1;" parent="1" source="SWZNe6TTEUUtdwUn30GW-145" target="SWZNe6TTEUUtdwUn30GW-150" edge="1">
          <mxGeometry relative="1" as="geometry" />
        </mxCell>
        <mxCell id="SWZNe6TTEUUtdwUn30GW-145" value="Policy Based" style="rounded=1;fillColor=#23445D;gradientColor=none;strokeColor=none;fontColor=#FFFFFF;fontStyle=1;fontFamily=Tahoma;fontSize=14" parent="1" vertex="1">
          <mxGeometry x="1940" y="-824.31" width="190" height="80" as="geometry" />
        </mxCell>
        <mxCell id="SWZNe6TTEUUtdwUn30GW-146" style="edgeStyle=orthogonalEdgeStyle;rounded=0;orthogonalLoop=1;jettySize=auto;html=1;entryX=0.5;entryY=0;entryDx=0;entryDy=0;" parent="1" source="SWZNe6TTEUUtdwUn30GW-148" target="SWZNe6TTEUUtdwUn30GW-167" edge="1">
          <mxGeometry relative="1" as="geometry" />
        </mxCell>
        <mxCell id="SWZNe6TTEUUtdwUn30GW-148" value="Value Based" style="rounded=1;fillColor=#23445D;gradientColor=none;strokeColor=none;fontColor=#FFFFFF;fontStyle=1;fontFamily=Tahoma;fontSize=14" parent="1" vertex="1">
          <mxGeometry x="2400" y="-824.31" width="190" height="80" as="geometry" />
        </mxCell>
        <mxCell id="SWZNe6TTEUUtdwUn30GW-149" style="edgeStyle=orthogonalEdgeStyle;rounded=0;orthogonalLoop=1;jettySize=auto;html=1;entryX=0.5;entryY=0;entryDx=0;entryDy=0;" parent="1" source="SWZNe6TTEUUtdwUn30GW-150" target="SWZNe6TTEUUtdwUn30GW-128" edge="1">
          <mxGeometry relative="1" as="geometry" />
        </mxCell>
        <mxCell id="SWZNe6TTEUUtdwUn30GW-150" value="Actor Critic" style="rounded=1;fillColor=#23445D;gradientColor=none;strokeColor=none;fontColor=#FFFFFF;fontStyle=1;fontFamily=Tahoma;fontSize=14" parent="1" vertex="1">
          <mxGeometry x="2170" y="-824.31" width="190" height="80" as="geometry" />
        </mxCell>
        <mxCell id="SWZNe6TTEUUtdwUn30GW-151" value="Policy-Iteration" style="rounded=1;fillColor=#23445D;gradientColor=none;strokeColor=none;fontColor=#FFFFFF;fontStyle=1;fontFamily=Tahoma;fontSize=14" parent="1" vertex="1">
          <mxGeometry x="2965" y="-687" width="158" height="60" as="geometry" />
        </mxCell>
        <mxCell id="SWZNe6TTEUUtdwUn30GW-152" value="Value-Iteration" style="rounded=1;fillColor=#23445D;gradientColor=none;strokeColor=none;fontColor=#FFFFFF;fontStyle=1;fontFamily=Tahoma;fontSize=14" parent="1" vertex="1">
          <mxGeometry x="2963" y="-616" width="160" height="60" as="geometry" />
        </mxCell>
        <mxCell id="SWZNe6TTEUUtdwUn30GW-153" value="HDP" style="rounded=1;fillColor=#23445D;gradientColor=none;strokeColor=none;fontColor=#FFFFFF;fontStyle=1;fontFamily=Tahoma;fontSize=14" parent="1" vertex="1">
          <mxGeometry x="2716" y="-687" width="160" height="60" as="geometry" />
        </mxCell>
        <mxCell id="SWZNe6TTEUUtdwUn30GW-154" value="DHP" style="rounded=1;fillColor=#23445D;gradientColor=none;strokeColor=none;fontColor=#FFFFFF;fontStyle=1;fontFamily=Tahoma;fontSize=14" parent="1" vertex="1">
          <mxGeometry x="2716" y="-615" width="160" height="60" as="geometry" />
        </mxCell>
        <mxCell id="SWZNe6TTEUUtdwUn30GW-155" value="GDHP" style="rounded=1;fillColor=#23445D;gradientColor=none;strokeColor=none;fontColor=#FFFFFF;fontStyle=1;fontFamily=Tahoma;fontSize=14" parent="1" vertex="1">
          <mxGeometry x="2716" y="-541" width="160" height="60" as="geometry" />
        </mxCell>
        <mxCell id="SWZNe6TTEUUtdwUn30GW-156" value="TD3, TD4, TD7" style="rounded=1;fillColor=#23445D;gradientColor=none;strokeColor=none;fontColor=#FFFFFF;fontStyle=1;fontFamily=Tahoma;fontSize=14" parent="1" vertex="1">
          <mxGeometry x="2188" y="-618" width="158" height="60" as="geometry" />
        </mxCell>
        <mxCell id="SWZNe6TTEUUtdwUn30GW-157" style="edgeStyle=orthogonalEdgeStyle;rounded=0;orthogonalLoop=1;jettySize=auto;html=1;" parent="1" source="SWZNe6TTEUUtdwUn30GW-159" target="SWZNe6TTEUUtdwUn30GW-176" edge="1">
          <mxGeometry relative="1" as="geometry" />
        </mxCell>
        <mxCell id="SWZNe6TTEUUtdwUn30GW-158" style="edgeStyle=orthogonalEdgeStyle;rounded=0;orthogonalLoop=1;jettySize=auto;html=1;" parent="1" source="SWZNe6TTEUUtdwUn30GW-159" target="SWZNe6TTEUUtdwUn30GW-161" edge="1">
          <mxGeometry relative="1" as="geometry" />
        </mxCell>
        <mxCell id="SWZNe6TTEUUtdwUn30GW-159" value="Incremental ACD" style="rounded=1;fillColor=#23445D;gradientColor=none;strokeColor=none;fontColor=#FFFFFF;fontStyle=1;fontFamily=Tahoma;fontSize=14" parent="1" vertex="1">
          <mxGeometry x="2700" y="-430" width="190" height="80" as="geometry" />
        </mxCell>
        <mxCell id="SWZNe6TTEUUtdwUn30GW-160" style="edgeStyle=orthogonalEdgeStyle;rounded=0;orthogonalLoop=1;jettySize=auto;html=1;entryX=0.5;entryY=0;entryDx=0;entryDy=0;" parent="1" source="SWZNe6TTEUUtdwUn30GW-161" target="SWZNe6TTEUUtdwUn30GW-180" edge="1">
          <mxGeometry relative="1" as="geometry" />
        </mxCell>
        <mxCell id="SWZNe6TTEUUtdwUn30GW-161" value="Model Based &amp;&#xa;Model Free Hybrid" style="rounded=1;fillColor=#23445D;gradientColor=none;strokeColor=none;fontColor=#FFFFFF;fontStyle=1;fontFamily=Tahoma;fontSize=14" parent="1" vertex="1">
          <mxGeometry x="2440" y="-430" width="190" height="80" as="geometry" />
        </mxCell>
        <mxCell id="SWZNe6TTEUUtdwUn30GW-162" value="DDPG" style="rounded=1;fillColor=#23445D;gradientColor=none;strokeColor=none;fontColor=#FFFFFF;fontStyle=1;fontFamily=Tahoma;fontSize=14" parent="1" vertex="1">
          <mxGeometry x="2186" y="-688" width="158" height="60" as="geometry" />
        </mxCell>
        <mxCell id="SWZNe6TTEUUtdwUn30GW-163" value="SAC, DSAC" style="rounded=1;fillColor=#23445D;gradientColor=none;strokeColor=none;fontColor=#FFFFFF;fontStyle=1;fontFamily=Tahoma;fontSize=14" parent="1" vertex="1">
          <mxGeometry x="2186" y="-547.5" width="158" height="60" as="geometry" />
        </mxCell>
        <mxCell id="SWZNe6TTEUUtdwUn30GW-164" style="edgeStyle=orthogonalEdgeStyle;rounded=0;orthogonalLoop=1;jettySize=auto;html=1;entryX=0.5;entryY=0;entryDx=0;entryDy=0;" parent="1" source="SWZNe6TTEUUtdwUn30GW-165" target="SWZNe6TTEUUtdwUn30GW-131" edge="1">
          <mxGeometry relative="1" as="geometry" />
        </mxCell>
        <mxCell id="SWZNe6TTEUUtdwUn30GW-165" value="Adaptive&#xa;Critic Designs" style="rounded=1;fillColor=#23445D;gradientColor=none;strokeColor=none;fontColor=#FFFFFF;fontStyle=1;fontFamily=Tahoma;fontSize=14" parent="1" vertex="1">
          <mxGeometry x="2700" y="-822" width="190" height="80" as="geometry" />
        </mxCell>
        <mxCell id="SWZNe6TTEUUtdwUn30GW-166" value="" style="group" parent="1" vertex="1" connectable="0">
          <mxGeometry x="2400" y="-699.9300000000001" width="190" height="229.99999999999994" as="geometry" />
        </mxCell>
        <mxCell id="SWZNe6TTEUUtdwUn30GW-167" value="" style="fillColor=#F2931E;strokeColor=none;opacity=30;" parent="SWZNe6TTEUUtdwUn30GW-166" vertex="1">
          <mxGeometry width="190" height="230" as="geometry" />
        </mxCell>
        <mxCell id="SWZNe6TTEUUtdwUn30GW-168" value="..." style="rounded=1;fillColor=#23445D;gradientColor=none;strokeColor=none;fontColor=#FFFFFF;fontStyle=1;fontFamily=Tahoma;fontSize=14" parent="SWZNe6TTEUUtdwUn30GW-166" vertex="1">
          <mxGeometry x="16" y="82.55000000000001" width="158" height="60" as="geometry" />
        </mxCell>
        <mxCell id="SWZNe6TTEUUtdwUn30GW-169" value="DQN" style="rounded=1;fillColor=#23445D;gradientColor=none;strokeColor=none;fontColor=#FFFFFF;fontStyle=1;fontFamily=Tahoma;fontSize=14" parent="SWZNe6TTEUUtdwUn30GW-166" vertex="1">
          <mxGeometry x="16" y="11.550000000000011" width="158" height="60" as="geometry" />
        </mxCell>
        <mxCell id="SWZNe6TTEUUtdwUn30GW-170" value="Rainbow DQN" style="rounded=1;fillColor=#23445D;gradientColor=none;strokeColor=none;fontColor=#FFFFFF;fontStyle=1;fontFamily=Tahoma;fontSize=14" parent="SWZNe6TTEUUtdwUn30GW-166" vertex="1">
          <mxGeometry x="16" y="153.18" width="158" height="60" as="geometry" />
        </mxCell>
        <mxCell id="SWZNe6TTEUUtdwUn30GW-171" value="" style="group" parent="1" vertex="1" connectable="0">
          <mxGeometry x="1940" y="-695.9300000000001" width="190" height="229.99999999999994" as="geometry" />
        </mxCell>
        <mxCell id="SWZNe6TTEUUtdwUn30GW-172" value="" style="fillColor=#F2931E;strokeColor=none;opacity=30;" parent="SWZNe6TTEUUtdwUn30GW-171" vertex="1">
          <mxGeometry width="190" height="230" as="geometry" />
        </mxCell>
        <mxCell id="SWZNe6TTEUUtdwUn30GW-173" value="REINFORCE" style="rounded=1;fillColor=#23445D;gradientColor=none;strokeColor=none;fontColor=#FFFFFF;fontStyle=1;fontFamily=Tahoma;fontSize=14" parent="SWZNe6TTEUUtdwUn30GW-171" vertex="1">
          <mxGeometry x="16" y="11.550000000000011" width="158" height="60" as="geometry" />
        </mxCell>
        <mxCell id="SWZNe6TTEUUtdwUn30GW-174" value="TRPO" style="rounded=1;fillColor=#23445D;gradientColor=none;strokeColor=none;fontColor=#FFFFFF;fontStyle=1;fontFamily=Tahoma;fontSize=14" parent="SWZNe6TTEUUtdwUn30GW-171" vertex="1">
          <mxGeometry x="16" y="82.55000000000001" width="158" height="60" as="geometry" />
        </mxCell>
        <mxCell id="SWZNe6TTEUUtdwUn30GW-175" value="PPO" style="rounded=1;fillColor=#23445D;gradientColor=none;strokeColor=none;fontColor=#FFFFFF;fontStyle=1;fontFamily=Tahoma;fontSize=14" parent="SWZNe6TTEUUtdwUn30GW-171" vertex="1">
          <mxGeometry x="16" y="152.18" width="158" height="60" as="geometry" />
        </mxCell>
        <mxCell id="SWZNe6TTEUUtdwUn30GW-176" value="" style="fillColor=#F2931E;strokeColor=none;opacity=30;" parent="1" vertex="1">
          <mxGeometry x="2700" y="-320" width="190" height="230" as="geometry" />
        </mxCell>
        <mxCell id="SWZNe6TTEUUtdwUn30GW-177" value="IHDP" style="rounded=1;fillColor=#23445D;gradientColor=none;strokeColor=none;fontColor=#FFFFFF;fontStyle=1;fontFamily=Tahoma;fontSize=14" parent="1" vertex="1">
          <mxGeometry x="2716" y="-307" width="160" height="60" as="geometry" />
        </mxCell>
        <mxCell id="SWZNe6TTEUUtdwUn30GW-178" value="IDHP" style="rounded=1;fillColor=#23445D;gradientColor=none;strokeColor=none;fontColor=#FFFFFF;fontStyle=1;fontFamily=Tahoma;fontSize=14" parent="1" vertex="1">
          <mxGeometry x="2716" y="-235" width="160" height="60" as="geometry" />
        </mxCell>
        <mxCell id="SWZNe6TTEUUtdwUn30GW-179" value="IGDHP" style="rounded=1;fillColor=#23445D;gradientColor=none;strokeColor=none;fontColor=#FFFFFF;fontStyle=1;fontFamily=Tahoma;fontSize=14" parent="1" vertex="1">
          <mxGeometry x="2716" y="-161" width="160" height="60" as="geometry" />
        </mxCell>
        <mxCell id="SWZNe6TTEUUtdwUn30GW-180" value="" style="fillColor=#F2931E;strokeColor=none;opacity=30;" parent="1" vertex="1">
          <mxGeometry x="2440" y="-320" width="190" height="160" as="geometry" />
        </mxCell>
        <mxCell id="SWZNe6TTEUUtdwUn30GW-181" value="SAC-IDHP" style="rounded=1;fillColor=#23445D;gradientColor=none;strokeColor=none;fontColor=#FFFFFF;fontStyle=1;fontFamily=Tahoma;fontSize=14" parent="1" vertex="1">
          <mxGeometry x="2456" y="-307" width="160" height="60" as="geometry" />
        </mxCell>
        <mxCell id="SWZNe6TTEUUtdwUn30GW-182" value="DSAC-IDHP" style="rounded=1;fillColor=#23445D;gradientColor=none;strokeColor=none;fontColor=#FFFFFF;fontStyle=1;fontFamily=Tahoma;fontSize=14" parent="1" vertex="1">
          <mxGeometry x="2456" y="-235" width="160" height="60" as="geometry" />
        </mxCell>
        <mxCell id="SWZNe6TTEUUtdwUn30GW-183" style="edgeStyle=orthogonalEdgeStyle;rounded=0;orthogonalLoop=1;jettySize=auto;html=1;" parent="1" source="SWZNe6TTEUUtdwUn30GW-184" target="SWZNe6TTEUUtdwUn30GW-185" edge="1">
          <mxGeometry relative="1" as="geometry" />
        </mxCell>
        <mxCell id="SWZNe6TTEUUtdwUn30GW-184" value="Action Dependent&#xa;ACD" style="rounded=1;fillColor=#23445D;gradientColor=none;strokeColor=none;fontColor=#FFFFFF;fontStyle=1;fontFamily=Tahoma;fontSize=14" parent="1" vertex="1">
          <mxGeometry x="2948" y="-430" width="190" height="80" as="geometry" />
        </mxCell>
        <mxCell id="SWZNe6TTEUUtdwUn30GW-185" value="" style="fillColor=#F2931E;strokeColor=none;opacity=30;" parent="1" vertex="1">
          <mxGeometry x="2948" y="-320" width="190" height="230" as="geometry" />
        </mxCell>
        <mxCell id="SWZNe6TTEUUtdwUn30GW-186" value="ADHDP" style="rounded=1;fillColor=#23445D;gradientColor=none;strokeColor=none;fontColor=#FFFFFF;fontStyle=1;fontFamily=Tahoma;fontSize=14" parent="1" vertex="1">
          <mxGeometry x="2964" y="-307" width="160" height="60" as="geometry" />
        </mxCell>
        <mxCell id="SWZNe6TTEUUtdwUn30GW-187" value="ADDHP" style="rounded=1;fillColor=#23445D;gradientColor=none;strokeColor=none;fontColor=#FFFFFF;fontStyle=1;fontFamily=Tahoma;fontSize=14" parent="1" vertex="1">
          <mxGeometry x="2964" y="-235" width="160" height="60" as="geometry" />
        </mxCell>
        <mxCell id="SWZNe6TTEUUtdwUn30GW-188" value="ADGDHP" style="rounded=1;fillColor=#23445D;gradientColor=none;strokeColor=none;fontColor=#FFFFFF;fontStyle=1;fontFamily=Tahoma;fontSize=14" parent="1" vertex="1">
          <mxGeometry x="2964" y="-161" width="160" height="60" as="geometry" />
        </mxCell>
        <mxCell id="SWZNe6TTEUUtdwUn30GW-198" value="DPG" style="rounded=1;whiteSpace=wrap;html=1;fillColor=#F7F9FC;strokeColor=#6c8ebf;horizontal=1;verticalAlign=top;dashed=1;fontFamily=Courier New;fontStyle=0" parent="1" vertex="1">
          <mxGeometry x="2202" y="332" width="210" height="25" as="geometry" />
        </mxCell>
        <mxCell id="SWZNe6TTEUUtdwUn30GW-199" value="DDPG" style="rounded=1;whiteSpace=wrap;html=1;fillColor=#F7F9FC;strokeColor=#6c8ebf;horizontal=1;verticalAlign=top;dashed=1;fontFamily=Courier New;fontStyle=0" parent="1" vertex="1">
          <mxGeometry x="2201" y="371" width="210" height="25" as="geometry" />
        </mxCell>
        <mxCell id="SWZNe6TTEUUtdwUn30GW-200" value="TD3, TD4, TD7" style="rounded=1;whiteSpace=wrap;html=1;fillColor=#F7F9FC;strokeColor=#6c8ebf;horizontal=1;verticalAlign=top;dashed=1;fontFamily=Courier New;fontStyle=0" parent="1" vertex="1">
          <mxGeometry x="2201" y="411" width="210" height="25" as="geometry" />
        </mxCell>
        <mxCell id="SWZNe6TTEUUtdwUn30GW-202" value="SAC, DSAC" style="rounded=1;whiteSpace=wrap;html=1;fillColor=#F7F9FC;strokeColor=#6c8ebf;horizontal=1;verticalAlign=top;dashed=1;fontFamily=Courier New;fontStyle=0" parent="1" vertex="1">
          <mxGeometry x="2201" y="450" width="210" height="25" as="geometry" />
        </mxCell>
        <mxCell id="SWZNe6TTEUUtdwUn30GW-203" value="Q-Learning" style="rounded=1;whiteSpace=wrap;html=1;fillColor=#F7F9FC;strokeColor=#6c8ebf;horizontal=1;verticalAlign=top;dashed=1;fontFamily=Courier New;fontStyle=0" parent="1" vertex="1">
          <mxGeometry x="2456" y="332" width="210" height="25" as="geometry" />
        </mxCell>
        <mxCell id="SWZNe6TTEUUtdwUn30GW-204" value="DQN" style="rounded=1;whiteSpace=wrap;html=1;fillColor=#F7F9FC;strokeColor=#6c8ebf;horizontal=1;verticalAlign=top;dashed=1;fontFamily=Courier New;fontStyle=0" parent="1" vertex="1">
          <mxGeometry x="2455" y="371" width="210" height="25" as="geometry" />
        </mxCell>
        <mxCell id="SWZNe6TTEUUtdwUn30GW-205" value="Double-DQN" style="rounded=1;whiteSpace=wrap;html=1;fillColor=#F7F9FC;strokeColor=#6c8ebf;horizontal=1;verticalAlign=top;dashed=1;fontFamily=Courier New;fontStyle=0" parent="1" vertex="1">
          <mxGeometry x="2455" y="411" width="210" height="25" as="geometry" />
        </mxCell>
        <mxCell id="SWZNe6TTEUUtdwUn30GW-206" value="Rainbod DQN" style="rounded=1;whiteSpace=wrap;html=1;fillColor=#F7F9FC;strokeColor=#6c8ebf;horizontal=1;verticalAlign=top;dashed=1;fontFamily=Courier New;fontStyle=0" parent="1" vertex="1">
          <mxGeometry x="2455" y="450" width="210" height="25" as="geometry" />
        </mxCell>
        <mxCell id="SWZNe6TTEUUtdwUn30GW-210" value="" style="rounded=0;whiteSpace=wrap;html=1;strokeColor=none;" parent="1" vertex="1">
          <mxGeometry x="-872" y="-882" width="742" height="452" as="geometry" />
        </mxCell>
        <mxCell id="SWZNe6TTEUUtdwUn30GW-211" style="edgeStyle=orthogonalEdgeStyle;rounded=0;orthogonalLoop=1;jettySize=auto;html=1;" parent="1" source="SWZNe6TTEUUtdwUn30GW-213" target="SWZNe6TTEUUtdwUn30GW-260" edge="1">
          <mxGeometry relative="1" as="geometry" />
        </mxCell>
        <mxCell id="SWZNe6TTEUUtdwUn30GW-212" style="edgeStyle=orthogonalEdgeStyle;rounded=0;orthogonalLoop=1;jettySize=auto;html=1;" parent="1" source="SWZNe6TTEUUtdwUn30GW-213" target="SWZNe6TTEUUtdwUn30GW-247" edge="1">
          <mxGeometry relative="1" as="geometry" />
        </mxCell>
        <mxCell id="SWZNe6TTEUUtdwUn30GW-213" value="&lt;b&gt;&lt;font style=&quot;font-size: 20px;&quot; face=&quot;Times New Roman&quot;&gt;ACD&lt;/font&gt;&lt;/b&gt;" style="rounded=0;whiteSpace=wrap;html=1;verticalAlign=top;" parent="1" vertex="1">
          <mxGeometry x="1041" y="-807" width="230" height="470" as="geometry" />
        </mxCell>
        <mxCell id="SWZNe6TTEUUtdwUn30GW-214" value="&lt;b&gt;&lt;font face=&quot;Times New Roman&quot;&gt;HDP&lt;/font&gt;&lt;/b&gt;" style="rounded=1;whiteSpace=wrap;html=1;fillColor=#F7F9FC;strokeColor=#6c8ebf;horizontal=1;verticalAlign=top;dashed=1;" parent="1" vertex="1">
          <mxGeometry x="1065.5" y="-762" width="180" height="120" as="geometry" />
        </mxCell>
        <mxCell id="SWZNe6TTEUUtdwUn30GW-215" style="edgeStyle=orthogonalEdgeStyle;rounded=0;orthogonalLoop=1;jettySize=auto;html=1;labelBackgroundColor=none;" parent="1" edge="1">
          <mxGeometry relative="1" as="geometry">
            <mxPoint x="1235" y="-712" as="targetPoint" />
            <mxPoint x="1195" y="-712" as="sourcePoint" />
            <Array as="points">
              <mxPoint x="1215.5" y="-712" />
              <mxPoint x="1215.5" y="-712" />
            </Array>
          </mxGeometry>
        </mxCell>
        <mxCell id="SWZNe6TTEUUtdwUn30GW-216" value="$$u_t$$" style="edgeLabel;html=1;align=center;verticalAlign=middle;resizable=0;points=[];labelBackgroundColor=none;" parent="SWZNe6TTEUUtdwUn30GW-215" vertex="1" connectable="0">
          <mxGeometry x="-0.3087" relative="1" as="geometry">
            <mxPoint x="6" y="-10" as="offset" />
          </mxGeometry>
        </mxCell>
        <mxCell id="SWZNe6TTEUUtdwUn30GW-217" value="&lt;font face=&quot;Courier New&quot;&gt;Actor&lt;/font&gt;" style="rounded=0;whiteSpace=wrap;html=1;" parent="1" vertex="1">
          <mxGeometry x="1116" y="-727" width="80" height="30" as="geometry" />
        </mxCell>
        <mxCell id="SWZNe6TTEUUtdwUn30GW-218" value="$$x_t$$" style="endArrow=classic;html=1;rounded=0;labelBackgroundColor=none;" parent="1" target="SWZNe6TTEUUtdwUn30GW-217" edge="1">
          <mxGeometry y="10" width="50" height="50" relative="1" as="geometry">
            <mxPoint x="1076" y="-712" as="sourcePoint" />
            <mxPoint x="1126" y="-702.2" as="targetPoint" />
            <mxPoint as="offset" />
          </mxGeometry>
        </mxCell>
        <mxCell id="SWZNe6TTEUUtdwUn30GW-219" value="&lt;div&gt;&lt;br/&gt;&lt;/div&gt;" style="edgeLabel;html=1;align=center;verticalAlign=middle;resizable=0;points=[];" parent="SWZNe6TTEUUtdwUn30GW-218" vertex="1" connectable="0">
          <mxGeometry x="-0.4" y="1" relative="1" as="geometry">
            <mxPoint as="offset" />
          </mxGeometry>
        </mxCell>
        <mxCell id="SWZNe6TTEUUtdwUn30GW-220" style="edgeStyle=orthogonalEdgeStyle;rounded=0;orthogonalLoop=1;jettySize=auto;html=1;" parent="1" source="SWZNe6TTEUUtdwUn30GW-222" edge="1">
          <mxGeometry relative="1" as="geometry">
            <mxPoint x="1235.5" y="-672" as="targetPoint" />
          </mxGeometry>
        </mxCell>
        <mxCell id="SWZNe6TTEUUtdwUn30GW-221" value="$$V(x_t)$$" style="edgeLabel;html=1;align=center;verticalAlign=middle;resizable=0;points=[];labelBackgroundColor=none;" parent="SWZNe6TTEUUtdwUn30GW-220" vertex="1" connectable="0">
          <mxGeometry x="-0.3087" relative="1" as="geometry">
            <mxPoint x="6" y="-10" as="offset" />
          </mxGeometry>
        </mxCell>
        <mxCell id="SWZNe6TTEUUtdwUn30GW-222" value="&lt;font face=&quot;Courier New&quot;&gt;Critic&lt;/font&gt;" style="rounded=0;whiteSpace=wrap;html=1;" parent="1" vertex="1">
          <mxGeometry x="1115.5" y="-687" width="80" height="30" as="geometry" />
        </mxCell>
        <mxCell id="SWZNe6TTEUUtdwUn30GW-223" value="$$x_t$$" style="endArrow=classic;html=1;rounded=0;labelBackgroundColor=none;" parent="1" edge="1">
          <mxGeometry y="10" width="50" height="50" relative="1" as="geometry">
            <mxPoint x="1075.5" y="-672" as="sourcePoint" />
            <mxPoint x="1115.5" y="-672" as="targetPoint" />
            <mxPoint as="offset" />
          </mxGeometry>
        </mxCell>
        <mxCell id="SWZNe6TTEUUtdwUn30GW-224" value="&lt;div&gt;&lt;br/&gt;&lt;/div&gt;" style="edgeLabel;html=1;align=center;verticalAlign=middle;resizable=0;points=[];" parent="SWZNe6TTEUUtdwUn30GW-223" vertex="1" connectable="0">
          <mxGeometry x="-0.4" y="1" relative="1" as="geometry">
            <mxPoint as="offset" />
          </mxGeometry>
        </mxCell>
        <mxCell id="SWZNe6TTEUUtdwUn30GW-225" value="&lt;b&gt;&lt;font face=&quot;Times New Roman&quot;&gt;DHP&lt;/font&gt;&lt;/b&gt;" style="rounded=1;whiteSpace=wrap;html=1;fillColor=#F7F9FC;strokeColor=#6c8ebf;horizontal=1;verticalAlign=top;dashed=1;" parent="1" vertex="1">
          <mxGeometry x="1065" y="-622" width="180" height="120" as="geometry" />
        </mxCell>
        <mxCell id="SWZNe6TTEUUtdwUn30GW-226" style="edgeStyle=orthogonalEdgeStyle;rounded=0;orthogonalLoop=1;jettySize=auto;html=1;labelBackgroundColor=none;" parent="1" edge="1">
          <mxGeometry relative="1" as="geometry">
            <mxPoint x="1234.5" y="-572" as="targetPoint" />
            <mxPoint x="1194.5" y="-572" as="sourcePoint" />
            <Array as="points">
              <mxPoint x="1215" y="-572" />
              <mxPoint x="1215" y="-572" />
            </Array>
          </mxGeometry>
        </mxCell>
        <mxCell id="SWZNe6TTEUUtdwUn30GW-227" value="$$u_t$$" style="edgeLabel;html=1;align=center;verticalAlign=middle;resizable=0;points=[];labelBackgroundColor=none;" parent="SWZNe6TTEUUtdwUn30GW-226" vertex="1" connectable="0">
          <mxGeometry x="-0.3087" relative="1" as="geometry">
            <mxPoint x="6" y="-10" as="offset" />
          </mxGeometry>
        </mxCell>
        <mxCell id="SWZNe6TTEUUtdwUn30GW-228" value="&lt;font face=&quot;Courier New&quot;&gt;Actor&lt;/font&gt;" style="rounded=0;whiteSpace=wrap;html=1;" parent="1" vertex="1">
          <mxGeometry x="1115.5" y="-587" width="80" height="30" as="geometry" />
        </mxCell>
        <mxCell id="SWZNe6TTEUUtdwUn30GW-229" value="$$x_t$$" style="endArrow=classic;html=1;rounded=0;labelBackgroundColor=none;" parent="1" target="SWZNe6TTEUUtdwUn30GW-228" edge="1">
          <mxGeometry y="10" width="50" height="50" relative="1" as="geometry">
            <mxPoint x="1075.5" y="-572" as="sourcePoint" />
            <mxPoint x="1125.5" y="-562.2" as="targetPoint" />
            <mxPoint as="offset" />
          </mxGeometry>
        </mxCell>
        <mxCell id="SWZNe6TTEUUtdwUn30GW-230" value="&lt;div&gt;&lt;br/&gt;&lt;/div&gt;" style="edgeLabel;html=1;align=center;verticalAlign=middle;resizable=0;points=[];" parent="SWZNe6TTEUUtdwUn30GW-229" vertex="1" connectable="0">
          <mxGeometry x="-0.4" y="1" relative="1" as="geometry">
            <mxPoint as="offset" />
          </mxGeometry>
        </mxCell>
        <mxCell id="SWZNe6TTEUUtdwUn30GW-231" style="edgeStyle=orthogonalEdgeStyle;rounded=0;orthogonalLoop=1;jettySize=auto;html=1;" parent="1" source="SWZNe6TTEUUtdwUn30GW-233" edge="1">
          <mxGeometry relative="1" as="geometry">
            <mxPoint x="1235" y="-532" as="targetPoint" />
          </mxGeometry>
        </mxCell>
        <mxCell id="SWZNe6TTEUUtdwUn30GW-232" value="$$\lambda(x_t)$$" style="edgeLabel;html=1;align=center;verticalAlign=middle;resizable=0;points=[];labelBackgroundColor=none;" parent="SWZNe6TTEUUtdwUn30GW-231" vertex="1" connectable="0">
          <mxGeometry x="-0.3087" relative="1" as="geometry">
            <mxPoint x="6" y="-10" as="offset" />
          </mxGeometry>
        </mxCell>
        <mxCell id="SWZNe6TTEUUtdwUn30GW-233" value="&lt;font face=&quot;Courier New&quot;&gt;Critic&lt;/font&gt;" style="rounded=0;whiteSpace=wrap;html=1;" parent="1" vertex="1">
          <mxGeometry x="1115" y="-547" width="80" height="30" as="geometry" />
        </mxCell>
        <mxCell id="SWZNe6TTEUUtdwUn30GW-234" value="$$x_t$$" style="endArrow=classic;html=1;rounded=0;labelBackgroundColor=none;" parent="1" edge="1">
          <mxGeometry y="10" width="50" height="50" relative="1" as="geometry">
            <mxPoint x="1075" y="-532" as="sourcePoint" />
            <mxPoint x="1115" y="-532" as="targetPoint" />
            <mxPoint as="offset" />
          </mxGeometry>
        </mxCell>
        <mxCell id="SWZNe6TTEUUtdwUn30GW-235" value="&lt;div&gt;&lt;br/&gt;&lt;/div&gt;" style="edgeLabel;html=1;align=center;verticalAlign=middle;resizable=0;points=[];" parent="SWZNe6TTEUUtdwUn30GW-234" vertex="1" connectable="0">
          <mxGeometry x="-0.4" y="1" relative="1" as="geometry">
            <mxPoint as="offset" />
          </mxGeometry>
        </mxCell>
        <mxCell id="SWZNe6TTEUUtdwUn30GW-236" value="&lt;b&gt;&lt;font face=&quot;Times New Roman&quot;&gt;GDHP&lt;/font&gt;&lt;/b&gt;" style="rounded=1;whiteSpace=wrap;html=1;fillColor=#F7F9FC;strokeColor=#6c8ebf;horizontal=1;verticalAlign=top;dashed=1;" parent="1" vertex="1">
          <mxGeometry x="1065.5" y="-482" width="180" height="120" as="geometry" />
        </mxCell>
        <mxCell id="SWZNe6TTEUUtdwUn30GW-237" style="edgeStyle=orthogonalEdgeStyle;rounded=0;orthogonalLoop=1;jettySize=auto;html=1;labelBackgroundColor=none;" parent="1" edge="1">
          <mxGeometry relative="1" as="geometry">
            <mxPoint x="1235" y="-432" as="targetPoint" />
            <mxPoint x="1195" y="-432" as="sourcePoint" />
            <Array as="points">
              <mxPoint x="1215.5" y="-432" />
              <mxPoint x="1215.5" y="-432" />
            </Array>
          </mxGeometry>
        </mxCell>
        <mxCell id="SWZNe6TTEUUtdwUn30GW-238" value="$$u_t$$" style="edgeLabel;html=1;align=center;verticalAlign=middle;resizable=0;points=[];labelBackgroundColor=none;" parent="SWZNe6TTEUUtdwUn30GW-237" vertex="1" connectable="0">
          <mxGeometry x="-0.3087" relative="1" as="geometry">
            <mxPoint x="6" y="-10" as="offset" />
          </mxGeometry>
        </mxCell>
        <mxCell id="SWZNe6TTEUUtdwUn30GW-239" value="&lt;font face=&quot;Courier New&quot;&gt;Actor&lt;/font&gt;" style="rounded=0;whiteSpace=wrap;html=1;" parent="1" vertex="1">
          <mxGeometry x="1116" y="-447" width="80" height="30" as="geometry" />
        </mxCell>
        <mxCell id="SWZNe6TTEUUtdwUn30GW-240" value="$$x_t$$" style="endArrow=classic;html=1;rounded=0;labelBackgroundColor=none;" parent="1" target="SWZNe6TTEUUtdwUn30GW-239" edge="1">
          <mxGeometry y="10" width="50" height="50" relative="1" as="geometry">
            <mxPoint x="1076" y="-432" as="sourcePoint" />
            <mxPoint x="1126" y="-422.20000000000005" as="targetPoint" />
            <mxPoint as="offset" />
          </mxGeometry>
        </mxCell>
        <mxCell id="SWZNe6TTEUUtdwUn30GW-241" value="&lt;div&gt;&lt;br/&gt;&lt;/div&gt;" style="edgeLabel;html=1;align=center;verticalAlign=middle;resizable=0;points=[];" parent="SWZNe6TTEUUtdwUn30GW-240" vertex="1" connectable="0">
          <mxGeometry x="-0.4" y="1" relative="1" as="geometry">
            <mxPoint as="offset" />
          </mxGeometry>
        </mxCell>
        <mxCell id="SWZNe6TTEUUtdwUn30GW-242" style="edgeStyle=orthogonalEdgeStyle;rounded=0;orthogonalLoop=1;jettySize=auto;html=1;" parent="1" source="SWZNe6TTEUUtdwUn30GW-244" edge="1">
          <mxGeometry relative="1" as="geometry">
            <mxPoint x="1235.5" y="-392" as="targetPoint" />
          </mxGeometry>
        </mxCell>
        <mxCell id="SWZNe6TTEUUtdwUn30GW-243" value="&lt;font style=&quot;font-size: 7px;&quot;&gt;$$V(x_t), \lambda(x_t)$$&lt;/font&gt;" style="edgeLabel;html=1;align=center;verticalAlign=middle;resizable=0;points=[];labelBackgroundColor=none;fontSize=7;" parent="SWZNe6TTEUUtdwUn30GW-242" vertex="1" connectable="0">
          <mxGeometry x="-0.3087" relative="1" as="geometry">
            <mxPoint x="11" y="-10" as="offset" />
          </mxGeometry>
        </mxCell>
        <mxCell id="SWZNe6TTEUUtdwUn30GW-244" value="&lt;font face=&quot;Courier New&quot;&gt;Critic&lt;/font&gt;" style="rounded=0;whiteSpace=wrap;html=1;" parent="1" vertex="1">
          <mxGeometry x="1115.5" y="-407" width="80" height="30" as="geometry" />
        </mxCell>
        <mxCell id="SWZNe6TTEUUtdwUn30GW-245" value="$$x_t$$" style="endArrow=classic;html=1;rounded=0;labelBackgroundColor=none;" parent="1" edge="1">
          <mxGeometry y="10" width="50" height="50" relative="1" as="geometry">
            <mxPoint x="1075.5" y="-392" as="sourcePoint" />
            <mxPoint x="1115.5" y="-392" as="targetPoint" />
            <mxPoint as="offset" />
          </mxGeometry>
        </mxCell>
        <mxCell id="SWZNe6TTEUUtdwUn30GW-246" value="&lt;div&gt;&lt;br/&gt;&lt;/div&gt;" style="edgeLabel;html=1;align=center;verticalAlign=middle;resizable=0;points=[];" parent="SWZNe6TTEUUtdwUn30GW-245" vertex="1" connectable="0">
          <mxGeometry x="-0.4" y="1" relative="1" as="geometry">
            <mxPoint as="offset" />
          </mxGeometry>
        </mxCell>
        <mxCell id="SWZNe6TTEUUtdwUn30GW-247" value="&lt;b&gt;&lt;font style=&quot;font-size: 20px;&quot; face=&quot;Times New Roman&quot;&gt;AD-&lt;/font&gt;&lt;/b&gt;" style="rounded=0;whiteSpace=wrap;html=1;verticalAlign=top;" parent="1" vertex="1">
          <mxGeometry x="1346" y="-802" width="230" height="180" as="geometry" />
        </mxCell>
        <mxCell id="SWZNe6TTEUUtdwUn30GW-248" value="" style="rounded=1;whiteSpace=wrap;html=1;fillColor=#F7F9FC;strokeColor=#6c8ebf;horizontal=1;verticalAlign=top;dashed=1;" parent="1" vertex="1">
          <mxGeometry x="1356" y="-762" width="210" height="120" as="geometry" />
        </mxCell>
        <mxCell id="SWZNe6TTEUUtdwUn30GW-249" style="edgeStyle=orthogonalEdgeStyle;rounded=0;orthogonalLoop=1;jettySize=auto;html=1;labelBackgroundColor=none;" parent="1" edge="1">
          <mxGeometry relative="1" as="geometry">
            <mxPoint x="1540.5" y="-732" as="targetPoint" />
            <mxPoint x="1500.5" y="-732" as="sourcePoint" />
            <Array as="points">
              <mxPoint x="1521" y="-732" />
              <mxPoint x="1521" y="-732" />
            </Array>
          </mxGeometry>
        </mxCell>
        <mxCell id="SWZNe6TTEUUtdwUn30GW-250" value="$$u_t$$" style="edgeLabel;html=1;align=center;verticalAlign=middle;resizable=0;points=[];labelBackgroundColor=none;" parent="SWZNe6TTEUUtdwUn30GW-249" vertex="1" connectable="0">
          <mxGeometry x="-0.3087" relative="1" as="geometry">
            <mxPoint x="6" y="-10" as="offset" />
          </mxGeometry>
        </mxCell>
        <mxCell id="SWZNe6TTEUUtdwUn30GW-251" value="&lt;font face=&quot;Courier New&quot;&gt;Actor&lt;/font&gt;" style="rounded=0;whiteSpace=wrap;html=1;" parent="1" vertex="1">
          <mxGeometry x="1421.5" y="-747" width="80" height="30" as="geometry" />
        </mxCell>
        <mxCell id="SWZNe6TTEUUtdwUn30GW-252" value="$$x_t$$" style="endArrow=classic;html=1;rounded=0;labelBackgroundColor=none;" parent="1" target="SWZNe6TTEUUtdwUn30GW-251" edge="1">
          <mxGeometry y="10" width="50" height="50" relative="1" as="geometry">
            <mxPoint x="1381.5" y="-732" as="sourcePoint" />
            <mxPoint x="1431.5" y="-722.2" as="targetPoint" />
            <mxPoint as="offset" />
          </mxGeometry>
        </mxCell>
        <mxCell id="SWZNe6TTEUUtdwUn30GW-253" value="&lt;div&gt;&lt;br/&gt;&lt;/div&gt;" style="edgeLabel;html=1;align=center;verticalAlign=middle;resizable=0;points=[];" parent="SWZNe6TTEUUtdwUn30GW-252" vertex="1" connectable="0">
          <mxGeometry x="-0.4" y="1" relative="1" as="geometry">
            <mxPoint as="offset" />
          </mxGeometry>
        </mxCell>
        <mxCell id="SWZNe6TTEUUtdwUn30GW-254" style="edgeStyle=orthogonalEdgeStyle;rounded=0;orthogonalLoop=1;jettySize=auto;html=1;" parent="1" source="SWZNe6TTEUUtdwUn30GW-256" edge="1">
          <mxGeometry relative="1" as="geometry">
            <mxPoint x="1541.5" y="-667" as="targetPoint" />
          </mxGeometry>
        </mxCell>
        <mxCell id="SWZNe6TTEUUtdwUn30GW-255" value="$$V(x_t)$$" style="edgeLabel;html=1;align=center;verticalAlign=middle;resizable=0;points=[];labelBackgroundColor=none;" parent="SWZNe6TTEUUtdwUn30GW-254" vertex="1" connectable="0">
          <mxGeometry x="-0.3087" relative="1" as="geometry">
            <mxPoint x="6" y="-10" as="offset" />
          </mxGeometry>
        </mxCell>
        <mxCell id="SWZNe6TTEUUtdwUn30GW-256" value="&lt;font face=&quot;Courier New&quot;&gt;Critic&lt;/font&gt;" style="rounded=0;whiteSpace=wrap;html=1;" parent="1" vertex="1">
          <mxGeometry x="1421.5" y="-682" width="80" height="30" as="geometry" />
        </mxCell>
        <mxCell id="SWZNe6TTEUUtdwUn30GW-257" style="edgeStyle=orthogonalEdgeStyle;rounded=0;orthogonalLoop=1;jettySize=auto;html=1;entryX=0;entryY=0.5;entryDx=0;entryDy=0;" parent="1" source="SWZNe6TTEUUtdwUn30GW-251" target="SWZNe6TTEUUtdwUn30GW-256" edge="1">
          <mxGeometry relative="1" as="geometry">
            <Array as="points">
              <mxPoint x="1516" y="-732" />
              <mxPoint x="1516" y="-697" />
              <mxPoint x="1401" y="-697" />
              <mxPoint x="1401" y="-667" />
            </Array>
          </mxGeometry>
        </mxCell>
        <mxCell id="SWZNe6TTEUUtdwUn30GW-258" value="$$x_t$$" style="endArrow=classic;html=1;rounded=0;labelBackgroundColor=none;" parent="1" edge="1">
          <mxGeometry x="-0.775" y="15" width="50" height="50" relative="1" as="geometry">
            <mxPoint x="1381.5" y="-667" as="sourcePoint" />
            <mxPoint x="1421.5" y="-667" as="targetPoint" />
            <mxPoint as="offset" />
          </mxGeometry>
        </mxCell>
        <mxCell id="SWZNe6TTEUUtdwUn30GW-259" value="&lt;div&gt;&lt;br/&gt;&lt;/div&gt;" style="edgeLabel;html=1;align=center;verticalAlign=middle;resizable=0;points=[];" parent="SWZNe6TTEUUtdwUn30GW-258" vertex="1" connectable="0">
          <mxGeometry x="-0.4" y="1" relative="1" as="geometry">
            <mxPoint as="offset" />
          </mxGeometry>
        </mxCell>
        <mxCell id="SWZNe6TTEUUtdwUn30GW-260" value="&lt;b&gt;&lt;font style=&quot;font-size: 20px;&quot; face=&quot;Times New Roman&quot;&gt;I-&lt;/font&gt;&lt;/b&gt;" style="rounded=0;whiteSpace=wrap;html=1;verticalAlign=top;" parent="1" vertex="1">
          <mxGeometry x="1346.5" y="-547" width="230" height="210" as="geometry" />
        </mxCell>
        <mxCell id="SWZNe6TTEUUtdwUn30GW-261" value="" style="rounded=1;whiteSpace=wrap;html=1;fillColor=#F7F9FC;strokeColor=#6c8ebf;horizontal=1;verticalAlign=top;dashed=1;" parent="1" vertex="1">
          <mxGeometry x="1356.5" y="-507" width="210" height="150" as="geometry" />
        </mxCell>
        <mxCell id="SWZNe6TTEUUtdwUn30GW-262" style="edgeStyle=orthogonalEdgeStyle;rounded=0;orthogonalLoop=1;jettySize=auto;html=1;labelBackgroundColor=none;" parent="1" edge="1">
          <mxGeometry relative="1" as="geometry">
            <mxPoint x="1559" y="-475.5" as="targetPoint" />
            <mxPoint x="1519" y="-475.5" as="sourcePoint" />
            <Array as="points">
              <mxPoint x="1539.5" y="-475.5" />
              <mxPoint x="1539.5" y="-475.5" />
            </Array>
          </mxGeometry>
        </mxCell>
        <mxCell id="SWZNe6TTEUUtdwUn30GW-263" value="$$u_t$$" style="edgeLabel;html=1;align=center;verticalAlign=middle;resizable=0;points=[];labelBackgroundColor=none;" parent="SWZNe6TTEUUtdwUn30GW-262" vertex="1" connectable="0">
          <mxGeometry x="-0.3087" relative="1" as="geometry">
            <mxPoint x="6" y="-10" as="offset" />
          </mxGeometry>
        </mxCell>
        <mxCell id="SWZNe6TTEUUtdwUn30GW-264" value="&lt;font face=&quot;Courier New&quot;&gt;Actor&lt;/font&gt;" style="rounded=0;whiteSpace=wrap;html=1;" parent="1" vertex="1">
          <mxGeometry x="1440" y="-490.5" width="80" height="30" as="geometry" />
        </mxCell>
        <mxCell id="SWZNe6TTEUUtdwUn30GW-265" value="$$x_t$$" style="endArrow=classic;html=1;rounded=0;labelBackgroundColor=none;" parent="1" target="SWZNe6TTEUUtdwUn30GW-264" edge="1">
          <mxGeometry y="10" width="50" height="50" relative="1" as="geometry">
            <mxPoint x="1364" y="-475.5" as="sourcePoint" />
            <mxPoint x="1450" y="-465.70000000000005" as="targetPoint" />
            <mxPoint as="offset" />
          </mxGeometry>
        </mxCell>
        <mxCell id="SWZNe6TTEUUtdwUn30GW-266" value="&lt;div&gt;&lt;br/&gt;&lt;/div&gt;" style="edgeLabel;html=1;align=center;verticalAlign=middle;resizable=0;points=[];" parent="SWZNe6TTEUUtdwUn30GW-265" vertex="1" connectable="0">
          <mxGeometry x="-0.4" y="1" relative="1" as="geometry">
            <mxPoint as="offset" />
          </mxGeometry>
        </mxCell>
        <mxCell id="SWZNe6TTEUUtdwUn30GW-267" style="edgeStyle=orthogonalEdgeStyle;rounded=0;orthogonalLoop=1;jettySize=auto;html=1;" parent="1" source="SWZNe6TTEUUtdwUn30GW-269" edge="1">
          <mxGeometry relative="1" as="geometry">
            <mxPoint x="1560" y="-392" as="targetPoint" />
          </mxGeometry>
        </mxCell>
        <mxCell id="SWZNe6TTEUUtdwUn30GW-268" value="$$V(x_t)$$" style="edgeLabel;html=1;align=center;verticalAlign=middle;resizable=0;points=[];labelBackgroundColor=none;" parent="SWZNe6TTEUUtdwUn30GW-267" vertex="1" connectable="0">
          <mxGeometry x="-0.3087" relative="1" as="geometry">
            <mxPoint x="6" y="-10" as="offset" />
          </mxGeometry>
        </mxCell>
        <mxCell id="SWZNe6TTEUUtdwUn30GW-269" value="&lt;font face=&quot;Courier New&quot;&gt;Critic&lt;/font&gt;" style="rounded=0;whiteSpace=wrap;html=1;" parent="1" vertex="1">
          <mxGeometry x="1440" y="-407" width="80" height="30" as="geometry" />
        </mxCell>
        <mxCell id="SWZNe6TTEUUtdwUn30GW-270" value="$$x_t$$" style="endArrow=classic;html=1;rounded=0;labelBackgroundColor=none;" parent="1" edge="1">
          <mxGeometry y="10" width="50" height="50" relative="1" as="geometry">
            <mxPoint x="1364" y="-392.5" as="sourcePoint" />
            <mxPoint x="1440.5" y="-392.11" as="targetPoint" />
            <mxPoint as="offset" />
          </mxGeometry>
        </mxCell>
        <mxCell id="SWZNe6TTEUUtdwUn30GW-271" value="&lt;div&gt;&lt;br/&gt;&lt;/div&gt;" style="edgeLabel;html=1;align=center;verticalAlign=middle;resizable=0;points=[];" parent="SWZNe6TTEUUtdwUn30GW-270" vertex="1" connectable="0">
          <mxGeometry x="-0.4" y="1" relative="1" as="geometry">
            <mxPoint as="offset" />
          </mxGeometry>
        </mxCell>
        <mxCell id="SWZNe6TTEUUtdwUn30GW-272" value="&lt;font face=&quot;Courier New&quot;&gt;RLS&lt;/font&gt;" style="rounded=0;whiteSpace=wrap;html=1;" parent="1" vertex="1">
          <mxGeometry x="1390" y="-449.5" width="50" height="30" as="geometry" />
        </mxCell>
        <mxCell id="SWZNe6TTEUUtdwUn30GW-273" value="$$x_t$$" style="endArrow=classic;html=1;rounded=0;labelBackgroundColor=none;" parent="1" edge="1">
          <mxGeometry y="10" width="50" height="50" relative="1" as="geometry">
            <mxPoint x="1364" y="-434.5" as="sourcePoint" />
            <mxPoint x="1390" y="-434.70000000000005" as="targetPoint" />
            <mxPoint as="offset" />
          </mxGeometry>
        </mxCell>
        <mxCell id="SWZNe6TTEUUtdwUn30GW-274" value="&lt;div&gt;&lt;br/&gt;&lt;/div&gt;" style="edgeLabel;html=1;align=center;verticalAlign=middle;resizable=0;points=[];" parent="SWZNe6TTEUUtdwUn30GW-273" vertex="1" connectable="0">
          <mxGeometry x="-0.4" y="1" relative="1" as="geometry">
            <mxPoint as="offset" />
          </mxGeometry>
        </mxCell>
        <mxCell id="SWZNe6TTEUUtdwUn30GW-275" value="" style="endArrow=classic;html=1;rounded=0;dashed=1;exitX=1;exitY=0.5;exitDx=0;exitDy=0;strokeColor=#4D4D4D;" parent="1" source="SWZNe6TTEUUtdwUn30GW-272" edge="1">
          <mxGeometry width="50" height="50" relative="1" as="geometry">
            <mxPoint x="1504" y="-429.5" as="sourcePoint" />
            <mxPoint x="1504" y="-499.5" as="targetPoint" />
            <Array as="points">
              <mxPoint x="1464" y="-434.5" />
              <mxPoint x="1464" y="-449.5" />
            </Array>
          </mxGeometry>
        </mxCell>
        <mxCell id="SWZNe6TTEUUtdwUn30GW-276" value="" style="endArrow=classic;html=1;rounded=0;exitX=1;exitY=0.5;exitDx=0;exitDy=0;dashed=1;strokeColor=#4D4D4D;" parent="1" source="SWZNe6TTEUUtdwUn30GW-272" edge="1">
          <mxGeometry width="50" height="50" relative="1" as="geometry">
            <mxPoint x="1504" y="-419.5" as="sourcePoint" />
            <mxPoint x="1504" y="-369.5" as="targetPoint" />
            <Array as="points">
              <mxPoint x="1464" y="-434.5" />
              <mxPoint x="1464" y="-419.5" />
            </Array>
          </mxGeometry>
        </mxCell>
        <mxCell id="SWZNe6TTEUUtdwUn30GW-278" value="" style="fillColor=#10739E;strokeColor=none;opacity=30;" parent="1" vertex="1">
          <mxGeometry x="266.5" y="-940" width="460" height="100" as="geometry" />
        </mxCell>
        <mxCell id="SWZNe6TTEUUtdwUn30GW-279" style="edgeStyle=orthogonalEdgeStyle;rounded=0;orthogonalLoop=1;jettySize=auto;html=1;" parent="1" source="SWZNe6TTEUUtdwUn30GW-281" target="SWZNe6TTEUUtdwUn30GW-291" edge="1">
          <mxGeometry relative="1" as="geometry" />
        </mxCell>
        <mxCell id="SWZNe6TTEUUtdwUn30GW-280" style="edgeStyle=orthogonalEdgeStyle;rounded=0;orthogonalLoop=1;jettySize=auto;html=1;" parent="1" source="SWZNe6TTEUUtdwUn30GW-281" target="SWZNe6TTEUUtdwUn30GW-299" edge="1">
          <mxGeometry relative="1" as="geometry">
            <Array as="points">
              <mxPoint x="371.5" y="-566.69" />
              <mxPoint x="619.5" y="-566.69" />
            </Array>
          </mxGeometry>
        </mxCell>
        <mxCell id="SWZNe6TTEUUtdwUn30GW-281" value="" style="fillColor=#F2931E;strokeColor=none;opacity=30;" parent="1" vertex="1">
          <mxGeometry x="276.5" y="-806.69" width="190" height="230" as="geometry" />
        </mxCell>
        <mxCell id="SWZNe6TTEUUtdwUn30GW-282" value="" style="fillColor=#F2931E;strokeColor=none;opacity=30;" parent="1" vertex="1">
          <mxGeometry x="525.5" y="-807.69" width="190" height="160" as="geometry" />
        </mxCell>
        <mxCell id="SWZNe6TTEUUtdwUn30GW-283" style="edgeStyle=orthogonalEdgeStyle;rounded=0;orthogonalLoop=1;jettySize=auto;html=1;entryX=0.5;entryY=0;entryDx=0;entryDy=0;" parent="1" source="SWZNe6TTEUUtdwUn30GW-284" target="SWZNe6TTEUUtdwUn30GW-282" edge="1">
          <mxGeometry relative="1" as="geometry" />
        </mxCell>
        <mxCell id="SWZNe6TTEUUtdwUn30GW-284" value="Adaptive&#xa;Dynamic Programming" style="rounded=1;fillColor=#23445D;gradientColor=none;strokeColor=none;fontColor=#FFFFFF;fontStyle=1;fontFamily=Tahoma;fontSize=14" parent="1" vertex="1">
          <mxGeometry x="525.5" y="-928.69" width="190" height="80" as="geometry" />
        </mxCell>
        <mxCell id="SWZNe6TTEUUtdwUn30GW-285" value="Policy-Iteration" style="rounded=1;fillColor=#23445D;gradientColor=none;strokeColor=none;fontColor=#FFFFFF;fontStyle=1;fontFamily=Tahoma;fontSize=14" parent="1" vertex="1">
          <mxGeometry x="541.5" y="-793.69" width="158" height="60" as="geometry" />
        </mxCell>
        <mxCell id="SWZNe6TTEUUtdwUn30GW-286" value="Value-Iteration" style="rounded=1;fillColor=#23445D;gradientColor=none;strokeColor=none;fontColor=#FFFFFF;fontStyle=1;fontFamily=Tahoma;fontSize=14" parent="1" vertex="1">
          <mxGeometry x="539.5" y="-722.69" width="160" height="60" as="geometry" />
        </mxCell>
        <mxCell id="SWZNe6TTEUUtdwUn30GW-287" value="HDP" style="rounded=1;fillColor=#23445D;gradientColor=none;strokeColor=none;fontColor=#FFFFFF;fontStyle=1;fontFamily=Tahoma;fontSize=14" parent="1" vertex="1">
          <mxGeometry x="292.5" y="-793.69" width="160" height="60" as="geometry" />
        </mxCell>
        <mxCell id="SWZNe6TTEUUtdwUn30GW-288" value="DHP" style="rounded=1;fillColor=#23445D;gradientColor=none;strokeColor=none;fontColor=#FFFFFF;fontStyle=1;fontFamily=Tahoma;fontSize=14" parent="1" vertex="1">
          <mxGeometry x="292.5" y="-721.69" width="160" height="60" as="geometry" />
        </mxCell>
        <mxCell id="SWZNe6TTEUUtdwUn30GW-289" value="GDHP" style="rounded=1;fillColor=#23445D;gradientColor=none;strokeColor=none;fontColor=#FFFFFF;fontStyle=1;fontFamily=Tahoma;fontSize=14" parent="1" vertex="1">
          <mxGeometry x="292.5" y="-647.69" width="160" height="60" as="geometry" />
        </mxCell>
        <mxCell id="SWZNe6TTEUUtdwUn30GW-291" value="Incremental ACD" style="rounded=1;fillColor=#23445D;gradientColor=none;strokeColor=none;fontColor=#FFFFFF;fontStyle=1;fontFamily=Tahoma;fontSize=14" parent="1" vertex="1">
          <mxGeometry x="276.5" y="-536.69" width="190" height="80" as="geometry" />
        </mxCell>
        <mxCell id="SWZNe6TTEUUtdwUn30GW-292" style="edgeStyle=orthogonalEdgeStyle;rounded=0;orthogonalLoop=1;jettySize=auto;html=1;entryX=0.5;entryY=0;entryDx=0;entryDy=0;" parent="1" source="SWZNe6TTEUUtdwUn30GW-293" target="SWZNe6TTEUUtdwUn30GW-281" edge="1">
          <mxGeometry relative="1" as="geometry" />
        </mxCell>
        <mxCell id="SWZNe6TTEUUtdwUn30GW-293" value="Adaptive&#xa;Critic Designs" style="rounded=1;fillColor=#23445D;gradientColor=none;strokeColor=none;fontColor=#FFFFFF;fontStyle=1;fontFamily=Tahoma;fontSize=14" parent="1" vertex="1">
          <mxGeometry x="276.5" y="-928.69" width="190" height="80" as="geometry" />
        </mxCell>
        <mxCell id="SWZNe6TTEUUtdwUn30GW-299" value="Action Dependent&#xa;ACD" style="rounded=1;fillColor=#23445D;gradientColor=none;strokeColor=none;fontColor=#FFFFFF;fontStyle=1;fontFamily=Tahoma;fontSize=14" parent="1" vertex="1">
          <mxGeometry x="524.5" y="-536.69" width="190" height="80" as="geometry" />
        </mxCell>
        <mxCell id="SWZNe6TTEUUtdwUn30GW-305" value="" style="fillColor=#10739E;strokeColor=none;opacity=30;" parent="1" vertex="1">
          <mxGeometry x="-840" y="-846.53" width="690" height="100" as="geometry" />
        </mxCell>
        <mxCell id="SWZNe6TTEUUtdwUn30GW-306" value="" style="fillColor=#F2931E;strokeColor=none;opacity=30;" parent="1" vertex="1">
          <mxGeometry x="-590" y="-710.6" width="190" height="230" as="geometry" />
        </mxCell>
        <mxCell id="SWZNe6TTEUUtdwUn30GW-307" style="edgeStyle=orthogonalEdgeStyle;rounded=0;orthogonalLoop=1;jettySize=auto;html=1;entryX=0.5;entryY=0;entryDx=0;entryDy=0;" parent="1" source="SWZNe6TTEUUtdwUn30GW-309" target="SWZNe6TTEUUtdwUn30GW-324" edge="1">
          <mxGeometry relative="1" as="geometry" />
        </mxCell>
        <mxCell id="SWZNe6TTEUUtdwUn30GW-308" style="edgeStyle=orthogonalEdgeStyle;rounded=0;orthogonalLoop=1;jettySize=auto;html=1;" parent="1" source="SWZNe6TTEUUtdwUn30GW-309" target="SWZNe6TTEUUtdwUn30GW-314" edge="1">
          <mxGeometry relative="1" as="geometry" />
        </mxCell>
        <mxCell id="SWZNe6TTEUUtdwUn30GW-309" value="Policy Based" style="rounded=1;fillColor=#23445D;gradientColor=none;strokeColor=none;fontColor=#FFFFFF;fontStyle=1;fontFamily=Tahoma;fontSize=14" parent="1" vertex="1">
          <mxGeometry x="-820" y="-836.53" width="190" height="80" as="geometry" />
        </mxCell>
        <mxCell id="SWZNe6TTEUUtdwUn30GW-310" style="edgeStyle=orthogonalEdgeStyle;rounded=0;orthogonalLoop=1;jettySize=auto;html=1;entryX=0.5;entryY=0;entryDx=0;entryDy=0;" parent="1" source="SWZNe6TTEUUtdwUn30GW-312" target="SWZNe6TTEUUtdwUn30GW-319" edge="1">
          <mxGeometry relative="1" as="geometry" />
        </mxCell>
        <mxCell id="SWZNe6TTEUUtdwUn30GW-311" style="edgeStyle=orthogonalEdgeStyle;rounded=0;orthogonalLoop=1;jettySize=auto;html=1;" parent="1" source="SWZNe6TTEUUtdwUn30GW-312" target="SWZNe6TTEUUtdwUn30GW-314" edge="1">
          <mxGeometry relative="1" as="geometry" />
        </mxCell>
        <mxCell id="SWZNe6TTEUUtdwUn30GW-312" value="Value Based" style="rounded=1;fillColor=#23445D;gradientColor=none;strokeColor=none;fontColor=#FFFFFF;fontStyle=1;fontFamily=Tahoma;fontSize=14" parent="1" vertex="1">
          <mxGeometry x="-360" y="-836.53" width="190" height="80" as="geometry" />
        </mxCell>
        <mxCell id="SWZNe6TTEUUtdwUn30GW-313" style="edgeStyle=orthogonalEdgeStyle;rounded=0;orthogonalLoop=1;jettySize=auto;html=1;entryX=0.5;entryY=0;entryDx=0;entryDy=0;" parent="1" source="SWZNe6TTEUUtdwUn30GW-314" target="SWZNe6TTEUUtdwUn30GW-306" edge="1">
          <mxGeometry relative="1" as="geometry" />
        </mxCell>
        <mxCell id="SWZNe6TTEUUtdwUn30GW-314" value="Actor Critic" style="rounded=1;fillColor=#23445D;gradientColor=none;strokeColor=none;fontColor=#FFFFFF;fontStyle=1;fontFamily=Tahoma;fontSize=14" parent="1" vertex="1">
          <mxGeometry x="-590" y="-836.53" width="190" height="80" as="geometry" />
        </mxCell>
        <mxCell id="SWZNe6TTEUUtdwUn30GW-315" value="TD3, TD4, TD7" style="rounded=1;fillColor=#23445D;gradientColor=none;strokeColor=none;fontColor=#FFFFFF;fontStyle=1;fontFamily=Tahoma;fontSize=14" parent="1" vertex="1">
          <mxGeometry x="-572" y="-630.22" width="158" height="60" as="geometry" />
        </mxCell>
        <mxCell id="SWZNe6TTEUUtdwUn30GW-316" value="DDPG" style="rounded=1;fillColor=#23445D;gradientColor=none;strokeColor=none;fontColor=#FFFFFF;fontStyle=1;fontFamily=Tahoma;fontSize=14" parent="1" vertex="1">
          <mxGeometry x="-574" y="-700.22" width="158" height="60" as="geometry" />
        </mxCell>
        <mxCell id="SWZNe6TTEUUtdwUn30GW-317" value="SAC, DSAC" style="rounded=1;fillColor=#23445D;gradientColor=none;strokeColor=none;fontColor=#FFFFFF;fontStyle=1;fontFamily=Tahoma;fontSize=14" parent="1" vertex="1">
          <mxGeometry x="-574" y="-559.72" width="158" height="60" as="geometry" />
        </mxCell>
        <mxCell id="SWZNe6TTEUUtdwUn30GW-318" value="" style="group" parent="1" vertex="1" connectable="0">
          <mxGeometry x="-360" y="-712.1500000000001" width="190" height="229.99999999999994" as="geometry" />
        </mxCell>
        <mxCell id="SWZNe6TTEUUtdwUn30GW-319" value="" style="fillColor=#F2931E;strokeColor=none;opacity=30;" parent="SWZNe6TTEUUtdwUn30GW-318" vertex="1">
          <mxGeometry width="190" height="230" as="geometry" />
        </mxCell>
        <mxCell id="SWZNe6TTEUUtdwUn30GW-320" value="..." style="rounded=1;fillColor=#23445D;gradientColor=none;strokeColor=none;fontColor=#FFFFFF;fontStyle=1;fontFamily=Tahoma;fontSize=14" parent="SWZNe6TTEUUtdwUn30GW-318" vertex="1">
          <mxGeometry x="16" y="82.55000000000001" width="158" height="60" as="geometry" />
        </mxCell>
        <mxCell id="SWZNe6TTEUUtdwUn30GW-321" value="DQN" style="rounded=1;fillColor=#23445D;gradientColor=none;strokeColor=none;fontColor=#FFFFFF;fontStyle=1;fontFamily=Tahoma;fontSize=14" parent="SWZNe6TTEUUtdwUn30GW-318" vertex="1">
          <mxGeometry x="16" y="11.550000000000011" width="158" height="60" as="geometry" />
        </mxCell>
        <mxCell id="SWZNe6TTEUUtdwUn30GW-322" value="Rainbow DQN" style="rounded=1;fillColor=#23445D;gradientColor=none;strokeColor=none;fontColor=#FFFFFF;fontStyle=1;fontFamily=Tahoma;fontSize=14" parent="SWZNe6TTEUUtdwUn30GW-318" vertex="1">
          <mxGeometry x="16" y="153.18" width="158" height="60" as="geometry" />
        </mxCell>
        <mxCell id="SWZNe6TTEUUtdwUn30GW-323" value="" style="group" parent="1" vertex="1" connectable="0">
          <mxGeometry x="-820" y="-708.1500000000001" width="190" height="229.99999999999994" as="geometry" />
        </mxCell>
        <mxCell id="SWZNe6TTEUUtdwUn30GW-324" value="" style="fillColor=#F2931E;strokeColor=none;opacity=30;" parent="SWZNe6TTEUUtdwUn30GW-323" vertex="1">
          <mxGeometry width="190" height="230" as="geometry" />
        </mxCell>
        <mxCell id="SWZNe6TTEUUtdwUn30GW-325" value="REINFORCE" style="rounded=1;fillColor=#23445D;gradientColor=none;strokeColor=none;fontColor=#FFFFFF;fontStyle=1;fontFamily=Tahoma;fontSize=14" parent="SWZNe6TTEUUtdwUn30GW-323" vertex="1">
          <mxGeometry x="16" y="11.550000000000011" width="158" height="60" as="geometry" />
        </mxCell>
        <mxCell id="SWZNe6TTEUUtdwUn30GW-326" value="TRPO" style="rounded=1;fillColor=#23445D;gradientColor=none;strokeColor=none;fontColor=#FFFFFF;fontStyle=1;fontFamily=Tahoma;fontSize=14" parent="SWZNe6TTEUUtdwUn30GW-323" vertex="1">
          <mxGeometry x="16" y="82.55000000000001" width="158" height="60" as="geometry" />
        </mxCell>
        <mxCell id="SWZNe6TTEUUtdwUn30GW-327" value="PPO" style="rounded=1;fillColor=#23445D;gradientColor=none;strokeColor=none;fontColor=#FFFFFF;fontStyle=1;fontFamily=Tahoma;fontSize=14" parent="SWZNe6TTEUUtdwUn30GW-323" vertex="1">
          <mxGeometry x="16" y="152.18" width="158" height="60" as="geometry" />
        </mxCell>
        <mxCell id="WcXE2H5rrCi0F2NGsBAx-126" value="&lt;b style=&quot;&quot;&gt;&lt;font face=&quot;Helvetica&quot;&gt;MDP Environment&lt;/font&gt;&lt;/b&gt;" style="rounded=0;whiteSpace=wrap;html=1;verticalAlign=top;" vertex="1" parent="1">
          <mxGeometry x="2267" y="1360" width="405" height="176" as="geometry" />
        </mxCell>
        <mxCell id="WcXE2H5rrCi0F2NGsBAx-135" value="" style="endArrow=classic;html=1;rounded=0;entryX=0;entryY=0.5;entryDx=0;entryDy=0;startSize=6;jumpSize=6;" edge="1" parent="1" target="WcXE2H5rrCi0F2NGsBAx-126">
          <mxGeometry width="50" height="50" relative="1" as="geometry">
            <mxPoint x="2200" y="1448" as="sourcePoint" />
            <mxPoint x="2210" y="1409.19" as="targetPoint" />
          </mxGeometry>
        </mxCell>
        <mxCell id="WcXE2H5rrCi0F2NGsBAx-137" value="$$a_t$$" style="edgeLabel;html=1;align=center;verticalAlign=middle;resizable=0;points=[];labelBackgroundColor=none;" vertex="1" connectable="0" parent="WcXE2H5rrCi0F2NGsBAx-135">
          <mxGeometry x="-0.5335" y="-1" relative="1" as="geometry">
            <mxPoint x="14" y="-13" as="offset" />
          </mxGeometry>
        </mxCell>
        <mxCell id="WcXE2H5rrCi0F2NGsBAx-139" value="&lt;b&gt;&lt;font style=&quot;font-size: 20px;&quot; face=&quot;Times New Roman&quot;&gt;I-&lt;/font&gt;&lt;/b&gt;" style="rounded=0;whiteSpace=wrap;html=1;verticalAlign=top;" vertex="1" parent="1">
          <mxGeometry x="1715" y="1285" width="230" height="210" as="geometry" />
        </mxCell>
        <mxCell id="WcXE2H5rrCi0F2NGsBAx-140" value="" style="rounded=1;whiteSpace=wrap;html=1;fillColor=#F7F9FC;strokeColor=#6c8ebf;horizontal=1;verticalAlign=top;dashed=1;" vertex="1" parent="1">
          <mxGeometry x="1725" y="1325" width="210" height="150" as="geometry" />
        </mxCell>
        <mxCell id="WcXE2H5rrCi0F2NGsBAx-141" style="edgeStyle=orthogonalEdgeStyle;rounded=0;orthogonalLoop=1;jettySize=auto;html=1;labelBackgroundColor=none;" edge="1" parent="1">
          <mxGeometry relative="1" as="geometry">
            <mxPoint x="1927.5" y="1356.5" as="targetPoint" />
            <mxPoint x="1887.5" y="1356.5" as="sourcePoint" />
            <Array as="points">
              <mxPoint x="1908" y="1356.5" />
              <mxPoint x="1908" y="1356.5" />
            </Array>
          </mxGeometry>
        </mxCell>
        <mxCell id="WcXE2H5rrCi0F2NGsBAx-142" value="$$u_t$$" style="edgeLabel;html=1;align=center;verticalAlign=middle;resizable=0;points=[];labelBackgroundColor=none;" vertex="1" connectable="0" parent="WcXE2H5rrCi0F2NGsBAx-141">
          <mxGeometry x="-0.3087" relative="1" as="geometry">
            <mxPoint x="6" y="-10" as="offset" />
          </mxGeometry>
        </mxCell>
        <mxCell id="WcXE2H5rrCi0F2NGsBAx-143" value="&lt;font face=&quot;Courier New&quot;&gt;Actor&lt;/font&gt;" style="rounded=0;whiteSpace=wrap;html=1;" vertex="1" parent="1">
          <mxGeometry x="1808.5" y="1341.5" width="80" height="30" as="geometry" />
        </mxCell>
        <mxCell id="WcXE2H5rrCi0F2NGsBAx-144" value="$$x_t$$" style="endArrow=classic;html=1;rounded=0;labelBackgroundColor=none;" edge="1" target="WcXE2H5rrCi0F2NGsBAx-143" parent="1">
          <mxGeometry y="10" width="50" height="50" relative="1" as="geometry">
            <mxPoint x="1732.5" y="1356.5" as="sourcePoint" />
            <mxPoint x="1818.5" y="1366.3" as="targetPoint" />
            <mxPoint as="offset" />
          </mxGeometry>
        </mxCell>
        <mxCell id="WcXE2H5rrCi0F2NGsBAx-145" value="&lt;div&gt;&lt;br/&gt;&lt;/div&gt;" style="edgeLabel;html=1;align=center;verticalAlign=middle;resizable=0;points=[];" vertex="1" connectable="0" parent="WcXE2H5rrCi0F2NGsBAx-144">
          <mxGeometry x="-0.4" y="1" relative="1" as="geometry">
            <mxPoint as="offset" />
          </mxGeometry>
        </mxCell>
        <mxCell id="WcXE2H5rrCi0F2NGsBAx-146" style="edgeStyle=orthogonalEdgeStyle;rounded=0;orthogonalLoop=1;jettySize=auto;html=1;" edge="1" source="WcXE2H5rrCi0F2NGsBAx-148" parent="1">
          <mxGeometry relative="1" as="geometry">
            <mxPoint x="1928.5" y="1440" as="targetPoint" />
          </mxGeometry>
        </mxCell>
        <mxCell id="WcXE2H5rrCi0F2NGsBAx-147" value="$$V(x_t)$$" style="edgeLabel;html=1;align=center;verticalAlign=middle;resizable=0;points=[];labelBackgroundColor=none;" vertex="1" connectable="0" parent="WcXE2H5rrCi0F2NGsBAx-146">
          <mxGeometry x="-0.3087" relative="1" as="geometry">
            <mxPoint x="6" y="-10" as="offset" />
          </mxGeometry>
        </mxCell>
        <mxCell id="WcXE2H5rrCi0F2NGsBAx-148" value="&lt;font face=&quot;Courier New&quot;&gt;Critic&lt;/font&gt;" style="rounded=0;whiteSpace=wrap;html=1;" vertex="1" parent="1">
          <mxGeometry x="1808.5" y="1425" width="80" height="30" as="geometry" />
        </mxCell>
        <mxCell id="WcXE2H5rrCi0F2NGsBAx-149" value="$$x_t$$" style="endArrow=classic;html=1;rounded=0;labelBackgroundColor=none;" edge="1" parent="1">
          <mxGeometry y="10" width="50" height="50" relative="1" as="geometry">
            <mxPoint x="1732.5" y="1439.5" as="sourcePoint" />
            <mxPoint x="1809" y="1439.8899999999999" as="targetPoint" />
            <mxPoint as="offset" />
          </mxGeometry>
        </mxCell>
        <mxCell id="WcXE2H5rrCi0F2NGsBAx-150" value="&lt;div&gt;&lt;br/&gt;&lt;/div&gt;" style="edgeLabel;html=1;align=center;verticalAlign=middle;resizable=0;points=[];" vertex="1" connectable="0" parent="WcXE2H5rrCi0F2NGsBAx-149">
          <mxGeometry x="-0.4" y="1" relative="1" as="geometry">
            <mxPoint as="offset" />
          </mxGeometry>
        </mxCell>
        <mxCell id="WcXE2H5rrCi0F2NGsBAx-151" value="&lt;font face=&quot;Courier New&quot;&gt;RLS&lt;/font&gt;" style="rounded=0;whiteSpace=wrap;html=1;" vertex="1" parent="1">
          <mxGeometry x="1758.5" y="1382.5" width="50" height="30" as="geometry" />
        </mxCell>
        <mxCell id="WcXE2H5rrCi0F2NGsBAx-152" value="$$x_t$$" style="endArrow=classic;html=1;rounded=0;labelBackgroundColor=none;" edge="1" parent="1">
          <mxGeometry y="10" width="50" height="50" relative="1" as="geometry">
            <mxPoint x="1732.5" y="1397.5" as="sourcePoint" />
            <mxPoint x="1758.5" y="1397.3" as="targetPoint" />
            <mxPoint as="offset" />
          </mxGeometry>
        </mxCell>
        <mxCell id="WcXE2H5rrCi0F2NGsBAx-153" value="&lt;div&gt;&lt;br/&gt;&lt;/div&gt;" style="edgeLabel;html=1;align=center;verticalAlign=middle;resizable=0;points=[];" vertex="1" connectable="0" parent="WcXE2H5rrCi0F2NGsBAx-152">
          <mxGeometry x="-0.4" y="1" relative="1" as="geometry">
            <mxPoint as="offset" />
          </mxGeometry>
        </mxCell>
        <mxCell id="WcXE2H5rrCi0F2NGsBAx-154" value="" style="endArrow=classic;html=1;rounded=0;dashed=1;exitX=1;exitY=0.5;exitDx=0;exitDy=0;strokeColor=#4D4D4D;" edge="1" source="WcXE2H5rrCi0F2NGsBAx-151" parent="1">
          <mxGeometry width="50" height="50" relative="1" as="geometry">
            <mxPoint x="1872.5" y="1402.5" as="sourcePoint" />
            <mxPoint x="1872.5" y="1332.5" as="targetPoint" />
            <Array as="points">
              <mxPoint x="1832.5" y="1397.5" />
              <mxPoint x="1832.5" y="1382.5" />
            </Array>
          </mxGeometry>
        </mxCell>
        <mxCell id="WcXE2H5rrCi0F2NGsBAx-155" value="" style="endArrow=classic;html=1;rounded=0;exitX=1;exitY=0.5;exitDx=0;exitDy=0;dashed=1;strokeColor=#4D4D4D;" edge="1" source="WcXE2H5rrCi0F2NGsBAx-151" parent="1">
          <mxGeometry width="50" height="50" relative="1" as="geometry">
            <mxPoint x="1872.5" y="1412.5" as="sourcePoint" />
            <mxPoint x="1872.5" y="1462.5" as="targetPoint" />
            <Array as="points">
              <mxPoint x="1832.5" y="1397.5" />
              <mxPoint x="1832.5" y="1412.5" />
            </Array>
          </mxGeometry>
        </mxCell>
        <mxCell id="WcXE2H5rrCi0F2NGsBAx-157" value="" style="endArrow=classic;html=1;rounded=0;exitX=1;exitY=0.25;exitDx=0;exitDy=0;" edge="1" parent="1">
          <mxGeometry width="50" height="50" relative="1" as="geometry">
            <mxPoint x="2672" y="1411.03" as="sourcePoint" />
            <mxPoint x="2730" y="1411" as="targetPoint" />
          </mxGeometry>
        </mxCell>
        <mxCell id="WcXE2H5rrCi0F2NGsBAx-158" value="$$r_{t+1}$$" style="edgeLabel;html=1;align=center;verticalAlign=middle;resizable=0;points=[];labelBackgroundColor=none;" vertex="1" connectable="0" parent="WcXE2H5rrCi0F2NGsBAx-157">
          <mxGeometry x="-0.5335" y="-1" relative="1" as="geometry">
            <mxPoint x="14" y="-13" as="offset" />
          </mxGeometry>
        </mxCell>
        <mxCell id="WcXE2H5rrCi0F2NGsBAx-159" value="" style="endArrow=classic;html=1;rounded=0;exitX=1;exitY=0.75;exitDx=0;exitDy=0;" edge="1" parent="1">
          <mxGeometry width="50" height="50" relative="1" as="geometry">
            <mxPoint x="2672" y="1478.53" as="sourcePoint" />
            <mxPoint x="2731" y="1478.28" as="targetPoint" />
          </mxGeometry>
        </mxCell>
        <mxCell id="WcXE2H5rrCi0F2NGsBAx-160" value="$$s_{t+1}$$" style="edgeLabel;html=1;align=center;verticalAlign=middle;resizable=0;points=[];labelBackgroundColor=none;" vertex="1" connectable="0" parent="WcXE2H5rrCi0F2NGsBAx-159">
          <mxGeometry x="-0.5335" y="-1" relative="1" as="geometry">
            <mxPoint x="14" y="-13" as="offset" />
          </mxGeometry>
        </mxCell>
        <mxCell id="WcXE2H5rrCi0F2NGsBAx-191" value="" style="group" vertex="1" connectable="0" parent="1">
          <mxGeometry x="2281" y="1393" width="380" height="127" as="geometry" />
        </mxCell>
        <mxCell id="WcXE2H5rrCi0F2NGsBAx-163" value="$$x_{t+1}$$" style="edgeStyle=orthogonalEdgeStyle;rounded=0;orthogonalLoop=1;jettySize=auto;html=1;labelBackgroundColor=none;" edge="1" parent="WcXE2H5rrCi0F2NGsBAx-191" source="WcXE2H5rrCi0F2NGsBAx-127">
          <mxGeometry x="-0.1491" y="13" relative="1" as="geometry">
            <mxPoint x="190" y="50" as="targetPoint" />
            <Array as="points">
              <mxPoint x="150.01999999999998" y="50" />
              <mxPoint x="150.01999999999998" y="50" />
            </Array>
            <mxPoint as="offset" />
          </mxGeometry>
        </mxCell>
        <mxCell id="WcXE2H5rrCi0F2NGsBAx-168" style="edgeStyle=orthogonalEdgeStyle;rounded=0;orthogonalLoop=1;jettySize=auto;html=1;" edge="1" parent="WcXE2H5rrCi0F2NGsBAx-191" source="WcXE2H5rrCi0F2NGsBAx-127">
          <mxGeometry relative="1" as="geometry">
            <mxPoint x="90.25" y="107" as="targetPoint" />
            <Array as="points">
              <mxPoint x="160" y="50" />
              <mxPoint x="160" y="107" />
            </Array>
          </mxGeometry>
        </mxCell>
        <mxCell id="WcXE2H5rrCi0F2NGsBAx-127" value="&lt;b style=&quot;&quot;&gt;Aircraft Model&lt;/b&gt;" style="rounded=0;whiteSpace=wrap;html=1;verticalAlign=middle;" vertex="1" parent="WcXE2H5rrCi0F2NGsBAx-191">
          <mxGeometry x="40.5" y="17" width="99.5" height="58" as="geometry" />
        </mxCell>
        <mxCell id="WcXE2H5rrCi0F2NGsBAx-184" style="edgeStyle=orthogonalEdgeStyle;rounded=0;orthogonalLoop=1;jettySize=auto;html=1;" edge="1" parent="WcXE2H5rrCi0F2NGsBAx-191">
          <mxGeometry relative="1" as="geometry">
            <mxPoint x="380" y="37.35714285714266" as="targetPoint" />
            <mxPoint x="350.02" y="37" as="sourcePoint" />
          </mxGeometry>
        </mxCell>
        <mxCell id="WcXE2H5rrCi0F2NGsBAx-186" value="$$r_{t+1}$$" style="edgeLabel;html=1;align=center;verticalAlign=middle;resizable=0;points=[];labelBackgroundColor=none;" vertex="1" connectable="0" parent="WcXE2H5rrCi0F2NGsBAx-184">
          <mxGeometry x="-0.1274" relative="1" as="geometry">
            <mxPoint x="1" y="-12" as="offset" />
          </mxGeometry>
        </mxCell>
        <mxCell id="WcXE2H5rrCi0F2NGsBAx-185" style="edgeStyle=orthogonalEdgeStyle;rounded=0;orthogonalLoop=1;jettySize=auto;html=1;" edge="1" parent="WcXE2H5rrCi0F2NGsBAx-191">
          <mxGeometry relative="1" as="geometry">
            <mxPoint x="380" y="62.5" as="targetPoint" />
            <mxPoint x="350.02" y="63" as="sourcePoint" />
          </mxGeometry>
        </mxCell>
        <mxCell id="WcXE2H5rrCi0F2NGsBAx-187" value="$$s_{t+1}$$" style="edgeLabel;html=1;align=center;verticalAlign=middle;resizable=0;points=[];labelBackgroundColor=none;" vertex="1" connectable="0" parent="WcXE2H5rrCi0F2NGsBAx-185">
          <mxGeometry x="-0.1241" y="-1" relative="1" as="geometry">
            <mxPoint y="-11" as="offset" />
          </mxGeometry>
        </mxCell>
        <mxCell id="WcXE2H5rrCi0F2NGsBAx-132" value="&lt;b style=&quot;&quot;&gt;&lt;font face=&quot;Helvetica&quot;&gt;Reward &amp;amp; Output Function&lt;/font&gt;&lt;/b&gt;" style="rounded=0;whiteSpace=wrap;html=1;verticalAlign=middle;" vertex="1" parent="WcXE2H5rrCi0F2NGsBAx-191">
          <mxGeometry x="243.51999999999998" y="18" width="106.5" height="58" as="geometry" />
        </mxCell>
        <mxCell id="WcXE2H5rrCi0F2NGsBAx-161" value="" style="endArrow=classic;html=1;rounded=0;" edge="1" parent="WcXE2H5rrCi0F2NGsBAx-191">
          <mxGeometry width="50" height="50" relative="1" as="geometry">
            <mxPoint y="37" as="sourcePoint" />
            <mxPoint x="40" y="37" as="targetPoint" />
          </mxGeometry>
        </mxCell>
        <mxCell id="WcXE2H5rrCi0F2NGsBAx-162" value="$$u_t$$" style="edgeLabel;html=1;align=center;verticalAlign=middle;resizable=0;points=[];labelBackgroundColor=none;" vertex="1" connectable="0" parent="WcXE2H5rrCi0F2NGsBAx-161">
          <mxGeometry x="-0.5335" y="-1" relative="1" as="geometry">
            <mxPoint x="11" y="-13" as="offset" />
          </mxGeometry>
        </mxCell>
        <mxCell id="WcXE2H5rrCi0F2NGsBAx-167" value="" style="endArrow=none;dashed=1;html=1;rounded=0;" edge="1" parent="WcXE2H5rrCi0F2NGsBAx-191">
          <mxGeometry width="50" height="50" relative="1" as="geometry">
            <mxPoint x="90" y="127" as="sourcePoint" />
            <mxPoint x="90.07999999999993" y="87" as="targetPoint" />
          </mxGeometry>
        </mxCell>
        <mxCell id="WcXE2H5rrCi0F2NGsBAx-169" value="" style="endArrow=classic;html=1;rounded=0;" edge="1" parent="WcXE2H5rrCi0F2NGsBAx-191">
          <mxGeometry width="50" height="50" relative="1" as="geometry">
            <mxPoint x="90" y="107" as="sourcePoint" />
            <mxPoint x="40" y="63" as="targetPoint" />
            <Array as="points">
              <mxPoint x="10" y="107" />
              <mxPoint x="10" y="63" />
            </Array>
          </mxGeometry>
        </mxCell>
        <mxCell id="WcXE2H5rrCi0F2NGsBAx-170" value="$$x_t$$" style="edgeLabel;html=1;align=center;verticalAlign=middle;resizable=0;points=[];labelBackgroundColor=none;" vertex="1" connectable="0" parent="WcXE2H5rrCi0F2NGsBAx-169">
          <mxGeometry x="-0.5266" y="1" relative="1" as="geometry">
            <mxPoint y="-11" as="offset" />
          </mxGeometry>
        </mxCell>
        <mxCell id="WcXE2H5rrCi0F2NGsBAx-182" value="" style="endArrow=none;html=1;rounded=0;strokeWidth=4;" edge="1" parent="WcXE2H5rrCi0F2NGsBAx-191">
          <mxGeometry width="50" height="50" relative="1" as="geometry">
            <mxPoint x="192" y="60" as="sourcePoint" />
            <mxPoint x="192" as="targetPoint" />
          </mxGeometry>
        </mxCell>
        <mxCell id="WcXE2H5rrCi0F2NGsBAx-188" value="" style="endArrow=classic;html=1;rounded=0;entryX=0;entryY=0.5;entryDx=0;entryDy=0;" edge="1" parent="WcXE2H5rrCi0F2NGsBAx-191" target="WcXE2H5rrCi0F2NGsBAx-132">
          <mxGeometry width="50" height="50" relative="1" as="geometry">
            <mxPoint x="190.01999999999998" y="27" as="sourcePoint" />
            <mxPoint x="200.01999999999998" y="-23" as="targetPoint" />
            <Array as="points">
              <mxPoint x="220.01999999999998" y="27" />
              <mxPoint x="220.01999999999998" y="47" />
            </Array>
          </mxGeometry>
        </mxCell>
        <mxCell id="WcXE2H5rrCi0F2NGsBAx-189" value="" style="endArrow=classic;html=1;rounded=0;" edge="1" parent="WcXE2H5rrCi0F2NGsBAx-191">
          <mxGeometry width="50" height="50" relative="1" as="geometry">
            <mxPoint x="150.01999999999998" y="12.529999999999973" as="sourcePoint" />
            <mxPoint x="190.01999999999998" y="12.529999999999973" as="targetPoint" />
          </mxGeometry>
        </mxCell>
        <mxCell id="WcXE2H5rrCi0F2NGsBAx-190" value="&lt;span style=&quot;&quot;&gt;$$x_{ref}$$&lt;/span&gt;" style="edgeLabel;html=1;align=center;verticalAlign=middle;resizable=0;points=[];labelBackgroundColor=none;" vertex="1" connectable="0" parent="WcXE2H5rrCi0F2NGsBAx-189">
          <mxGeometry x="-0.2355" relative="1" as="geometry">
            <mxPoint x="-5" y="-10" as="offset" />
          </mxGeometry>
        </mxCell>
      </root>
    </mxGraphModel>
  </diagram>
</mxfile>
